<svg xmlns="http://www.w3.org/2000/svg" width="1188" height="462" fill="none" viewBox="0 0 1188 462"><path fill="#0c0d0e" fill-opacity=".3" fill-rule="evenodd" d="M0 66.25h1v-.5H0zm3 0h2v-.5H3zm4 0h2v-.5H7zm4 0h2v-.5h-2zm4 0h2v-.5h-2zm4 0h2v-.5h-2zm4 0h2v-.5h-2zm4 0h2v-.5h-2zm4 0h2v-.5h-2zm4 0h2v-.5h-2zm4 0h2v-.5h-2zm4 0h2v-.5h-2zm4 0h2v-.5h-2zm4 0h2v-.5h-2zm4 0h2v-.5h-2zm4 0h2v-.5h-2zm4 0h2v-.5h-2zm4 0h2v-.5h-2zm4 0h2v-.5h-2zm4 0h2v-.5h-2zm4 0h2v-.5h-2zm4 0h2v-.5h-2zm4 0h2v-.5h-2zm4 0h2v-.5h-2zm4 0h2v-.5h-2zm4 0h2v-.5h-2zm4 0h2v-.5h-2zm4 0h2v-.5h-2zm4 0h2v-.5h-2zm4 0h2v-.5h-2zm4 0h2v-.5h-2zm4 0h2v-.5h-2zm4 0h2v-.5h-2zm4 0h2v-.5h-2zm4 0h2v-.5h-2zm4 0h2v-.5h-2zm4 0h2v-.5h-2zm4 0h2v-.5h-2zm4 0h2v-.5h-2zm4 0h2v-.5h-2zm4 0h2v-.5h-2zm4 0h2v-.5h-2zm4 0h2v-.5h-2zm4 0h2v-.5h-2zm4 0h2v-.5h-2zm4 0h2v-.5h-2zm4 0h2v-.5h-2zm4 0h2v-.5h-2zm4 0h2v-.5h-2zm4 0h2v-.5h-2zm4 0h2v-.5h-2zm4 0h2v-.5h-2zm4 0h2v-.5h-2zm4 0h2v-.5h-2zm4 0h2v-.5h-2zm4 0h2v-.5h-2zm4 0h2v-.5h-2zm4 0h2v-.5h-2zm4 0h2v-.5h-2zm4 0h2v-.5h-2zm4 0h2v-.5h-2zm4 0h2v-.5h-2zm4 0h2v-.5h-2zm4 0h2v-.5h-2zm4 0h2v-.5h-2zm4 0h2v-.5h-2zm4 0h2v-.5h-2zm4 0h2v-.5h-2zm4 0h2v-.5h-2zm4 0h2v-.5h-2zm4 0h2v-.5h-2zm4 0h2v-.5h-2zm4 0h2v-.5h-2zm4 0h2v-.5h-2zm4 0h2v-.5h-2zm4 0h2v-.5h-2zm4 0h2v-.5h-2zm4 0h2v-.5h-2zm4 0h2v-.5h-2zm4 0h2v-.5h-2zm4 0h2v-.5h-2zm4 0h2v-.5h-2zm4 0h2v-.5h-2zm4 0h2v-.5h-2zm4 0h2v-.5h-2zm4 0h2v-.5h-2zm4 0h2v-.5h-2zm4 0h2v-.5h-2zm4 0h2v-.5h-2zm4 0h2v-.5h-2zm4 0h2v-.5h-2zm4 0h2v-.5h-2zm4 0h2v-.5h-2zm4 0h2v-.5h-2zm4 0h2v-.5h-2zm4 0h2v-.5h-2zm4 0h2v-.5h-2zm4 0h2v-.5h-2zm4 0h2v-.5h-2zm4 0h2v-.5h-2zm4 0h2v-.5h-2zm4 0h2v-.5h-2zm4 0h2v-.5h-2zm4 0h2v-.5h-2zm4 0h2v-.5h-2zm4 0h2v-.5h-2zm4 0h2v-.5h-2zm4 0h2v-.5h-2zm4 0h2v-.5h-2zm4 0h2v-.5h-2zm4 0h2v-.5h-2zm4 0h2v-.5h-2zm4 0h2v-.5h-2zm4 0h2v-.5h-2zm4 0h2v-.5h-2zm4 0h2v-.5h-2zm4 0h2v-.5h-2zm4 0h2v-.5h-2zm4 0h2v-.5h-2zm4 0h2v-.5h-2zm4 0h2v-.5h-2zm4 0h2v-.5h-2zm4 0h2v-.5h-2zm4 0h2v-.5h-2zm4 0h2v-.5h-2zm4 0h2v-.5h-2zm4 0h2v-.5h-2zm4 0h2v-.5h-2zm4 0h2v-.5h-2zm4 0h2v-.5h-2zm4 0h2v-.5h-2zm4 0h2v-.5h-2zm4 0h2v-.5h-2zm4 0h2v-.5h-2zm4 0h2v-.5h-2zm4 0h2v-.5h-2zm4 0h2v-.5h-2zm4 0h2v-.5h-2zm4 0h2v-.5h-2zm4 0h2v-.5h-2zm4 0h2v-.5h-2zm4 0h2v-.5h-2zm4 0h2v-.5h-2zm4 0h2v-.5h-2zm4 0h2v-.5h-2zm4 0h2v-.5h-2zm4 0h2v-.5h-2zm4 0h2v-.5h-2zm4 0h2v-.5h-2zm4 0h2v-.5h-2zm4 0h2v-.5h-2zm4 0h2v-.5h-2zm4 0h2v-.5h-2zm4 0h2v-.5h-2zm4 0h2v-.5h-2zm4 0h2v-.5h-2zm4 0h2v-.5h-2zm4 0h2v-.5h-2zm4 0h2v-.5h-2zm4 0h2v-.5h-2zm4 0h2v-.5h-2zm4 0h2v-.5h-2zm4 0h2v-.5h-2zm4 0h2v-.5h-2zm4 0h2v-.5h-2zm4 0h2v-.5h-2zm4 0h2v-.5h-2zm4 0h2v-.5h-2zm4 0h2v-.5h-2zm4 0h2v-.5h-2zm4 0h2v-.5h-2zm4 0h2v-.5h-2zm4 0h2v-.5h-2zm4 0h2v-.5h-2zm4 0h2v-.5h-2zm4 0h2v-.5h-2zm4 0h2v-.5h-2zm4 0h2v-.5h-2zm4 0h2v-.5h-2zm4 0h2v-.5h-2zm4 0h2v-.5h-2zm4 0h2v-.5h-2zm4 0h2v-.5h-2zm4 0h2v-.5h-2zm4 0h2v-.5h-2zm4 0h2v-.5h-2zm4 0h2v-.5h-2zm4 0h2v-.5h-2zm4 0h2v-.5h-2zm4 0h2v-.5h-2zm4 0h2v-.5h-2zm4 0h2v-.5h-2zm4 0h2v-.5h-2zm4 0h2v-.5h-2zm4 0h2v-.5h-2zm4 0h2v-.5h-2zm4 0h2v-.5h-2zm4 0h2v-.5h-2zm4 0h2v-.5h-2zm4 0h2v-.5h-2zm4 0h2v-.5h-2zm4 0h2v-.5h-2zm4 0h2v-.5h-2zm4 0h2v-.5h-2zm4 0h2v-.5h-2zm4 0h2v-.5h-2zm4 0h2v-.5h-2zm4 0h2v-.5h-2zm4 0h2v-.5h-2zm4 0h2v-.5h-2zm4 0h2v-.5h-2zm4 0h2v-.5h-2zm4 0h2v-.5h-2zm4 0h2v-.5h-2zm4 0h2v-.5h-2zm4 0h2v-.5h-2zm4 0h2v-.5h-2zm4 0h2v-.5h-2zm4 0h2v-.5h-2zm4 0h2v-.5h-2zm4 0h2v-.5h-2zm4 0h2v-.5h-2zm4 0h2v-.5h-2zm4 0h2v-.5h-2zm4 0h2v-.5h-2zm4 0h2v-.5h-2zm4 0h2v-.5h-2zm4 0h2v-.5h-2zm4 0h2v-.5h-2zm4 0h2v-.5h-2zm4 0h2v-.5h-2zm4 0h2v-.5h-2zm4 0h2v-.5h-2zm4 0h2v-.5h-2zm4 0h2v-.5h-2zm4 0h2v-.5h-2zm4 0h2v-.5h-2zm4 0h2v-.5h-2zm4 0h2v-.5h-2zm4 0h2v-.5h-2zm4 0h2v-.5h-2zm4 0h2v-.5h-2zm4 0h2v-.5h-2zm4 0h2v-.5h-2zm4 0h2v-.5h-2zm4 0h2v-.5h-2zm4 0h2v-.5h-2zm4 0h2v-.5h-2zm4 0h2v-.5h-2zm4 0h2v-.5h-2zm4 0h2v-.5h-2zm4 0h2v-.5h-2zm4 0h2v-.5h-2zm4 0h2v-.5h-2zm4 0h2v-.5h-2zm4 0h2v-.5h-2zm4 0h2v-.5h-2zm4 0h2v-.5h-2zm4 0h2v-.5h-2zm4 0h2v-.5h-2zm4 0h2v-.5h-2zm4 0h2v-.5h-2zm4 0h2v-.5h-2zm4 0h2v-.5h-2zm4 0h2v-.5h-2zm4 0h2v-.5h-2zm4 0h2v-.5h-2zm4 0h2v-.5h-2zm4 0h2v-.5h-2zm4 0h2v-.5h-2zm4 0h2v-.5h-2zm4 0h2v-.5h-2zm4 0h2v-.5h-2zm4 0h2v-.5h-2zm4 0h2v-.5h-2zm4 0h2v-.5h-2zm4 0h2v-.5h-2zm4 0h2v-.5h-2zm4 0h2v-.5h-2zm4 0h2v-.5h-2zm4 0h2v-.5h-2zm4 0h2v-.5h-2zm4 0h2v-.5h-2zm4 0h2v-.5h-2zm4 0h2v-.5h-2zm4 0h2v-.5h-2zm4 0h2v-.5h-2zm4 0h2v-.5h-2zm4 0h2v-.5h-2zm4 0h2v-.5h-2zm4 0h2v-.5h-2zm4 0h2v-.5h-2zm4 0h2v-.5h-2zm4 0h2v-.5h-2zm4 0h2v-.5h-2zm4 0h2v-.5h-2zm4 0h2v-.5h-2zm4 0h1v-.5h-1zM0 132.25h1v-.5H0zm3 0h2v-.5H3zm4 0h2v-.5H7zm4 0h2v-.5h-2zm4 0h2v-.5h-2zm4 0h2v-.5h-2zm4 0h2v-.5h-2zm4 0h2v-.5h-2zm4 0h2v-.5h-2zm4 0h2v-.5h-2zm4 0h2v-.5h-2zm4 0h2v-.5h-2zm4 0h2v-.5h-2zm4 0h2v-.5h-2zm4 0h2v-.5h-2zm4 0h2v-.5h-2zm4 0h2v-.5h-2zm4 0h2v-.5h-2zm4 0h2v-.5h-2zm4 0h2v-.5h-2zm4 0h2v-.5h-2zm4 0h2v-.5h-2zm4 0h2v-.5h-2zm4 0h2v-.5h-2zm4 0h2v-.5h-2zm4 0h2v-.5h-2zm4 0h2v-.5h-2zm4 0h2v-.5h-2zm4 0h2v-.5h-2zm4 0h2v-.5h-2zm4 0h2v-.5h-2zm4 0h2v-.5h-2zm4 0h2v-.5h-2zm4 0h2v-.5h-2zm4 0h2v-.5h-2zm4 0h2v-.5h-2zm4 0h2v-.5h-2zm4 0h2v-.5h-2zm4 0h2v-.5h-2zm4 0h2v-.5h-2zm4 0h2v-.5h-2zm4 0h2v-.5h-2zm4 0h2v-.5h-2zm4 0h2v-.5h-2zm4 0h2v-.5h-2zm4 0h2v-.5h-2zm4 0h2v-.5h-2zm4 0h2v-.5h-2zm4 0h2v-.5h-2zm4 0h2v-.5h-2zm4 0h2v-.5h-2zm4 0h2v-.5h-2zm4 0h2v-.5h-2zm4 0h2v-.5h-2zm4 0h2v-.5h-2zm4 0h2v-.5h-2zm4 0h2v-.5h-2zm4 0h2v-.5h-2zm4 0h2v-.5h-2zm4 0h2v-.5h-2zm4 0h2v-.5h-2zm4 0h2v-.5h-2zm4 0h2v-.5h-2zm4 0h2v-.5h-2zm4 0h2v-.5h-2zm4 0h2v-.5h-2zm4 0h2v-.5h-2zm4 0h2v-.5h-2zm4 0h2v-.5h-2zm4 0h2v-.5h-2zm4 0h2v-.5h-2zm4 0h2v-.5h-2zm4 0h2v-.5h-2zm4 0h2v-.5h-2zm4 0h2v-.5h-2zm4 0h2v-.5h-2zm4 0h2v-.5h-2zm4 0h2v-.5h-2zm4 0h2v-.5h-2zm4 0h2v-.5h-2zm4 0h2v-.5h-2zm4 0h2v-.5h-2zm4 0h2v-.5h-2zm4 0h2v-.5h-2zm4 0h2v-.5h-2zm4 0h2v-.5h-2zm4 0h2v-.5h-2zm4 0h2v-.5h-2zm4 0h2v-.5h-2zm4 0h2v-.5h-2zm4 0h2v-.5h-2zm4 0h2v-.5h-2zm4 0h2v-.5h-2zm4 0h2v-.5h-2zm4 0h2v-.5h-2zm4 0h2v-.5h-2zm4 0h2v-.5h-2zm4 0h2v-.5h-2zm4 0h2v-.5h-2zm4 0h2v-.5h-2zm4 0h2v-.5h-2zm4 0h2v-.5h-2zm4 0h2v-.5h-2zm4 0h2v-.5h-2zm4 0h2v-.5h-2zm4 0h2v-.5h-2zm4 0h2v-.5h-2zm4 0h2v-.5h-2zm4 0h2v-.5h-2zm4 0h2v-.5h-2zm4 0h2v-.5h-2zm4 0h2v-.5h-2zm4 0h2v-.5h-2zm4 0h2v-.5h-2zm4 0h2v-.5h-2zm4 0h2v-.5h-2zm4 0h2v-.5h-2zm4 0h2v-.5h-2zm4 0h2v-.5h-2zm4 0h2v-.5h-2zm4 0h2v-.5h-2zm4 0h2v-.5h-2zm4 0h2v-.5h-2zm4 0h2v-.5h-2zm4 0h2v-.5h-2zm4 0h2v-.5h-2zm4 0h2v-.5h-2zm4 0h2v-.5h-2zm4 0h2v-.5h-2zm4 0h2v-.5h-2zm4 0h2v-.5h-2zm4 0h2v-.5h-2zm4 0h2v-.5h-2zm4 0h2v-.5h-2zm4 0h2v-.5h-2zm4 0h2v-.5h-2zm4 0h2v-.5h-2zm4 0h2v-.5h-2zm4 0h2v-.5h-2zm4 0h2v-.5h-2zm4 0h2v-.5h-2zm4 0h2v-.5h-2zm4 0h2v-.5h-2zm4 0h2v-.5h-2zm4 0h2v-.5h-2zm4 0h2v-.5h-2zm4 0h2v-.5h-2zm4 0h2v-.5h-2zm4 0h2v-.5h-2zm4 0h2v-.5h-2zm4 0h2v-.5h-2zm4 0h2v-.5h-2zm4 0h2v-.5h-2zm4 0h2v-.5h-2zm4 0h2v-.5h-2zm4 0h2v-.5h-2zm4 0h2v-.5h-2zm4 0h2v-.5h-2zm4 0h2v-.5h-2zm4 0h2v-.5h-2zm4 0h2v-.5h-2zm4 0h2v-.5h-2zm4 0h2v-.5h-2zm4 0h2v-.5h-2zm4 0h2v-.5h-2zm4 0h2v-.5h-2zm4 0h2v-.5h-2zm4 0h2v-.5h-2zm4 0h2v-.5h-2zm4 0h2v-.5h-2zm4 0h2v-.5h-2zm4 0h2v-.5h-2zm4 0h2v-.5h-2zm4 0h2v-.5h-2zm4 0h2v-.5h-2zm4 0h2v-.5h-2zm4 0h2v-.5h-2zm4 0h2v-.5h-2zm4 0h2v-.5h-2zm4 0h2v-.5h-2zm4 0h2v-.5h-2zm4 0h2v-.5h-2zm4 0h2v-.5h-2zm4 0h2v-.5h-2zm4 0h2v-.5h-2zm4 0h2v-.5h-2zm4 0h2v-.5h-2zm4 0h2v-.5h-2zm4 0h2v-.5h-2zm4 0h2v-.5h-2zm4 0h2v-.5h-2zm4 0h2v-.5h-2zm4 0h2v-.5h-2zm4 0h2v-.5h-2zm4 0h2v-.5h-2zm4 0h2v-.5h-2zm4 0h2v-.5h-2zm4 0h2v-.5h-2zm4 0h2v-.5h-2zm4 0h2v-.5h-2zm4 0h2v-.5h-2zm4 0h2v-.5h-2zm4 0h2v-.5h-2zm4 0h2v-.5h-2zm4 0h2v-.5h-2zm4 0h2v-.5h-2zm4 0h2v-.5h-2zm4 0h2v-.5h-2zm4 0h2v-.5h-2zm4 0h2v-.5h-2zm4 0h2v-.5h-2zm4 0h2v-.5h-2zm4 0h2v-.5h-2zm4 0h2v-.5h-2zm4 0h2v-.5h-2zm4 0h2v-.5h-2zm4 0h2v-.5h-2zm4 0h2v-.5h-2zm4 0h2v-.5h-2zm4 0h2v-.5h-2zm4 0h2v-.5h-2zm4 0h2v-.5h-2zm4 0h2v-.5h-2zm4 0h2v-.5h-2zm4 0h2v-.5h-2zm4 0h2v-.5h-2zm4 0h2v-.5h-2zm4 0h2v-.5h-2zm4 0h2v-.5h-2zm4 0h2v-.5h-2zm4 0h2v-.5h-2zm4 0h2v-.5h-2zm4 0h2v-.5h-2zm4 0h2v-.5h-2zm4 0h2v-.5h-2zm4 0h2v-.5h-2zm4 0h2v-.5h-2zm4 0h2v-.5h-2zm4 0h2v-.5h-2zm4 0h2v-.5h-2zm4 0h2v-.5h-2zm4 0h2v-.5h-2zm4 0h2v-.5h-2zm4 0h2v-.5h-2zm4 0h2v-.5h-2zm4 0h2v-.5h-2zm4 0h2v-.5h-2zm4 0h2v-.5h-2zm4 0h2v-.5h-2zm4 0h2v-.5h-2zm4 0h2v-.5h-2zm4 0h2v-.5h-2zm4 0h2v-.5h-2zm4 0h2v-.5h-2zm4 0h2v-.5h-2zm4 0h2v-.5h-2zm4 0h2v-.5h-2zm4 0h2v-.5h-2zm4 0h2v-.5h-2zm4 0h2v-.5h-2zm4 0h2v-.5h-2zm4 0h2v-.5h-2zm4 0h2v-.5h-2zm4 0h2v-.5h-2zm4 0h2v-.5h-2zm4 0h2v-.5h-2zm4 0h2v-.5h-2zm4 0h2v-.5h-2zm4 0h2v-.5h-2zm4 0h2v-.5h-2zm4 0h2v-.5h-2zm4 0h2v-.5h-2zm4 0h2v-.5h-2zm4 0h2v-.5h-2zm4 0h2v-.5h-2zm4 0h2v-.5h-2zm4 0h2v-.5h-2zm4 0h2v-.5h-2zm4 0h2v-.5h-2zm4 0h2v-.5h-2zm4 0h2v-.5h-2zm4 0h2v-.5h-2zm4 0h2v-.5h-2zm4 0h2v-.5h-2zm4 0h2v-.5h-2zm4 0h2v-.5h-2zm4 0h2v-.5h-2zm4 0h2v-.5h-2zm4 0h2v-.5h-2zm4 0h2v-.5h-2zm4 0h2v-.5h-2zm4 0h2v-.5h-2zm4 0h2v-.5h-2zm4 0h2v-.5h-2zm4 0h2v-.5h-2zm4 0h2v-.5h-2zm4 0h2v-.5h-2zm4 0h1v-.5h-1zM0 198.25h1v-.5H0zm3 0h2v-.5H3zm4 0h2v-.5H7zm4 0h2v-.5h-2zm4 0h2v-.5h-2zm4 0h2v-.5h-2zm4 0h2v-.5h-2zm4 0h2v-.5h-2zm4 0h2v-.5h-2zm4 0h2v-.5h-2zm4 0h2v-.5h-2zm4 0h2v-.5h-2zm4 0h2v-.5h-2zm4 0h2v-.5h-2zm4 0h2v-.5h-2zm4 0h2v-.5h-2zm4 0h2v-.5h-2zm4 0h2v-.5h-2zm4 0h2v-.5h-2zm4 0h2v-.5h-2zm4 0h2v-.5h-2zm4 0h2v-.5h-2zm4 0h2v-.5h-2zm4 0h2v-.5h-2zm4 0h2v-.5h-2zm4 0h2v-.5h-2zm4 0h2v-.5h-2zm4 0h2v-.5h-2zm4 0h2v-.5h-2zm4 0h2v-.5h-2zm4 0h2v-.5h-2zm4 0h2v-.5h-2zm4 0h2v-.5h-2zm4 0h2v-.5h-2zm4 0h2v-.5h-2zm4 0h2v-.5h-2zm4 0h2v-.5h-2zm4 0h2v-.5h-2zm4 0h2v-.5h-2zm4 0h2v-.5h-2zm4 0h2v-.5h-2zm4 0h2v-.5h-2zm4 0h2v-.5h-2zm4 0h2v-.5h-2zm4 0h2v-.5h-2zm4 0h2v-.5h-2zm4 0h2v-.5h-2zm4 0h2v-.5h-2zm4 0h2v-.5h-2zm4 0h2v-.5h-2zm4 0h2v-.5h-2zm4 0h2v-.5h-2zm4 0h2v-.5h-2zm4 0h2v-.5h-2zm4 0h2v-.5h-2zm4 0h2v-.5h-2zm4 0h2v-.5h-2zm4 0h2v-.5h-2zm4 0h2v-.5h-2zm4 0h2v-.5h-2zm4 0h2v-.5h-2zm4 0h2v-.5h-2zm4 0h2v-.5h-2zm4 0h2v-.5h-2zm4 0h2v-.5h-2zm4 0h2v-.5h-2zm4 0h2v-.5h-2zm4 0h2v-.5h-2zm4 0h2v-.5h-2zm4 0h2v-.5h-2zm4 0h2v-.5h-2zm4 0h2v-.5h-2zm4 0h2v-.5h-2zm4 0h2v-.5h-2zm4 0h2v-.5h-2zm4 0h2v-.5h-2zm4 0h2v-.5h-2zm4 0h2v-.5h-2zm4 0h2v-.5h-2zm4 0h2v-.5h-2zm4 0h2v-.5h-2zm4 0h2v-.5h-2zm4 0h2v-.5h-2zm4 0h2v-.5h-2zm4 0h2v-.5h-2zm4 0h2v-.5h-2zm4 0h2v-.5h-2zm4 0h2v-.5h-2zm4 0h2v-.5h-2zm4 0h2v-.5h-2zm4 0h2v-.5h-2zm4 0h2v-.5h-2zm4 0h2v-.5h-2zm4 0h2v-.5h-2zm4 0h2v-.5h-2zm4 0h2v-.5h-2zm4 0h2v-.5h-2zm4 0h2v-.5h-2zm4 0h2v-.5h-2zm4 0h2v-.5h-2zm4 0h2v-.5h-2zm4 0h2v-.5h-2zm4 0h2v-.5h-2zm4 0h2v-.5h-2zm4 0h2v-.5h-2zm4 0h2v-.5h-2zm4 0h2v-.5h-2zm4 0h2v-.5h-2zm4 0h2v-.5h-2zm4 0h2v-.5h-2zm4 0h2v-.5h-2zm4 0h2v-.5h-2zm4 0h2v-.5h-2zm4 0h2v-.5h-2zm4 0h2v-.5h-2zm4 0h2v-.5h-2zm4 0h2v-.5h-2zm4 0h2v-.5h-2zm4 0h2v-.5h-2zm4 0h2v-.5h-2zm4 0h2v-.5h-2zm4 0h2v-.5h-2zm4 0h2v-.5h-2zm4 0h2v-.5h-2zm4 0h2v-.5h-2zm4 0h2v-.5h-2zm4 0h2v-.5h-2zm4 0h2v-.5h-2zm4 0h2v-.5h-2zm4 0h2v-.5h-2zm4 0h2v-.5h-2zm4 0h2v-.5h-2zm4 0h2v-.5h-2zm4 0h2v-.5h-2zm4 0h2v-.5h-2zm4 0h2v-.5h-2zm4 0h2v-.5h-2zm4 0h2v-.5h-2zm4 0h2v-.5h-2zm4 0h2v-.5h-2zm4 0h2v-.5h-2zm4 0h2v-.5h-2zm4 0h2v-.5h-2zm4 0h2v-.5h-2zm4 0h2v-.5h-2zm4 0h2v-.5h-2zm4 0h2v-.5h-2zm4 0h2v-.5h-2zm4 0h2v-.5h-2zm4 0h2v-.5h-2zm4 0h2v-.5h-2zm4 0h2v-.5h-2zm4 0h2v-.5h-2zm4 0h2v-.5h-2zm4 0h2v-.5h-2zm4 0h2v-.5h-2zm4 0h2v-.5h-2zm4 0h2v-.5h-2zm4 0h2v-.5h-2zm4 0h2v-.5h-2zm4 0h2v-.5h-2zm4 0h2v-.5h-2zm4 0h2v-.5h-2zm4 0h2v-.5h-2zm4 0h2v-.5h-2zm4 0h2v-.5h-2zm4 0h2v-.5h-2zm4 0h2v-.5h-2zm4 0h2v-.5h-2zm4 0h2v-.5h-2zm4 0h2v-.5h-2zm4 0h2v-.5h-2zm4 0h2v-.5h-2zm4 0h2v-.5h-2zm4 0h2v-.5h-2zm4 0h2v-.5h-2zm4 0h2v-.5h-2zm4 0h2v-.5h-2zm4 0h2v-.5h-2zm4 0h2v-.5h-2zm4 0h2v-.5h-2zm4 0h2v-.5h-2zm4 0h2v-.5h-2zm4 0h2v-.5h-2zm4 0h2v-.5h-2zm4 0h2v-.5h-2zm4 0h2v-.5h-2zm4 0h2v-.5h-2zm4 0h2v-.5h-2zm4 0h2v-.5h-2zm4 0h2v-.5h-2zm4 0h2v-.5h-2zm4 0h2v-.5h-2zm4 0h2v-.5h-2zm4 0h2v-.5h-2zm4 0h2v-.5h-2zm4 0h2v-.5h-2zm4 0h2v-.5h-2zm4 0h2v-.5h-2zm4 0h2v-.5h-2zm4 0h2v-.5h-2zm4 0h2v-.5h-2zm4 0h2v-.5h-2zm4 0h2v-.5h-2zm4 0h2v-.5h-2zm4 0h2v-.5h-2zm4 0h2v-.5h-2zm4 0h2v-.5h-2zm4 0h2v-.5h-2zm4 0h2v-.5h-2zm4 0h2v-.5h-2zm4 0h2v-.5h-2zm4 0h2v-.5h-2zm4 0h2v-.5h-2zm4 0h2v-.5h-2zm4 0h2v-.5h-2zm4 0h2v-.5h-2zm4 0h2v-.5h-2zm4 0h2v-.5h-2zm4 0h2v-.5h-2zm4 0h2v-.5h-2zm4 0h2v-.5h-2zm4 0h2v-.5h-2zm4 0h2v-.5h-2zm4 0h2v-.5h-2zm4 0h2v-.5h-2zm4 0h2v-.5h-2zm4 0h2v-.5h-2zm4 0h2v-.5h-2zm4 0h2v-.5h-2zm4 0h2v-.5h-2zm4 0h2v-.5h-2zm4 0h2v-.5h-2zm4 0h2v-.5h-2zm4 0h2v-.5h-2zm4 0h2v-.5h-2zm4 0h2v-.5h-2zm4 0h2v-.5h-2zm4 0h2v-.5h-2zm4 0h2v-.5h-2zm4 0h2v-.5h-2zm4 0h2v-.5h-2zm4 0h2v-.5h-2zm4 0h2v-.5h-2zm4 0h2v-.5h-2zm4 0h2v-.5h-2zm4 0h2v-.5h-2zm4 0h2v-.5h-2zm4 0h2v-.5h-2zm4 0h2v-.5h-2zm4 0h2v-.5h-2zm4 0h2v-.5h-2zm4 0h2v-.5h-2zm4 0h2v-.5h-2zm4 0h2v-.5h-2zm4 0h2v-.5h-2zm4 0h2v-.5h-2zm4 0h2v-.5h-2zm4 0h2v-.5h-2zm4 0h2v-.5h-2zm4 0h2v-.5h-2zm4 0h2v-.5h-2zm4 0h2v-.5h-2zm4 0h2v-.5h-2zm4 0h2v-.5h-2zm4 0h2v-.5h-2zm4 0h2v-.5h-2zm4 0h2v-.5h-2zm4 0h2v-.5h-2zm4 0h2v-.5h-2zm4 0h2v-.5h-2zm4 0h2v-.5h-2zm4 0h2v-.5h-2zm4 0h2v-.5h-2zm4 0h2v-.5h-2zm4 0h2v-.5h-2zm4 0h2v-.5h-2zm4 0h2v-.5h-2zm4 0h2v-.5h-2zm4 0h2v-.5h-2zm4 0h2v-.5h-2zm4 0h2v-.5h-2zm4 0h2v-.5h-2zm4 0h2v-.5h-2zm4 0h2v-.5h-2zm4 0h2v-.5h-2zm4 0h2v-.5h-2zm4 0h2v-.5h-2zm4 0h2v-.5h-2zm4 0h2v-.5h-2zm4 0h2v-.5h-2zm4 0h2v-.5h-2zm4 0h2v-.5h-2zm4 0h2v-.5h-2zm4 0h2v-.5h-2zm4 0h2v-.5h-2zm4 0h2v-.5h-2zm4 0h1v-.5h-1zM0 264.25h1v-.5H0zm3 0h2v-.5H3zm4 0h2v-.5H7zm4 0h2v-.5h-2zm4 0h2v-.5h-2zm4 0h2v-.5h-2zm4 0h2v-.5h-2zm4 0h2v-.5h-2zm4 0h2v-.5h-2zm4 0h2v-.5h-2zm4 0h2v-.5h-2zm4 0h2v-.5h-2zm4 0h2v-.5h-2zm4 0h2v-.5h-2zm4 0h2v-.5h-2zm4 0h2v-.5h-2zm4 0h2v-.5h-2zm4 0h2v-.5h-2zm4 0h2v-.5h-2zm4 0h2v-.5h-2zm4 0h2v-.5h-2zm4 0h2v-.5h-2zm4 0h2v-.5h-2zm4 0h2v-.5h-2zm4 0h2v-.5h-2zm4 0h2v-.5h-2zm4 0h2v-.5h-2zm4 0h2v-.5h-2zm4 0h2v-.5h-2zm4 0h2v-.5h-2zm4 0h2v-.5h-2zm4 0h2v-.5h-2zm4 0h2v-.5h-2zm4 0h2v-.5h-2zm4 0h2v-.5h-2zm4 0h2v-.5h-2zm4 0h2v-.5h-2zm4 0h2v-.5h-2zm4 0h2v-.5h-2zm4 0h2v-.5h-2zm4 0h2v-.5h-2zm4 0h2v-.5h-2zm4 0h2v-.5h-2zm4 0h2v-.5h-2zm4 0h2v-.5h-2zm4 0h2v-.5h-2zm4 0h2v-.5h-2zm4 0h2v-.5h-2zm4 0h2v-.5h-2zm4 0h2v-.5h-2zm4 0h2v-.5h-2zm4 0h2v-.5h-2zm4 0h2v-.5h-2zm4 0h2v-.5h-2zm4 0h2v-.5h-2zm4 0h2v-.5h-2zm4 0h2v-.5h-2zm4 0h2v-.5h-2zm4 0h2v-.5h-2zm4 0h2v-.5h-2zm4 0h2v-.5h-2zm4 0h2v-.5h-2zm4 0h2v-.5h-2zm4 0h2v-.5h-2zm4 0h2v-.5h-2zm4 0h2v-.5h-2zm4 0h2v-.5h-2zm4 0h2v-.5h-2zm4 0h2v-.5h-2zm4 0h2v-.5h-2zm4 0h2v-.5h-2zm4 0h2v-.5h-2zm4 0h2v-.5h-2zm4 0h2v-.5h-2zm4 0h2v-.5h-2zm4 0h2v-.5h-2zm4 0h2v-.5h-2zm4 0h2v-.5h-2zm4 0h2v-.5h-2zm4 0h2v-.5h-2zm4 0h2v-.5h-2zm4 0h2v-.5h-2zm4 0h2v-.5h-2zm4 0h2v-.5h-2zm4 0h2v-.5h-2zm4 0h2v-.5h-2zm4 0h2v-.5h-2zm4 0h2v-.5h-2zm4 0h2v-.5h-2zm4 0h2v-.5h-2zm4 0h2v-.5h-2zm4 0h2v-.5h-2zm4 0h2v-.5h-2zm4 0h2v-.5h-2zm4 0h2v-.5h-2zm4 0h2v-.5h-2zm4 0h2v-.5h-2zm4 0h2v-.5h-2zm4 0h2v-.5h-2zm4 0h2v-.5h-2zm4 0h2v-.5h-2zm4 0h2v-.5h-2zm4 0h2v-.5h-2zm4 0h2v-.5h-2zm4 0h2v-.5h-2zm4 0h2v-.5h-2zm4 0h2v-.5h-2zm4 0h2v-.5h-2zm4 0h2v-.5h-2zm4 0h2v-.5h-2zm4 0h2v-.5h-2zm4 0h2v-.5h-2zm4 0h2v-.5h-2zm4 0h2v-.5h-2zm4 0h2v-.5h-2zm4 0h2v-.5h-2zm4 0h2v-.5h-2zm4 0h2v-.5h-2zm4 0h2v-.5h-2zm4 0h2v-.5h-2zm4 0h2v-.5h-2zm4 0h2v-.5h-2zm4 0h2v-.5h-2zm4 0h2v-.5h-2zm4 0h2v-.5h-2zm4 0h2v-.5h-2zm4 0h2v-.5h-2zm4 0h2v-.5h-2zm4 0h2v-.5h-2zm4 0h2v-.5h-2zm4 0h2v-.5h-2zm4 0h2v-.5h-2zm4 0h2v-.5h-2zm4 0h2v-.5h-2zm4 0h2v-.5h-2zm4 0h2v-.5h-2zm4 0h2v-.5h-2zm4 0h2v-.5h-2zm4 0h2v-.5h-2zm4 0h2v-.5h-2zm4 0h2v-.5h-2zm4 0h2v-.5h-2zm4 0h2v-.5h-2zm4 0h2v-.5h-2zm4 0h2v-.5h-2zm4 0h2v-.5h-2zm4 0h2v-.5h-2zm4 0h2v-.5h-2zm4 0h2v-.5h-2zm4 0h2v-.5h-2zm4 0h2v-.5h-2zm4 0h2v-.5h-2zm4 0h2v-.5h-2zm4 0h2v-.5h-2zm4 0h2v-.5h-2zm4 0h2v-.5h-2zm4 0h2v-.5h-2zm4 0h2v-.5h-2zm4 0h2v-.5h-2zm4 0h2v-.5h-2zm4 0h2v-.5h-2zm4 0h2v-.5h-2zm4 0h2v-.5h-2zm4 0h2v-.5h-2zm4 0h2v-.5h-2zm4 0h2v-.5h-2zm4 0h2v-.5h-2zm4 0h2v-.5h-2zm4 0h2v-.5h-2zm4 0h2v-.5h-2zm4 0h2v-.5h-2zm4 0h2v-.5h-2zm4 0h2v-.5h-2zm4 0h2v-.5h-2zm4 0h2v-.5h-2zm4 0h2v-.5h-2zm4 0h2v-.5h-2zm4 0h2v-.5h-2zm4 0h2v-.5h-2zm4 0h2v-.5h-2zm4 0h2v-.5h-2zm4 0h2v-.5h-2zm4 0h2v-.5h-2zm4 0h2v-.5h-2zm4 0h2v-.5h-2zm4 0h2v-.5h-2zm4 0h2v-.5h-2zm4 0h2v-.5h-2zm4 0h2v-.5h-2zm4 0h2v-.5h-2zm4 0h2v-.5h-2zm4 0h2v-.5h-2zm4 0h2v-.5h-2zm4 0h2v-.5h-2zm4 0h2v-.5h-2zm4 0h2v-.5h-2zm4 0h2v-.5h-2zm4 0h2v-.5h-2zm4 0h2v-.5h-2zm4 0h2v-.5h-2zm4 0h2v-.5h-2zm4 0h2v-.5h-2zm4 0h2v-.5h-2zm4 0h2v-.5h-2zm4 0h2v-.5h-2zm4 0h2v-.5h-2zm4 0h2v-.5h-2zm4 0h2v-.5h-2zm4 0h2v-.5h-2zm4 0h2v-.5h-2zm4 0h2v-.5h-2zm4 0h2v-.5h-2zm4 0h2v-.5h-2zm4 0h2v-.5h-2zm4 0h2v-.5h-2zm4 0h2v-.5h-2zm4 0h2v-.5h-2zm4 0h2v-.5h-2zm4 0h2v-.5h-2zm4 0h2v-.5h-2zm4 0h2v-.5h-2zm4 0h2v-.5h-2zm4 0h2v-.5h-2zm4 0h2v-.5h-2zm4 0h2v-.5h-2zm4 0h2v-.5h-2zm4 0h2v-.5h-2zm4 0h2v-.5h-2zm4 0h2v-.5h-2zm4 0h2v-.5h-2zm4 0h2v-.5h-2zm4 0h2v-.5h-2zm4 0h2v-.5h-2zm4 0h2v-.5h-2zm4 0h2v-.5h-2zm4 0h2v-.5h-2zm4 0h2v-.5h-2zm4 0h2v-.5h-2zm4 0h2v-.5h-2zm4 0h2v-.5h-2zm4 0h2v-.5h-2zm4 0h2v-.5h-2zm4 0h2v-.5h-2zm4 0h2v-.5h-2zm4 0h2v-.5h-2zm4 0h2v-.5h-2zm4 0h2v-.5h-2zm4 0h2v-.5h-2zm4 0h2v-.5h-2zm4 0h2v-.5h-2zm4 0h2v-.5h-2zm4 0h2v-.5h-2zm4 0h2v-.5h-2zm4 0h2v-.5h-2zm4 0h2v-.5h-2zm4 0h2v-.5h-2zm4 0h2v-.5h-2zm4 0h2v-.5h-2zm4 0h2v-.5h-2zm4 0h2v-.5h-2zm4 0h2v-.5h-2zm4 0h2v-.5h-2zm4 0h2v-.5h-2zm4 0h2v-.5h-2zm4 0h2v-.5h-2zm4 0h2v-.5h-2zm4 0h2v-.5h-2zm4 0h2v-.5h-2zm4 0h2v-.5h-2zm4 0h2v-.5h-2zm4 0h2v-.5h-2zm4 0h2v-.5h-2zm4 0h2v-.5h-2zm4 0h2v-.5h-2zm4 0h2v-.5h-2zm4 0h2v-.5h-2zm4 0h2v-.5h-2zm4 0h2v-.5h-2zm4 0h2v-.5h-2zm4 0h2v-.5h-2zm4 0h2v-.5h-2zm4 0h2v-.5h-2zm4 0h2v-.5h-2zm4 0h2v-.5h-2zm4 0h2v-.5h-2zm4 0h2v-.5h-2zm4 0h2v-.5h-2zm4 0h2v-.5h-2zm4 0h2v-.5h-2zm4 0h2v-.5h-2zm4 0h2v-.5h-2zm4 0h2v-.5h-2zm4 0h2v-.5h-2zm4 0h2v-.5h-2zm4 0h2v-.5h-2zm4 0h2v-.5h-2zm4 0h2v-.5h-2zm4 0h1v-.5h-1zM0 330.25h1v-.5H0zm3 0h2v-.5H3zm4 0h2v-.5H7zm4 0h2v-.5h-2zm4 0h2v-.5h-2zm4 0h2v-.5h-2zm4 0h2v-.5h-2zm4 0h2v-.5h-2zm4 0h2v-.5h-2zm4 0h2v-.5h-2zm4 0h2v-.5h-2zm4 0h2v-.5h-2zm4 0h2v-.5h-2zm4 0h2v-.5h-2zm4 0h2v-.5h-2zm4 0h2v-.5h-2zm4 0h2v-.5h-2zm4 0h2v-.5h-2zm4 0h2v-.5h-2zm4 0h2v-.5h-2zm4 0h2v-.5h-2zm4 0h2v-.5h-2zm4 0h2v-.5h-2zm4 0h2v-.5h-2zm4 0h2v-.5h-2zm4 0h2v-.5h-2zm4 0h2v-.5h-2zm4 0h2v-.5h-2zm4 0h2v-.5h-2zm4 0h2v-.5h-2zm4 0h2v-.5h-2zm4 0h2v-.5h-2zm4 0h2v-.5h-2zm4 0h2v-.5h-2zm4 0h2v-.5h-2zm4 0h2v-.5h-2zm4 0h2v-.5h-2zm4 0h2v-.5h-2zm4 0h2v-.5h-2zm4 0h2v-.5h-2zm4 0h2v-.5h-2zm4 0h2v-.5h-2zm4 0h2v-.5h-2zm4 0h2v-.5h-2zm4 0h2v-.5h-2zm4 0h2v-.5h-2zm4 0h2v-.5h-2zm4 0h2v-.5h-2zm4 0h2v-.5h-2zm4 0h2v-.5h-2zm4 0h2v-.5h-2zm4 0h2v-.5h-2zm4 0h2v-.5h-2zm4 0h2v-.5h-2zm4 0h2v-.5h-2zm4 0h2v-.5h-2zm4 0h2v-.5h-2zm4 0h2v-.5h-2zm4 0h2v-.5h-2zm4 0h2v-.5h-2zm4 0h2v-.5h-2zm4 0h2v-.5h-2zm4 0h2v-.5h-2zm4 0h2v-.5h-2zm4 0h2v-.5h-2zm4 0h2v-.5h-2zm4 0h2v-.5h-2zm4 0h2v-.5h-2zm4 0h2v-.5h-2zm4 0h2v-.5h-2zm4 0h2v-.5h-2zm4 0h2v-.5h-2zm4 0h2v-.5h-2zm4 0h2v-.5h-2zm4 0h2v-.5h-2zm4 0h2v-.5h-2zm4 0h2v-.5h-2zm4 0h2v-.5h-2zm4 0h2v-.5h-2zm4 0h2v-.5h-2zm4 0h2v-.5h-2zm4 0h2v-.5h-2zm4 0h2v-.5h-2zm4 0h2v-.5h-2zm4 0h2v-.5h-2zm4 0h2v-.5h-2zm4 0h2v-.5h-2zm4 0h2v-.5h-2zm4 0h2v-.5h-2zm4 0h2v-.5h-2zm4 0h2v-.5h-2zm4 0h2v-.5h-2zm4 0h2v-.5h-2zm4 0h2v-.5h-2zm4 0h2v-.5h-2zm4 0h2v-.5h-2zm4 0h2v-.5h-2zm4 0h2v-.5h-2zm4 0h2v-.5h-2zm4 0h2v-.5h-2zm4 0h2v-.5h-2zm4 0h2v-.5h-2zm4 0h2v-.5h-2zm4 0h2v-.5h-2zm4 0h2v-.5h-2zm4 0h2v-.5h-2zm4 0h2v-.5h-2zm4 0h2v-.5h-2zm4 0h2v-.5h-2zm4 0h2v-.5h-2zm4 0h2v-.5h-2zm4 0h2v-.5h-2zm4 0h2v-.5h-2zm4 0h2v-.5h-2zm4 0h2v-.5h-2zm4 0h2v-.5h-2zm4 0h2v-.5h-2zm4 0h2v-.5h-2zm4 0h2v-.5h-2zm4 0h2v-.5h-2zm4 0h2v-.5h-2zm4 0h2v-.5h-2zm4 0h2v-.5h-2zm4 0h2v-.5h-2zm4 0h2v-.5h-2zm4 0h2v-.5h-2zm4 0h2v-.5h-2zm4 0h2v-.5h-2zm4 0h2v-.5h-2zm4 0h2v-.5h-2zm4 0h2v-.5h-2zm4 0h2v-.5h-2zm4 0h2v-.5h-2zm4 0h2v-.5h-2zm4 0h2v-.5h-2zm4 0h2v-.5h-2zm4 0h2v-.5h-2zm4 0h2v-.5h-2zm4 0h2v-.5h-2zm4 0h2v-.5h-2zm4 0h2v-.5h-2zm4 0h2v-.5h-2zm4 0h2v-.5h-2zm4 0h2v-.5h-2zm4 0h2v-.5h-2zm4 0h2v-.5h-2zm4 0h2v-.5h-2zm4 0h2v-.5h-2zm4 0h2v-.5h-2zm4 0h2v-.5h-2zm4 0h2v-.5h-2zm4 0h2v-.5h-2zm4 0h2v-.5h-2zm4 0h2v-.5h-2zm4 0h2v-.5h-2zm4 0h2v-.5h-2zm4 0h2v-.5h-2zm4 0h2v-.5h-2zm4 0h2v-.5h-2zm4 0h2v-.5h-2zm4 0h2v-.5h-2zm4 0h2v-.5h-2zm4 0h2v-.5h-2zm4 0h2v-.5h-2zm4 0h2v-.5h-2zm4 0h2v-.5h-2zm4 0h2v-.5h-2zm4 0h2v-.5h-2zm4 0h2v-.5h-2zm4 0h2v-.5h-2zm4 0h2v-.5h-2zm4 0h2v-.5h-2zm4 0h2v-.5h-2zm4 0h2v-.5h-2zm4 0h2v-.5h-2zm4 0h2v-.5h-2zm4 0h2v-.5h-2zm4 0h2v-.5h-2zm4 0h2v-.5h-2zm4 0h2v-.5h-2zm4 0h2v-.5h-2zm4 0h2v-.5h-2zm4 0h2v-.5h-2zm4 0h2v-.5h-2zm4 0h2v-.5h-2zm4 0h2v-.5h-2zm4 0h2v-.5h-2zm4 0h2v-.5h-2zm4 0h2v-.5h-2zm4 0h2v-.5h-2zm4 0h2v-.5h-2zm4 0h2v-.5h-2zm4 0h2v-.5h-2zm4 0h2v-.5h-2zm4 0h2v-.5h-2zm4 0h2v-.5h-2zm4 0h2v-.5h-2zm4 0h2v-.5h-2zm4 0h2v-.5h-2zm4 0h2v-.5h-2zm4 0h2v-.5h-2zm4 0h2v-.5h-2zm4 0h2v-.5h-2zm4 0h2v-.5h-2zm4 0h2v-.5h-2zm4 0h2v-.5h-2zm4 0h2v-.5h-2zm4 0h2v-.5h-2zm4 0h2v-.5h-2zm4 0h2v-.5h-2zm4 0h2v-.5h-2zm4 0h2v-.5h-2zm4 0h2v-.5h-2zm4 0h2v-.5h-2zm4 0h2v-.5h-2zm4 0h2v-.5h-2zm4 0h2v-.5h-2zm4 0h2v-.5h-2zm4 0h2v-.5h-2zm4 0h2v-.5h-2zm4 0h2v-.5h-2zm4 0h2v-.5h-2zm4 0h2v-.5h-2zm4 0h2v-.5h-2zm4 0h2v-.5h-2zm4 0h2v-.5h-2zm4 0h2v-.5h-2zm4 0h2v-.5h-2zm4 0h2v-.5h-2zm4 0h2v-.5h-2zm4 0h2v-.5h-2zm4 0h2v-.5h-2zm4 0h2v-.5h-2zm4 0h2v-.5h-2zm4 0h2v-.5h-2zm4 0h2v-.5h-2zm4 0h2v-.5h-2zm4 0h2v-.5h-2zm4 0h2v-.5h-2zm4 0h2v-.5h-2zm4 0h2v-.5h-2zm4 0h2v-.5h-2zm4 0h2v-.5h-2zm4 0h2v-.5h-2zm4 0h2v-.5h-2zm4 0h2v-.5h-2zm4 0h2v-.5h-2zm4 0h2v-.5h-2zm4 0h2v-.5h-2zm4 0h2v-.5h-2zm4 0h2v-.5h-2zm4 0h2v-.5h-2zm4 0h2v-.5h-2zm4 0h2v-.5h-2zm4 0h2v-.5h-2zm4 0h2v-.5h-2zm4 0h2v-.5h-2zm4 0h2v-.5h-2zm4 0h2v-.5h-2zm4 0h2v-.5h-2zm4 0h2v-.5h-2zm4 0h2v-.5h-2zm4 0h2v-.5h-2zm4 0h2v-.5h-2zm4 0h2v-.5h-2zm4 0h2v-.5h-2zm4 0h2v-.5h-2zm4 0h2v-.5h-2zm4 0h2v-.5h-2zm4 0h2v-.5h-2zm4 0h2v-.5h-2zm4 0h2v-.5h-2zm4 0h2v-.5h-2zm4 0h2v-.5h-2zm4 0h2v-.5h-2zm4 0h2v-.5h-2zm4 0h2v-.5h-2zm4 0h2v-.5h-2zm4 0h2v-.5h-2zm4 0h2v-.5h-2zm4 0h2v-.5h-2zm4 0h2v-.5h-2zm4 0h2v-.5h-2zm4 0h2v-.5h-2zm4 0h2v-.5h-2zm4 0h2v-.5h-2zm4 0h2v-.5h-2zm4 0h2v-.5h-2zm4 0h2v-.5h-2zm4 0h2v-.5h-2zm4 0h2v-.5h-2zm4 0h2v-.5h-2zm4 0h2v-.5h-2zm4 0h2v-.5h-2zm4 0h2v-.5h-2zm4 0h2v-.5h-2zm4 0h2v-.5h-2zm4 0h1v-.5h-1zM0 396.25h1v-.5H0zm3 0h2v-.5H3zm4 0h2v-.5H7zm4 0h2v-.5h-2zm4 0h2v-.5h-2zm4 0h2v-.5h-2zm4 0h2v-.5h-2zm4 0h2v-.5h-2zm4 0h2v-.5h-2zm4 0h2v-.5h-2zm4 0h2v-.5h-2zm4 0h2v-.5h-2zm4 0h2v-.5h-2zm4 0h2v-.5h-2zm4 0h2v-.5h-2zm4 0h2v-.5h-2zm4 0h2v-.5h-2zm4 0h2v-.5h-2zm4 0h2v-.5h-2zm4 0h2v-.5h-2zm4 0h2v-.5h-2zm4 0h2v-.5h-2zm4 0h2v-.5h-2zm4 0h2v-.5h-2zm4 0h2v-.5h-2zm4 0h2v-.5h-2zm4 0h2v-.5h-2zm4 0h2v-.5h-2zm4 0h2v-.5h-2zm4 0h2v-.5h-2zm4 0h2v-.5h-2zm4 0h2v-.5h-2zm4 0h2v-.5h-2zm4 0h2v-.5h-2zm4 0h2v-.5h-2zm4 0h2v-.5h-2zm4 0h2v-.5h-2zm4 0h2v-.5h-2zm4 0h2v-.5h-2zm4 0h2v-.5h-2zm4 0h2v-.5h-2zm4 0h2v-.5h-2zm4 0h2v-.5h-2zm4 0h2v-.5h-2zm4 0h2v-.5h-2zm4 0h2v-.5h-2zm4 0h2v-.5h-2zm4 0h2v-.5h-2zm4 0h2v-.5h-2zm4 0h2v-.5h-2zm4 0h2v-.5h-2zm4 0h2v-.5h-2zm4 0h2v-.5h-2zm4 0h2v-.5h-2zm4 0h2v-.5h-2zm4 0h2v-.5h-2zm4 0h2v-.5h-2zm4 0h2v-.5h-2zm4 0h2v-.5h-2zm4 0h2v-.5h-2zm4 0h2v-.5h-2zm4 0h2v-.5h-2zm4 0h2v-.5h-2zm4 0h2v-.5h-2zm4 0h2v-.5h-2zm4 0h2v-.5h-2zm4 0h2v-.5h-2zm4 0h2v-.5h-2zm4 0h2v-.5h-2zm4 0h2v-.5h-2zm4 0h2v-.5h-2zm4 0h2v-.5h-2zm4 0h2v-.5h-2zm4 0h2v-.5h-2zm4 0h2v-.5h-2zm4 0h2v-.5h-2zm4 0h2v-.5h-2zm4 0h2v-.5h-2zm4 0h2v-.5h-2zm4 0h2v-.5h-2zm4 0h2v-.5h-2zm4 0h2v-.5h-2zm4 0h2v-.5h-2zm4 0h2v-.5h-2zm4 0h2v-.5h-2zm4 0h2v-.5h-2zm4 0h2v-.5h-2zm4 0h2v-.5h-2zm4 0h2v-.5h-2zm4 0h2v-.5h-2zm4 0h2v-.5h-2zm4 0h2v-.5h-2zm4 0h2v-.5h-2zm4 0h2v-.5h-2zm4 0h2v-.5h-2zm4 0h2v-.5h-2zm4 0h2v-.5h-2zm4 0h2v-.5h-2zm4 0h2v-.5h-2zm4 0h2v-.5h-2zm4 0h2v-.5h-2zm4 0h2v-.5h-2zm4 0h2v-.5h-2zm4 0h2v-.5h-2zm4 0h2v-.5h-2zm4 0h2v-.5h-2zm4 0h2v-.5h-2zm4 0h2v-.5h-2zm4 0h2v-.5h-2zm4 0h2v-.5h-2zm4 0h2v-.5h-2zm4 0h2v-.5h-2zm4 0h2v-.5h-2zm4 0h2v-.5h-2zm4 0h2v-.5h-2zm4 0h2v-.5h-2zm4 0h2v-.5h-2zm4 0h2v-.5h-2zm4 0h2v-.5h-2zm4 0h2v-.5h-2zm4 0h2v-.5h-2zm4 0h2v-.5h-2zm4 0h2v-.5h-2zm4 0h2v-.5h-2zm4 0h2v-.5h-2zm4 0h2v-.5h-2zm4 0h2v-.5h-2zm4 0h2v-.5h-2zm4 0h2v-.5h-2zm4 0h2v-.5h-2zm4 0h2v-.5h-2zm4 0h2v-.5h-2zm4 0h2v-.5h-2zm4 0h2v-.5h-2zm4 0h2v-.5h-2zm4 0h2v-.5h-2zm4 0h2v-.5h-2zm4 0h2v-.5h-2zm4 0h2v-.5h-2zm4 0h2v-.5h-2zm4 0h2v-.5h-2zm4 0h2v-.5h-2zm4 0h2v-.5h-2zm4 0h2v-.5h-2zm4 0h2v-.5h-2zm4 0h2v-.5h-2zm4 0h2v-.5h-2zm4 0h2v-.5h-2zm4 0h2v-.5h-2zm4 0h2v-.5h-2zm4 0h2v-.5h-2zm4 0h2v-.5h-2zm4 0h2v-.5h-2zm4 0h2v-.5h-2zm4 0h2v-.5h-2zm4 0h2v-.5h-2zm4 0h2v-.5h-2zm4 0h2v-.5h-2zm4 0h2v-.5h-2zm4 0h2v-.5h-2zm4 0h2v-.5h-2zm4 0h2v-.5h-2zm4 0h2v-.5h-2zm4 0h2v-.5h-2zm4 0h2v-.5h-2zm4 0h2v-.5h-2zm4 0h2v-.5h-2zm4 0h2v-.5h-2zm4 0h2v-.5h-2zm4 0h2v-.5h-2zm4 0h2v-.5h-2zm4 0h2v-.5h-2zm4 0h2v-.5h-2zm4 0h2v-.5h-2zm4 0h2v-.5h-2zm4 0h2v-.5h-2zm4 0h2v-.5h-2zm4 0h2v-.5h-2zm4 0h2v-.5h-2zm4 0h2v-.5h-2zm4 0h2v-.5h-2zm4 0h2v-.5h-2zm4 0h2v-.5h-2zm4 0h2v-.5h-2zm4 0h2v-.5h-2zm4 0h2v-.5h-2zm4 0h2v-.5h-2zm4 0h2v-.5h-2zm4 0h2v-.5h-2zm4 0h2v-.5h-2zm4 0h2v-.5h-2zm4 0h2v-.5h-2zm4 0h2v-.5h-2zm4 0h2v-.5h-2zm4 0h2v-.5h-2zm4 0h2v-.5h-2zm4 0h2v-.5h-2zm4 0h2v-.5h-2zm4 0h2v-.5h-2zm4 0h2v-.5h-2zm4 0h2v-.5h-2zm4 0h2v-.5h-2zm4 0h2v-.5h-2zm4 0h2v-.5h-2zm4 0h2v-.5h-2zm4 0h2v-.5h-2zm4 0h2v-.5h-2zm4 0h2v-.5h-2zm4 0h2v-.5h-2zm4 0h2v-.5h-2zm4 0h2v-.5h-2zm4 0h2v-.5h-2zm4 0h2v-.5h-2zm4 0h2v-.5h-2zm4 0h2v-.5h-2zm4 0h2v-.5h-2zm4 0h2v-.5h-2zm4 0h2v-.5h-2zm4 0h2v-.5h-2zm4 0h2v-.5h-2zm4 0h2v-.5h-2zm4 0h2v-.5h-2zm4 0h2v-.5h-2zm4 0h2v-.5h-2zm4 0h2v-.5h-2zm4 0h2v-.5h-2zm4 0h2v-.5h-2zm4 0h2v-.5h-2zm4 0h2v-.5h-2zm4 0h2v-.5h-2zm4 0h2v-.5h-2zm4 0h2v-.5h-2zm4 0h2v-.5h-2zm4 0h2v-.5h-2zm4 0h2v-.5h-2zm4 0h2v-.5h-2zm4 0h2v-.5h-2zm4 0h2v-.5h-2zm4 0h2v-.5h-2zm4 0h2v-.5h-2zm4 0h2v-.5h-2zm4 0h2v-.5h-2zm4 0h2v-.5h-2zm4 0h2v-.5h-2zm4 0h2v-.5h-2zm4 0h2v-.5h-2zm4 0h2v-.5h-2zm4 0h2v-.5h-2zm4 0h2v-.5h-2zm4 0h2v-.5h-2zm4 0h2v-.5h-2zm4 0h2v-.5h-2zm4 0h2v-.5h-2zm4 0h2v-.5h-2zm4 0h2v-.5h-2zm4 0h2v-.5h-2zm4 0h2v-.5h-2zm4 0h2v-.5h-2zm4 0h2v-.5h-2zm4 0h2v-.5h-2zm4 0h2v-.5h-2zm4 0h2v-.5h-2zm4 0h2v-.5h-2zm4 0h2v-.5h-2zm4 0h2v-.5h-2zm4 0h2v-.5h-2zm4 0h2v-.5h-2zm4 0h2v-.5h-2zm4 0h2v-.5h-2zm4 0h2v-.5h-2zm4 0h2v-.5h-2zm4 0h2v-.5h-2zm4 0h2v-.5h-2zm4 0h2v-.5h-2zm4 0h2v-.5h-2zm4 0h2v-.5h-2zm4 0h2v-.5h-2zm4 0h2v-.5h-2zm4 0h2v-.5h-2zm4 0h2v-.5h-2zm4 0h2v-.5h-2zm4 0h2v-.5h-2zm4 0h2v-.5h-2zm4 0h2v-.5h-2zm4 0h2v-.5h-2zm4 0h2v-.5h-2zm4 0h2v-.5h-2zm4 0h2v-.5h-2zm4 0h2v-.5h-2zm4 0h2v-.5h-2zm4 0h2v-.5h-2zm4 0h2v-.5h-2zm4 0h2v-.5h-2zm4 0h2v-.5h-2zm4 0h2v-.5h-2zm4 0h2v-.5h-2zm4 0h2v-.5h-2zm4 0h1v-.5h-1z"/></svg>