<svg xmlns="http://www.w3.org/2000/svg" width="32" height="32" fill="none" viewBox="0 0 33.035 32.813"><defs><linearGradient id="master_svg0_707_03961" x1=".5" x2=".5" y1="0" y2="1"><stop offset="0%" stop-color="#90b0ff"/><stop offset="100%" stop-color="#3069f9"/></linearGradient><linearGradient id="master_svg3_707_03262" x1=".159" x2=".796" y1=".117" y2=".907"><stop offset="0%" stop-color="#fff" stop-opacity=".25"/><stop offset="100%" stop-color="#fff" stop-opacity="0"/></linearGradient><linearGradient id="master_svg9_707_03219" x1=".929" x2=".308" y1=".181" y2="1.549"><stop offset="0%" stop-color="#fff"/><stop offset="100%" stop-color="#fff" stop-opacity=".2"/></linearGradient><linearGradient id="master_svgc_707_05442" x1=".929" x2="-.148" y1=".181" y2="1.342"><stop offset="0%" stop-color="#fff"/><stop offset="100%" stop-color="#fff" stop-opacity=".2"/></linearGradient><linearGradient id="master_svgd_707_03262" x1=".159" x2=".796" y1=".117" y2=".907"><stop offset="0%" stop-color="#fff" stop-opacity=".25"/><stop offset="100%" stop-color="#fff" stop-opacity="0"/></linearGradient><linearGradient id="master_svgg_707_05442" x1=".929" x2="-.148" y1=".181" y2="1.342"><stop offset="0%" stop-color="#fff"/><stop offset="100%" stop-color="#fff" stop-opacity=".2"/></linearGradient><linearGradient id="master_svgh_707_03262" x1=".159" x2=".796" y1=".117" y2=".907"><stop offset="0%" stop-color="#fff" stop-opacity=".25"/><stop offset="100%" stop-color="#fff" stop-opacity="0"/></linearGradient><linearGradient id="master_svgk_707_05442" x1=".929" x2="-.148" y1=".181" y2="1.342"><stop offset="0%" stop-color="#fff"/><stop offset="100%" stop-color="#fff" stop-opacity=".2"/></linearGradient><linearGradient id="master_svgl_707_03262" x1=".159" x2=".796" y1=".117" y2=".907"><stop offset="0%" stop-color="#fff" stop-opacity=".25"/><stop offset="100%" stop-color="#fff" stop-opacity="0"/></linearGradient><clipPath id="bgblur_master_svg2_715_10450_clip_path"><path d="M14.147 0H5.594C2.249 0 0 2.348 0 5.84v8.06c0 3.482 2.25 5.83 5.594 5.83h8.553c3.344 0 5.583-2.348 5.583-5.83V5.84c0-3.492-2.24-5.84-5.583-5.84"/></clipPath><clipPath id="bgblur_master_svg5_715_10451_clip_path"/><clipPath id="bgblur_master_svg8_715_10453_clip_path"><path d="M4.447.988H2.965v4.596q0 .204.145.35.144.144.349.144H4.94v.988H3.46q-.614 0-1.048-.434t-.434-1.048V.988H0V0h4.447z"/></clipPath><clipPath id="bgblur_master_svgb_715_10455_clip_path"><rect width="3.459" height="3.459" rx=".741"/></clipPath><clipPath id="bgblur_master_svgf_715_10454_clip_path"><rect width="3.459" height="3.459" rx=".741"/></clipPath><clipPath id="bgblur_master_svgj_715_10456_clip_path"><rect width="3.459" height="3.459" rx=".741"/></clipPath><filter id="master_svg1_715_10459" width="2.39" height="2.461" x="-.695" y="-.73" color-interpolation-filters="sRGB" filterUnits="objectBoundingBox"><feFlood flood-opacity="0" result="BackgroundImageFix"/><feBlend in="SourceGraphic" in2="BackgroundImageFix" result="shape"/><feGaussianBlur result="effect1_foregroundBlur" stdDeviation="2.267"/></filter><filter id="master_svg4_715_10451" width="10.667" height="10.667" x="-4" y="-4" color-interpolation-filters="sRGB" filterUnits="objectBoundingBox"><feFlood flood-opacity="0" result="BackgroundImageFix"/><feColorMatrix in="SourceAlpha" values="0 0 0 0 0 0 0 0 0 0 0 0 0 0 0 0 0 0 127 0"/><feOffset dx="1.333" dy="1.333"/><feGaussianBlur stdDeviation="1.333"/><feColorMatrix values="0 0 0 0 0.5773564577102661 0 0 0 0 0.359375 0 0 0 0 0.9375 0 0 0 0.5 0"/><feBlend in2="BackgroundImageFix" result="effect1_dropShadow"/><feBlend in="SourceGraphic" in2="effect1_dropShadow" result="shape"/></filter><filter id="master_svg7_715_10453" width="3.72" height="2.902" x="-1.02" y="-.713" color-interpolation-filters="sRGB" filterUnits="objectBoundingBox"><feFlood flood-opacity="0" result="BackgroundImageFix"/><feColorMatrix in="SourceAlpha" values="0 0 0 0 0 0 0 0 0 0 0 0 0 0 0 0 0 0 127 0"/><feOffset dx="1.68" dy="1.68"/><feGaussianBlur stdDeviation="1.68"/><feColorMatrix values="0 0 0 0 0.1882352977991104 0 0 0 0 0.4117647111415863 0 0 0 0 0.9764705896377563 0 0 0 0.5 0"/><feBlend in2="BackgroundImageFix" result="effect1_dropShadow"/><feBlend in="SourceGraphic" in2="effect1_dropShadow" result="shape"/></filter><filter id="master_svga_715_10455" width="4.886" height="4.886" x="-1.457" y="-1.457" color-interpolation-filters="sRGB" filterUnits="objectBoundingBox"><feFlood flood-opacity="0" result="BackgroundImageFix"/><feColorMatrix in="SourceAlpha" values="0 0 0 0 0 0 0 0 0 0 0 0 0 0 0 0 0 0 127 0"/><feOffset dx="1.68" dy="1.68"/><feGaussianBlur stdDeviation="1.68"/><feColorMatrix values="0 0 0 0 0.1882352977991104 0 0 0 0 0.4117647111415863 0 0 0 0 0.9764705896377563 0 0 0 0.5 0"/><feBlend in2="BackgroundImageFix" result="effect1_dropShadow"/><feBlend in="SourceGraphic" in2="effect1_dropShadow" result="shape"/></filter><filter id="master_svge_715_10454" width="4.886" height="4.886" x="-1.457" y="-1.457" color-interpolation-filters="sRGB" filterUnits="objectBoundingBox"><feFlood flood-opacity="0" result="BackgroundImageFix"/><feColorMatrix in="SourceAlpha" values="0 0 0 0 0 0 0 0 0 0 0 0 0 0 0 0 0 0 127 0"/><feOffset dx="1.68" dy="1.68"/><feGaussianBlur stdDeviation="1.68"/><feColorMatrix values="0 0 0 0 0.1882352977991104 0 0 0 0 0.4117647111415863 0 0 0 0 0.9764705896377563 0 0 0 0.5 0"/><feBlend in2="BackgroundImageFix" result="effect1_dropShadow"/><feBlend in="SourceGraphic" in2="effect1_dropShadow" result="shape"/></filter><filter id="master_svgi_715_10456" width="4.886" height="4.886" x="-1.457" y="-1.457" color-interpolation-filters="sRGB" filterUnits="objectBoundingBox"><feFlood flood-opacity="0" result="BackgroundImageFix"/><feColorMatrix in="SourceAlpha" values="0 0 0 0 0 0 0 0 0 0 0 0 0 0 0 0 0 0 127 0"/><feOffset dx="1.68" dy="1.68"/><feGaussianBlur stdDeviation="1.68"/><feColorMatrix values="0 0 0 0 0.1882352977991104 0 0 0 0 0.4117647111415863 0 0 0 0 0.9764705896377563 0 0 0 0.5 0"/><feBlend in2="BackgroundImageFix" result="effect1_dropShadow"/><feBlend in="SourceGraphic" in2="effect1_dropShadow" result="shape"/></filter></defs><path fill="url(#master_svg0_707_03961)" d="M18.629 9.035H9.412c-3.36 0-5.262 1.903-5.262 5.261v9.208c0 3.358 1.903 5.261 5.262 5.261h9.217c3.359 0 5.253-1.903 5.253-5.261v-9.208c0-3.358-1.894-5.261-5.253-5.261" transform="rotate(-15 4.15 9.035)"/><path fill="#3069f9" d="M17.065 12.694h-6.092c-2.22 0-3.478 1.197-3.478 3.31v5.792c0 2.113 1.258 3.31 3.478 3.31h6.092c2.22 0 3.472-1.197 3.472-3.31v-5.792c0-2.113-1.252-3.31-3.472-3.31" filter="url(#master_svg1_715_10459)" style="opacity:.5" transform="rotate(-15 4.15 9.035)"/><foreignObject width="19.73" height="19.73" x="10.19" y="9.968"><div xmlns="http://www.w3.org/1999/xhtml" style="backdrop-filter:blur(3.200000286102295px);-webkit-backdrop-filter:blur(3.200000286102295px);clip-path:url(#bgblur_master_svg2_715_10450_clip_path);height:100%;width:100%"/></foreignObject><path fill="#3069f9" fill-opacity=".35" d="M24.337 9.968h-8.553c-3.345 0-5.594 2.348-5.594 5.84v8.06c0 3.482 2.25 5.83 5.594 5.83h8.553c3.344 0 5.583-2.348 5.583-5.83v-8.06c0-3.492-2.24-5.84-5.583-5.84"/><path fill="url(#master_svg3_707_03262)" fill-rule="evenodd" d="M9.923 15.808v8.06q0 2.72 1.617 4.405 1.622 1.692 4.244 1.692h8.553q2.62 0 4.238-1.692 1.612-1.685 1.612-4.405v-8.06q0-2.727-1.612-4.414-1.617-1.693-4.238-1.693h-8.553q-2.623 0-4.244 1.693-1.617 1.688-1.617 4.414m5.86-5.84h8.554c3.344 0 5.583 2.348 5.583 5.84v8.06c0 3.482-2.24 5.83-5.583 5.83h-8.553c-3.345 0-5.594-2.348-5.594-5.83v-8.06c0-3.492 2.25-5.84 5.594-5.84"/><foreignObject width="0" height="0" x="18.969" y="20.125"><div xmlns="http://www.w3.org/1999/xhtml" style="backdrop-filter:blur(2px);-webkit-backdrop-filter:blur(2px);clip-path:url(#bgblur_master_svg5_715_10451_clip_path);height:100%;width:100%"/></foreignObject><g filter="url(#master_svg4_715_10451)"/><foreignObject width="4.941" height="7.066" x="17.443" y="16.979"><div xmlns="http://www.w3.org/1999/xhtml" style="backdrop-filter:blur(2px);-webkit-backdrop-filter:blur(2px);clip-path:url(#bgblur_master_svg8_715_10453_clip_path);height:100%;width:100%"/></foreignObject><path fill="url(#master_svg9_707_03219)" fill-rule="evenodd" d="M21.89 17.967h-1.482v4.595q0 .205.144.35.145.144.35.144h1.482v.989h-1.482q-.614 0-1.048-.435-.435-.434-.435-1.048v-4.595h-1.976v-.988h4.447z" filter="url(#master_svg7_715_10453)"/><foreignObject width="3.459" height="3.459" x="14.478" y="15.644"><div xmlns="http://www.w3.org/1999/xhtml" style="backdrop-filter:blur(2px);-webkit-backdrop-filter:blur(2px);clip-path:url(#bgblur_master_svgb_715_10455_clip_path);height:100%;width:100%"/></foreignObject><g filter="url(#master_svga_715_10455)"><rect width="3.459" height="3.459" x="14.478" y="15.644" fill="#4086ff" rx=".741" style="mix-blend-mode:passthrough"/><rect width="3.459" height="3.459" x="14.478" y="15.644" fill="url(#master_svgc_707_05442)" rx=".741"/><rect width="3.352" height="3.352" x="14.531" y="15.698" stroke="url(#master_svgd_707_03262)" stroke-width=".107" rx=".688"/></g><foreignObject width="3.459" height="3.459" x="21.89" y="15.644"><div xmlns="http://www.w3.org/1999/xhtml" style="backdrop-filter:blur(2px);-webkit-backdrop-filter:blur(2px);clip-path:url(#bgblur_master_svgf_715_10454_clip_path);height:100%;width:100%"/></foreignObject><g filter="url(#master_svge_715_10454)"><rect width="3.459" height="3.459" x="21.89" y="15.644" fill="#4086ff" rx=".741" style="mix-blend-mode:passthrough"/><rect width="3.459" height="3.459" x="21.89" y="15.644" fill="url(#master_svgg_707_05442)" rx=".741"/><rect width="3.352" height="3.352" x="21.944" y="15.698" stroke="url(#master_svgh_707_03262)" stroke-width=".107" rx=".688"/></g><foreignObject width="3.459" height="3.459" x="21.89" y="22.068"><div xmlns="http://www.w3.org/1999/xhtml" style="backdrop-filter:blur(2px);-webkit-backdrop-filter:blur(2px);clip-path:url(#bgblur_master_svgj_715_10456_clip_path);height:100%;width:100%"/></foreignObject><g filter="url(#master_svgi_715_10456)"><rect width="3.459" height="3.459" x="21.89" y="22.068" fill="#4086ff" rx=".741" style="mix-blend-mode:passthrough"/><rect width="3.459" height="3.459" x="21.89" y="22.068" fill="url(#master_svgk_707_05442)" rx=".741"/><rect width="3.352" height="3.352" x="21.944" y="22.122" stroke="url(#master_svgl_707_03262)" stroke-width=".107" rx=".688"/></g></svg>