<svg xmlns="http://www.w3.org/2000/svg" width="32" height="32" fill="none" viewBox="0 0 41.197 42.682"><defs><linearGradient id="master_svg0_707_03961" x1=".5" x2=".5" y1="0" y2="1"><stop offset="0%" stop-color="#90b0ff"/><stop offset="100%" stop-color="#3069f9"/></linearGradient><linearGradient id="master_svg3_707_03221" x1=".159" x2=".59" y1=".117" y2="1.007"><stop offset="0%" stop-color="#fff" stop-opacity=".25"/><stop offset="100%" stop-color="#fff" stop-opacity="0"/></linearGradient><linearGradient id="master_svg6_707_03219" x1=".929" x2="-.246" y1=".181" y2=".29"><stop offset="0%" stop-color="#fff"/><stop offset="100%" stop-color="#fff" stop-opacity=".2"/></linearGradient><linearGradient id="master_svg7_707_03221" x1=".159" x2=".872" y1=".117" y2=".193"><stop offset="0%" stop-color="#fff" stop-opacity=".25"/><stop offset="100%" stop-color="#fff" stop-opacity="0"/></linearGradient><linearGradient id="master_svga_707_03219" x1=".929" x2="-.381" y1=".181" y2=".939"><stop offset="0%" stop-color="#fff"/><stop offset="100%" stop-color="#fff" stop-opacity=".2"/></linearGradient><linearGradient id="master_svgb_707_04154" x1=".108" x2=".963" y1=".335" y2=".419"><stop offset="0%" stop-color="#fff"/><stop offset="100%" stop-color="#fff" stop-opacity="0"/></linearGradient><clipPath id="bgblur_master_svg2_715_10514_clip_path"><path d="M12.116 0H4.418C1.626 0 0 1.899 0 5.152v11.019c0 3.306 1.626 5.162 4.418 5.162h7.698c2.837 0 4.417-1.856 4.417-5.162V5.152c0-3.253-1.58-5.152-4.417-5.152"/></clipPath><clipPath id="bgblur_master_svg5_715_10512_clip_path"><path d="M0 0h5.711v1.676H0z"/></clipPath><clipPath id="bgblur_master_svg9_715_10515_clip_path"><path d="M2.971 5.942a.8.8 0 0 1-.566-.234l-2.17-2.17a.8.8 0 1 1 1.131-1.133L2.971 4.01 6.747.235a.8.8 0 1 1 1.131 1.132l-4.34 4.341a.8.8 0 0 1-.567.234"/></clipPath><filter id="master_svg1_715_10517" width="3.103" height="3.484" x="-1.052" y="-1.242" color-interpolation-filters="sRGB" filterUnits="objectBoundingBox"><feFlood flood-opacity="0" result="BackgroundImageFix"/><feBlend in="SourceGraphic" in2="BackgroundImageFix" result="shape"/><feGaussianBlur result="effect1_foregroundBlur" stdDeviation="3.6"/></filter><filter id="master_svg4_715_10512" width="3.354" height="9.021" x="-.883" y="-3.008" color-interpolation-filters="sRGB" filterUnits="objectBoundingBox"><feFlood flood-opacity="0" result="BackgroundImageFix"/><feColorMatrix in="SourceAlpha" values="0 0 0 0 0 0 0 0 0 0 0 0 0 0 0 0 0 0 127 0"/><feOffset dx="1.68" dy="1.68"/><feGaussianBlur stdDeviation="1.68"/><feColorMatrix values="0 0 0 0 0.1882352977991104 0 0 0 0 0.4117647111415863 0 0 0 0 0.9764705896377563 0 0 0 0.5 0"/><feBlend in2="BackgroundImageFix" result="effect1_dropShadow"/><feBlend in="SourceGraphic" in2="effect1_dropShadow" result="shape"/></filter><filter id="master_svg8_715_10515" width="2.392" height="2.9" x="-.522" y="-.712" color-interpolation-filters="sRGB" filterUnits="objectBoundingBox"><feFlood flood-opacity="0" result="BackgroundImageFix"/><feColorMatrix in="SourceAlpha" values="0 0 0 0 0 0 0 0 0 0 0 0 0 0 0 0 0 0 127 0"/><feOffset dx="1.411" dy="1.411"/><feGaussianBlur stdDeviation="1.411"/><feColorMatrix values="0 0 0 0 0.1882352977991104 0 0 0 0 0.4117647111415863 0 0 0 0 0.9764705896377563 0 0 0 0.5 0"/><feBlend in2="BackgroundImageFix" result="effect1_dropShadow"/><feBlend in="SourceGraphic" in2="effect1_dropShadow" result="shape"/></filter></defs><path fill="url(#master_svg0_707_03961)" d="M21.39 13.982h-7.786c-2.825 0-4.47 1.888-4.47 5.122v10.952c0 3.287 1.645 5.132 4.47 5.132h7.786c2.87 0 4.468-1.845 4.468-5.132V19.104c0-3.234-1.598-5.122-4.468-5.122" transform="rotate(-15 9.135 13.982)"/><rect width="13.693" height="11.595" x="16.771" y="29.455" fill="#3069f9" filter="url(#master_svg1_715_10517)" rx="3.733" transform="rotate(255 16.77 29.455)"/><foreignObject width="16.533" height="21.333" x="16.601" y="15.709"><div xmlns="http://www.w3.org/1999/xhtml" style="backdrop-filter:blur(3.200000286102295px);-webkit-backdrop-filter:blur(3.200000286102295px);clip-path:url(#bgblur_master_svg2_715_10514_clip_path);height:100%;width:100%"/></foreignObject><path fill="#3069f9" fill-opacity=".35" d="M28.717 15.71H21.02c-2.792 0-4.418 1.898-4.418 5.151v11.02c0 3.306 1.626 5.162 4.418 5.162h7.698c2.838 0 4.418-1.856 4.418-5.163V20.861c0-3.253-1.58-5.152-4.418-5.152"/><path fill="url(#master_svg3_707_03221)" fill-rule="evenodd" d="M16.335 31.88q0 2.571 1.226 3.995 1.235 1.434 3.458 1.434h7.698q2.25 0 3.476-1.434Q33.4 34.46 33.4 31.88V20.861q0-2.548-1.208-3.968-1.233-1.45-3.476-1.45H21.02q-2.216 0-3.458 1.449-1.226 1.43-1.226 3.97zm4.684-16.17h7.698c2.838 0 4.418 1.898 4.418 5.151v11.02c0 3.306-1.58 5.162-4.418 5.162H21.02c-2.792 0-4.418-1.856-4.418-5.163V20.861c0-3.253 1.626-5.152 4.418-5.152"/><g filter="url(#master_svg4_715_10512)"><foreignObject width="5.711" height="1.676" x="21.994" y="32.268"><div xmlns="http://www.w3.org/1999/xhtml" style="backdrop-filter:blur(2px);-webkit-backdrop-filter:blur(2px);clip-path:url(#bgblur_master_svg5_715_10512_clip_path);height:100%;width:100%"/></foreignObject><path fill="url(#master_svg6_707_03219)" d="M26.962 33.937h-4.046a.82.82 0 0 1-.795-.382.843.843 0 0 1 .795-1.283h4.046a.83.83 0 0 1 .742.838.83.83 0 0 1-.742.827"/><path fill="url(#master_svg7_707_03221)" fill-rule="evenodd" d="M22.916 33.937h4.046a.83.83 0 0 0 .742-.827.83.83 0 0 0-.742-.838h-4.046a.843.843 0 0 0-.795 1.283c.17.265.477.424.795.382m4.04-1.558h-4.051q-.209-.021-.395.07-.188.092-.3.273-.11.173-.11.384t.11.392q.114.177.3.268.189.092.392.065h4.055q.271-.03.455-.236.186-.207.186-.485 0-.286-.186-.495-.183-.207-.455-.236"/></g><foreignObject width="8.113" height="5.942" x="21.401" y="22.376"><div xmlns="http://www.w3.org/1999/xhtml" style="backdrop-filter:blur(1.6800001859664917px);-webkit-backdrop-filter:blur(1.6800001859664917px);clip-path:url(#bgblur_master_svg9_715_10515_clip_path);height:100%;width:100%"/></foreignObject><g filter="url(#master_svg8_715_10515)"><path fill="url(#master_svga_707_03219)" d="M24.373 28.318a.8.8 0 0 1-.567-.234l-2.17-2.17a.8.8 0 1 1 1.131-1.133l1.606 1.605 3.775-3.775a.8.8 0 1 1 1.132 1.132l-4.341 4.341a.8.8 0 0 1-.566.234"/><path fill="url(#master_svgb_707_04154)" fill-opacity=".5" fill-rule="evenodd" d="m22.767 24.781 1.574 1.574.032.031.031-.031 3.744-3.744a.8.8 0 1 1 1.132 1.132l-4.341 4.341a.8.8 0 0 1-1.133 0l-2.17-2.17a.8.8 0 1 1 1.131-1.133m1.606 3.492q.313 0 .534-.22l4.341-4.342q.222-.221.222-.534t-.222-.535-.534-.221q-.312 0-.534.221l-3.807 3.808-1.637-1.637q-.222-.221-.534-.221t-.534.222q-.222.22-.222.534 0 .312.222.534l2.17 2.17q.221.221.535.221"/></g></svg>