<svg xmlns="http://www.w3.org/2000/svg" width="14.11" height="3" fill="none" viewBox="0 0 14.107 3"><path fill="#0c0d0e" fill-opacity=".2" d="M14.108 1.53q0 .073-.007.145t-.022.142-.035.14q-.02.07-.048.136-.028.067-.062.13-.034.064-.074.124t-.086.116q-.045.055-.096.106t-.107.097q-.056.046-.116.086t-.124.074-.13.062-.136.048-.14.035-.142.021-.144.007-.144-.007-.143-.02-.14-.036q-.068-.02-.135-.048t-.13-.062q-.064-.034-.124-.074t-.116-.086-.107-.097q-.05-.05-.096-.106t-.086-.116q-.04-.06-.074-.124-.034-.063-.062-.13t-.048-.136-.035-.14q-.015-.07-.022-.142t-.007-.144.007-.144.022-.143.035-.14q.02-.069.048-.135.028-.067.062-.13.034-.064.074-.124t.086-.116.096-.107.107-.097q.056-.045.116-.085t.124-.074.13-.062.136-.049.14-.035.142-.02q.072-.008.144-.008t.144.007.143.021q.07.014.14.035.068.021.135.049t.13.062q.064.034.124.074t.116.085q.055.046.107.097.05.051.096.107t.086.116.074.123q.034.064.062.13.027.067.048.136.021.07.035.14t.022.143.007.144" style="mix-blend-mode:passthrough"/><path fill="#0c0d0e" fill-opacity=".8" d="M2.938 1.531q0 .072-.007.144t-.022.143-.035.14-.048.135-.062.13-.074.124-.086.116-.097.107q-.05.05-.106.097-.056.045-.116.085t-.124.075-.13.061-.136.049-.14.035-.142.02Q1.54 3 1.469 3t-.144-.007-.143-.021q-.07-.014-.14-.035-.069-.021-.135-.049-.067-.027-.13-.061-.064-.034-.124-.075t-.116-.085T.43 2.57t-.097-.107-.086-.116-.074-.123-.061-.13-.049-.137-.035-.14-.021-.142T0 1.531t.007-.144.02-.143.036-.14q.02-.068.049-.135.027-.067.061-.13Q.207.775.247.715T.333.599.43.492.537.396.653.31.776.236t.13-.062.136-.049q.07-.02.14-.035.07-.014.143-.02.072-.008.144-.008t.144.007q.071.007.142.021t.14.035q.07.021.136.049.067.028.13.062.064.034.124.074T2.4.396q.055.045.106.096T2.604.6q.046.056.086.116t.074.124.062.13.048.136.035.14q.015.07.022.142t.007.144" style="mix-blend-mode:passthrough"/><path fill="#0c0d0e" fill-opacity=".6" d="M8.523 1.469q0 .072-.007.144t-.021.143-.035.14-.049.135-.062.13-.074.124-.086.116-.096.107-.107.097-.116.086-.124.074-.13.061-.136.049q-.069.02-.14.035-.07.014-.142.021t-.144.007-.144-.007-.143-.021-.14-.035-.135-.049q-.067-.027-.13-.061-.064-.034-.124-.074t-.116-.086-.107-.097-.097-.107-.086-.116-.074-.123-.061-.13-.049-.137q-.02-.069-.035-.14-.014-.07-.021-.142t-.007-.144.007-.144.021-.143.035-.14q.021-.068.049-.135.027-.067.061-.13.034-.064.074-.124t.086-.116.097-.107.107-.097q.056-.045.116-.085T6.36.173t.13-.061.136-.049.14-.035.143-.02Q6.982 0 7.054 0t.144.007.142.021q.071.014.14.035t.136.049.13.061.124.075.116.085.107.097q.05.051.096.107t.086.116.074.124q.034.063.062.13t.049.136.035.14q.014.07.02.142.008.072.008.144" style="mix-blend-mode:passthrough"/></svg>