<svg xmlns="http://www.w3.org/2000/svg" width="25" height="25" fill="none" viewBox="0 0 25 25"><path fill="#ef85a7" d="M12.5 5.907h1.275l1.589-2.351c1.211-1.229 2.188.01 1.559 1.116l-.838 1.257c6.29.123 6.29 1.05 6.29 7.936 0 7.958 0 8.214-9.875 8.214s-9.875-.256-9.875-8.214c0-6.78 0-7.784 6.18-7.934l-.962-1.425c-.764-1.34.911-2.207 1.579-1.034l1.475 2.437c.444-.002 1.005-.002 1.603-.002"/><path fill="#ec5d85" d="M12.5 8.266c8.125 0 8.125 0 8.125 5.875s0 6.064-8.125 6.064-8.125-.189-8.125-6.064 0-5.875 8.125-5.875"/><path fill="#ef85a7" fill-rule="evenodd" d="M18.375 13.625a.75.75 0 0 1-.314-.07l-3.25-1.5a.75.75 0 1 1 .628-1.361l3.25 1.5a.75.75 0 0 1-.314 1.431m-12.17-.415a.75.75 0 0 0 1.005.336l3-1.5a.75.75 0 1 0-.67-1.342l-3 1.5a.75.75 0 0 0-.336 1.006m4.895 3.071a.375.375 0 0 1-.225-.676l1.672-1.243 1.23 1.285a.375.375 0 1 1-.542.519l-.772-.807-1.14.848a.37.37 0 0 1-.223.074"/><path fill="#fff" fill-rule="evenodd" d="M1.6 9.017c.367 2.487.802 3.593 1.088 8.675.357.053 4.338.245 4.981-1.823a.4.4 0 0 0 .04-.265c-.747-1.961-4.13-1.475-4.13-1.475s-.254-3.577-.282-5.831zm8.094 7.736-.85-7.401 1.05-.047.646 7.448zm-2.453-5.572h.522l.13 1.44-.463.056zm1.264 0h-.522l.16 1.402.424-.04zm2.785.047h-.542l.136 1.52h.406zm.675 0h-.475v1.52h.475zm-4.408 1.865h1.11l.393 3.872-.777.046zm4.471.163H10.91l.291 3.964h.827z"/><path fill="#eb5480" d="M5.947 15.76q-.328.313-.696.58-.345.239-.72.427a.066.066 0 0 1-.108-.047 6 6 0 0 1-.125-.722 10 10 0 0 1-.053-.888c0-.008 0-.061.074-.047q.426.087.835.234.409.158.79.37c.013.007.062.037.003.093"/><path fill="#fff" fill-rule="evenodd" d="M12.531 9.017c.368 2.487.802 3.593 1.088 8.675.357.053 4.338.245 4.982-1.823a.4.4 0 0 0 .04-.265c-.747-1.961-4.131-1.475-4.131-1.475s-.253-3.577-.281-5.831zm8.095 7.736-.85-7.402 1.05-.046.645 7.448zm-2.454-5.572h.522l.13 1.44-.463.055zm1.265 0h-.523l.16 1.402.425-.04zm2.785.047h-.542l.136 1.52h.406zm.675 0h-.475v1.52h.475zm-4.408 1.865h1.11l.393 3.872-.777.046zm4.471.163h-1.118l.291 3.964h.827z"/><path fill="#eb5480" d="M16.878 15.76q-.327.313-.695.58-.345.239-.721.427a.066.066 0 0 1-.108-.047 6 6 0 0 1-.125-.722 10 10 0 0 1-.052-.888c0-.008 0-.061.073-.047q.426.087.836.234.407.158.79.37c.013.007.061.037.002.093"/></svg>