<svg xmlns="http://www.w3.org/2000/svg" width="1056" height="801.36" fill="none" viewBox="0 0 1056 801.362"><defs><linearGradient id="master_svg0_710_73481" x1=".5" x2=".5" y1="0" y2="1"><stop offset="0%" stop-color="#fff" stop-opacity=".2"/><stop offset="52.74%" stop-color="#fff"/><stop offset="100%" stop-color="#fff" stop-opacity=".2"/></linearGradient><linearGradient id="master_svg1_710_73481" x1=".5" x2=".5" y1="0" y2="1"><stop offset="0%" stop-color="#fff" stop-opacity=".2"/><stop offset="52.74%" stop-color="#fff"/><stop offset="100%" stop-color="#fff" stop-opacity=".2"/></linearGradient><linearGradient id="master_svg2_710_73481" x1=".5" x2=".5" y1="0" y2="1"><stop offset="0%" stop-color="#fff" stop-opacity=".2"/><stop offset="52.74%" stop-color="#fff"/><stop offset="100%" stop-color="#fff" stop-opacity=".2"/></linearGradient><linearGradient id="master_svg3_710_73481" x1=".5" x2=".5" y1="0" y2="1"><stop offset="0%" stop-color="#fff" stop-opacity=".2"/><stop offset="52.74%" stop-color="#fff"/><stop offset="100%" stop-color="#fff" stop-opacity=".2"/></linearGradient><linearGradient id="master_svg4_710_73481" x1=".5" x2=".5" y1="0" y2="1"><stop offset="0%" stop-color="#fff" stop-opacity=".2"/><stop offset="52.74%" stop-color="#fff"/><stop offset="100%" stop-color="#fff" stop-opacity=".2"/></linearGradient><linearGradient id="master_svg5_710_73481" x1=".5" x2=".5" y1="0" y2="1"><stop offset="0%" stop-color="#fff" stop-opacity=".2"/><stop offset="52.74%" stop-color="#fff"/><stop offset="100%" stop-color="#fff" stop-opacity=".2"/></linearGradient><linearGradient id="master_svg6_710_73481" x1=".5" x2=".5" y1="0" y2="1"><stop offset="0%" stop-color="#fff" stop-opacity=".2"/><stop offset="52.74%" stop-color="#fff"/><stop offset="100%" stop-color="#fff" stop-opacity=".2"/></linearGradient><linearGradient id="master_svg7_710_73481" x1=".5" x2=".5" y1="0" y2="1"><stop offset="0%" stop-color="#fff" stop-opacity=".2"/><stop offset="52.74%" stop-color="#fff"/><stop offset="100%" stop-color="#fff" stop-opacity=".2"/></linearGradient></defs><path fill="#fff" fill-opacity=".6" fill-rule="evenodd" d="M77.54 801.361v-800h.272v800zM538.277 801.361v-800h.273v800zM192.724 801.361v-800h.273v800zM653.46 801.361v-800h.273v800zM307.908 800V0h.273v800zM768.645 800V0h.273v800zM422.716 800V0h.273v800zM883.828 800V0h.273v800z"/><path fill="url(#master_svg0_710_73481)" fill-rule="evenodd" d="M958.832 1064.677V106.05h.273v958.627z" transform="rotate(90 958.968 106.05)"/><path fill="url(#master_svg1_710_73481)" fill-rule="evenodd" d="M958.832 1346.312V387.685h.273v958.627z" transform="rotate(90 958.968 387.685)"/><path fill="url(#master_svg2_710_73481)" fill-rule="evenodd" d="M958.832 1135.086V176.459h.273v958.627z" transform="rotate(90 958.968 176.459)"/><path fill="url(#master_svg3_710_73481)" fill-rule="evenodd" d="M958.832 1416.72V458.094h.273v958.628z" transform="rotate(90 958.968 458.093)"/><path fill="url(#master_svg4_710_73481)" fill-rule="evenodd" d="M961.164 1205.495V246.867h.273v958.628z" transform="rotate(90 961.3 246.867)"/><path fill="url(#master_svg5_710_73481)" fill-rule="evenodd" d="M961.164 1487.13V528.501h.273v958.627z" transform="rotate(90 961.3 528.502)"/><path fill="url(#master_svg6_710_73481)" fill-rule="evenodd" d="M961.164 1275.903V317.276h.273v958.627z" transform="rotate(90 961.3 317.276)"/><path fill="url(#master_svg7_710_73481)" fill-rule="evenodd" d="M961.164 1557.538V598.91h.273v958.627z" transform="rotate(90 961.3 598.91)"/><circle cx="308.546" cy="176.602" r="2.5" fill="#fff"/><circle cx="308.546" cy="247.473" r="2.5" fill="#fff"/><circle cx="653.916" cy="247.284" r="2.5" fill="#fff"/><circle cx="423.861" cy="317.743" r="2.5" fill="#fff"/><circle cx="77.826" cy="106.022" r="2.5" fill="#fff"/><rect width="114.715" height="69.67" x="308.139" y="36.255" fill="#fff" fill-opacity=".2" rx="0"/><rect width="114.715" height="70.27" x="78.108" y="176.996" fill="#fff" fill-opacity=".2" rx="0"/><rect width="114.715" height="70.27" x="538.369" y="246.957" fill="#fff" fill-opacity=".2" rx="0"/></svg>