<svg xmlns="http://www.w3.org/2000/svg" width="121.5" height="30.02" fill="none" viewBox="0 0 121.5 30.021"><defs><linearGradient id="master_svg0_707_14594" x1=".528" x2=".528" y1=".008" y2="1"><stop offset="0%" stop-color="#eff4fd" stop-opacity="0"/><stop offset="100%" stop-color="#006afd"/></linearGradient></defs><path fill="url(#master_svg0_707_14594)" fill-rule="evenodd" d="M0 2.45V0h121.5v2.45H91.588A19.9 19.9 0 0 0 80.83 5.602l-4.008 2.572a31.6 31.6 0 0 0-11.557 13.198l-.54 1.154 4.93-1.271-8.26 8.765-8.26-8.765 4.656 1.2-.506-1.08a31.64 31.64 0 0 0-11.555-13.2l-4-2.569A19.9 19.9 0 0 0 30.968 2.45zm61.301 20.91.095.025.094-.024z"/></svg>