<svg xmlns="http://www.w3.org/2000/svg" width="18" height="18" fill="none" viewBox="0 0 18 18"><path fill="#000" fill-opacity=".65" fill-rule="evenodd" d="M1.904 9.745H14.29L9.53 14.506q-.106.106-.163.243-.057.138-.057.287 0 .074.015.147.014.072.042.14t.07.13.093.114.113.093q.062.04.13.07.068.027.14.042.073.014.147.014.15 0 .287-.057.138-.057.243-.162l5.973-5.973q.246-.246.246-.594t-.246-.594L10.59 2.433q-.105-.105-.243-.162t-.287-.057q-.074 0-.146.014-.073.015-.141.043t-.13.07q-.061.04-.113.092-.052.053-.094.114-.04.061-.069.13-.028.068-.042.14t-.015.147q0 .149.057.287t.163.243l4.75 4.75H1.904q-.074 0-.147.015-.072.015-.14.043t-.13.07q-.061.04-.114.093-.052.052-.093.113-.04.062-.07.13-.027.068-.042.14-.014.073-.014.147t.014.146.043.14q.028.069.07.13.04.062.092.114.053.052.114.093t.13.07q.068.028.14.042t.147.015"/></svg>