<svg xmlns="http://www.w3.org/2000/svg" width="25.2" height="25.2" fill="none" viewBox="0 0 25.199 25.2"><path fill="#fff" d="M4.484 3.848h16.29c.559 0 1.018-.416 1.018-.925s-.458-.93-1.02-.93H4.483c-.558 0-1.018.415-1.018.924.003.51.46.93 1.02.93m6.238 8.523h.066zm11.659-6.663H2.819c-.565.008-1.02.47-1.019 1.035v15.428c0 .57.458 1.035 1.02 1.035h19.56a1.034 1.034 0 0 0 1.02-1.035V6.743a1.03 1.03 0 0 0-1.02-1.035m-6.425 9.696c.559 0 1.02.416 1.02.925s-.458.925-1.021.925h-2.44v2.242c0 .57-.41 1.035-.911 1.035s-.912-.468-.912-1.034v-2.24H9.25c-.558 0-1.019-.416-1.019-.925s.458-.925 1.02-.925h2.438v-1.335H9.25c-.558 0-1.019-.416-1.019-.925 0-.508.458-.925 1.02-.925H10.6l-.5-.968-.59-1.148c-.259-.505-.11-1.108.335-1.346s1.021-.019 1.283.484l.475.918.026.044.488.946h.005l.496.959.496-.96h.004l.49-.945q.01-.024.025-.044l.474-.92c.26-.506.836-.72 1.282-.482.445.238.597.841.337 1.347l-.59 1.147-.502.968h-.005 1.328c.56 0 1.02.417 1.02.925 0 .51-.457.926-1.02.926h-2.445v1.328h2.443v.003z" style="mix-blend-mode:passthrough"/></svg>