<svg xmlns="http://www.w3.org/2000/svg" width="336.6" height="336.6" fill="none" viewBox="0 0 337.5 337.5"><path fill="#c0c7ef" d="M337.462 172.312q-.019.897-.047 1.792l-.9-.028q.029-.892.048-1.783zm-.114 3.591q-.038.905-.086 1.806l-.899-.048q.048-.899.086-1.796zm-.192 3.618q-.059.912-.126 1.818l-.898-.067q.068-.906.126-1.808zm-.273 3.643q-.076.896-.163 1.794l-.896-.086q.086-.891.163-1.785zm-.344 3.569q-.095.89-.2 1.78l-.894-.106q.104-.883.2-1.77zm-.42 3.564q-.115.894-.24 1.788l-.891-.125q.124-.888.238-1.778zm-.5 3.58q-.136.9-.28 1.794l-.889-.143q.145-.894.279-1.786zm-.58 3.593q-.157.9-.322 1.8l-.885-.162q.164-.895.32-1.791zm-.655 3.558q-.17.875-.351 1.753l-.882-.181q.18-.87.35-1.744zm-.722 3.509q-.191.88-.391 1.756l-.878-.2q.2-.874.39-1.747zm-.802 3.514q-.211.88-.432 1.759l-.872-.219q.219-.873.428-1.75zm-.883 3.518q-.231.882-.472 1.76l-.868-.238q.24-.875.47-1.75zm-.964 3.519q-.245.859-.5 1.717l-.863-.256q.253-.852.498-1.708zm-1.02 3.432q-.264.858-.538 1.713l-.857-.275q.272-.85.536-1.704zm-1.097 3.425q-.284.856-.578 1.71l-.85-.293q.291-.848.574-1.701zm-1.176 3.418q-.304.855-.617 1.705l-.845-.31q.312-.848.614-1.697zm-1.255 3.408q-.325.853-.657 1.7l-.838-.33q.332-.844.654-1.69zm-1.324 3.37q-.337.832-.683 1.659l-.83-.347q.344-.824.679-1.65zm-1.384 3.313q-.356.827-.72 1.65l-.824-.364q.363-.819.717-1.642zm-1.46 3.296q-.376.824-.76 1.641l-.814-.382q.382-.815.755-1.632zm-1.537 3.277q-.394.818-.797 1.63l-.806-.399q.4-.809.792-1.622zm-1.612 3.255q-.41.806-.83 1.609l-.798-.417q.417-.797.825-1.6zm-1.67 3.196q-.425.792-.858 1.58l-.789-.434q.431-.784.854-1.572zm-1.734 3.154q-.443.785-.894 1.566l-.78-.45q.45-.777.89-1.558zm-1.807 3.125q-.461.779-.93 1.551l-.77-.467q.468-.77.926-1.543zm-1.878 3.094q-.478.769-.966 1.535l-.759-.483q.484-.76.96-1.527zm-1.949 3.061q-.493.757-.991 1.503l-.749-.5q.499-.746.986-1.494zm-1.999 2.996q-.509.745-1.024 1.482l-.737-.515q.514-.736 1.018-1.475zm-2.065 2.955q-.525.736-1.057 1.464l-.727-.531q.53-.726 1.052-1.456zm-2.131 2.917q-.541.724-1.09 1.442l-.715-.546q.546-.715 1.084-1.435zm-2.197 2.874q-.558.715-1.122 1.42l-.704-.561q.564-.705 1.117-1.413zm-2.26 2.828q-.57.7-1.147 1.39l-.691-.576q.575-.69 1.142-1.383zm-2.31 2.77q-.585.686-1.179 1.366l-.678-.59q.59-.677 1.172-1.36zm-2.372 2.721q-.6.673-1.208 1.342l-.666-.605q.603-.663 1.202-1.335zm-2.431 2.672q-.615.662-1.237 1.317l-.653-.62q.619-.652 1.23-1.31zm-2.489 2.62q-.629.649-1.265 1.29l-.64-.633q.633-.638 1.26-1.283zm-2.544 2.567q-.644.636-1.293 1.263l-.626-.647q.648-.626 1.286-1.256zm-2.6 2.512q-.655.62-1.318 1.234l-.612-.66q.659-.61 1.312-1.228zm-2.65 2.454q-.67.607-1.345 1.206l-.597-.674q.672-.596 1.337-1.199zm-2.702 2.396q-.682.592-1.37 1.176l-.582-.686q.684-.581 1.362-1.17zm-2.75 2.336q-.695.577-1.393 1.145l-.568-.698q.697-.567 1.385-1.139zm-2.804 2.28q-.708.563-1.423 1.12l-.553-.71q.71-.554 1.415-1.114zm-2.857 2.223q-.72.548-1.445 1.087l-.537-.722q.722-.537 1.437-1.081zm-2.9 2.158q-.729.531-1.465 1.054l-.521-.733q.73-.52 1.457-1.049zm-2.94 2.092q-.739.514-1.484 1.021l-.506-.744q.74-.504 1.476-1.016zm-2.978 2.025q-.752.5-1.508.99l-.49-.755q.753-.489 1.5-.985zm-3.036 1.97q-.765.486-1.536.962l-.474-.765q.767-.474 1.529-.957zm-3.08 1.907q-.775.468-1.553.927l-.458-.775q.776-.458 1.545-.922zm-3.114 1.836q-.782.45-1.568.89l-.44-.784q.782-.44 1.56-.886zm-3.143 1.763q-.789.432-1.581.855l-.424-.794q.79-.421 1.573-.85zm-3.17 1.692q-.804.418-1.614.828l-.406-.803q.804-.408 1.605-.824zm-3.24 1.64q-.813.4-1.631.793l-.39-.811q.814-.39 1.623-.79zm-3.268 1.567q-.82.383-1.642.755l-.372-.82q.82-.37 1.634-.75zm-3.289 1.492q-.823.362-1.65.717l-.355-.828q.823-.352 1.643-.713zm-3.306 1.414q-.828.344-1.66.68l-.336-.835q.827-.334 1.65-.676zm-3.336 1.345q-.85.331-1.7.654l-.32-.842q.849-.32 1.692-.65zm-3.404 1.287q-.85.311-1.706.614l-.3-.848q.848-.3 1.696-.61zm-3.415 1.209q-.853.291-1.71.574l-.282-.855q.851-.28 1.701-.571zm-3.422 1.129q-.854.271-1.714.535l-.264-.86q.852-.262 1.705-.533zm-3.428 1.05q-.861.254-1.726.5l-.246-.867q.86-.243 1.717-.496zm-3.486.988q-.878.238-1.759.467l-.226-.87q.876-.229 1.75-.466zm-3.518.915q-.878.218-1.759.427l-.207-.875q.875-.208 1.749-.425zm-3.516.835q-.876.197-1.757.387l-.189-.88q.873-.188 1.747-.385zm-3.512.754q-.874.178-1.753.348l-.17-.884q.87-.168 1.743-.346zm-3.52.679q-.9.163-1.8.317l-.151-.887q.897-.154 1.79-.316zm-3.598.614q-.897.143-1.794.276l-.132-.89q.893-.133 1.785-.275zm-3.585.532q-.894.123-1.788.236l-.113-.893q.89-.112 1.778-.235zm-3.57.452q-.891.104-1.78.197l-.094-.895q.888-.093 1.77-.196zm-3.553.374q-.902.085-1.805.16l-.075-.896q.898-.075 1.795-.16zm-3.628.303q-.907.066-1.817.123l-.056-.899q.902-.056 1.807-.121zm-3.628.225q-.905.046-1.805.082l-.036-.899q.9-.036 1.795-.082zm-3.603.146q-.895.026-1.79.043l-.017-.9q.89-.017 1.78-.043zm-3.576.068-1.435.006h-.338v-.9h.334l1.436-.006zm-3.553-.007q-.895-.011-1.786-.032l.02-.9q.891.02 1.778.032zm-3.58-.083q-.9-.03-1.8-.07l.04-.9q.896.04 1.79.07zm-3.607-.16q-.908-.05-1.813-.11l.06-.899q.902.06 1.803.11zm-3.632-.24q-.914-.07-1.826-.15l.08-.897q.907.08 1.815.15zm-3.61-.317q-.886-.087-1.776-.184l.098-.895q.88.096 1.766.183zm-3.556-.388q-.892-.107-1.785-.224l.117-.893q.886.116 1.775.223zm-3.574-.468q-.896-.127-1.792-.264l.136-.89q.89.136 1.783.263zm-3.588-.548q-.898-.147-1.799-.304l.155-.887q.892.156 1.79.303zm-3.596-.629q-.878-.163-1.752-.335l.174-.883q.872.172 1.743.334zm-3.505-.69q-.879-.183-1.756-.375l.192-.88q.872.192 1.747.374zm-3.513-.77q-.88-.203-1.758-.415l.211-.875q.874.212 1.749.413zm-3.517-.85q-.88-.222-1.76-.455l.23-.87q.874.231 1.75.453zm-3.519-.93q-.878-.243-1.753-.495l.249-.865q.871.251 1.744.492zm-3.468-.998q-.86-.257-1.714-.523l.267-.86q.852.265 1.705.52zm-3.427-1.066q-.857-.276-1.712-.562l.286-.853q.85.284 1.702.559zm-3.421-1.144q-.856-.296-1.708-.601l.304-.848q.848.304 1.698.599zm-3.413-1.223q-.853-.316-1.702-.641l.322-.84q.845.323 1.693.637zm-3.402-1.303q-.832-.329-1.662-.667l.34-.834q.823.336 1.653.664zm-3.32-1.353q-.829-.348-1.654-.706l.358-.826q.82.356 1.645.702zm-3.303-1.43q-.824-.367-1.645-.743l.375-.818q.815.373 1.636.739zm-3.285-1.506q-.82-.386-1.635-.78l.392-.81q.811.392 1.626.776zm-3.264-1.581q-.814-.405-1.624-.82l.41-.8q.805.41 1.615.814zm-3.226-1.65q-.796-.418-1.586-.843l.427-.793q.786.424 1.577.84zm-3.165-1.705q-.788-.435-1.573-.88l.444-.783q.78.442 1.564.875zm-3.138-1.777q-.781-.454-1.557-.916l.46-.773q.773.46 1.55.91zm-3.107-1.85q-.772-.47-1.542-.951l.477-.763q.763.476 1.534.946zm-3.075-1.92q-.765-.49-1.523-.986l.493-.753q.756.495 1.515.98zm-3.022-1.98q-.749-.5-1.49-1.01l.508-.742q.739.507 1.483 1.005zm-2.972-2.037q-.739-.519-1.471-1.044l.525-.731q.73.523 1.463 1.038zm-2.932-2.105q-.73-.535-1.451-1.077l.54-.72q.72.54 1.443 1.072zm-2.892-2.17q-.719-.552-1.43-1.11l.556-.708q.71.557 1.422 1.104zm-2.848-2.235q-.706-.567-1.404-1.139l.57-.696q.697.57 1.397 1.133zm-2.792-2.29q-.693-.58-1.377-1.166l.585-.684q.683.585 1.37 1.16zm-2.742-2.347q-.679-.594-1.352-1.196l.6-.671q.669.598 1.345 1.19zm-2.692-2.407q-.667-.61-1.327-1.226l.614-.658q.657.613 1.32 1.22zm-2.641-2.466q-.655-.624-1.301-1.254l.628-.645q.644.628 1.294 1.248zm-2.589-2.522q-.641-.638-1.274-1.282l.642-.63q.63.64 1.267 1.274zm-2.534-2.577q-.627-.651-1.246-1.309l.655-.617q.616.655 1.24 1.302zm-2.478-2.63q-.613-.666-1.217-1.335l.668-.603q.603.668 1.21 1.327zm-2.42-2.682q-.597-.676-1.188-1.36l.681-.588q.587.68 1.182 1.352zm-2.36-2.73q-.583-.69-1.158-1.384l.694-.574q.571.69 1.15 1.376zm-2.3-2.78q-.57-.703-1.133-1.414l.706-.559q.559.706 1.126 1.407zm-2.25-2.839q-.553-.715-1.1-1.435l.718-.544q.543.717 1.094 1.428zm-2.184-2.882q-.538-.726-1.068-1.457l.73-.528q.526.727 1.061 1.45zm-2.119-2.924q-.52-.735-1.034-1.477l.74-.512q.51.737 1.029 1.469zm-2.052-2.963q-.504-.745-1-1.496l.75-.496q.493.746.995 1.487zm-1.99-3.008q-.492-.762-.976-1.53l.76-.48q.482.763.972 1.521zm-1.935-3.068q-.475-.77-.941-1.546l.77-.464q.465.772.937 1.538zm-1.865-3.1q-.457-.778-.905-1.562l.78-.447q.447.779.901 1.553zm-1.793-3.131q-.439-.786-.87-1.576l.791-.431q.428.786.865 1.568zm-1.72-3.16q-.421-.792-.833-1.589l.799-.413q.41.792.829 1.58zm-1.66-3.21q-.41-.81-.809-1.626l.808-.396q.398.811.804 1.618zm-1.599-3.259q-.39-.816-.77-1.637l.816-.38q.38.818.767 1.63zm-1.522-3.28q-.37-.822-.732-1.648l.824-.361q.36.822.729 1.639zm-1.446-3.3q-.351-.826-.694-1.656l.832-.343q.341.825.69 1.647zm-1.37-3.316q-.336-.84-.664-1.684l.84-.326q.325.84.66 1.676zm-1.313-3.385q-.32-.85-.63-1.704l.845-.308q.31.85.627 1.695zm-1.24-3.41q-.3-.853-.591-1.71l.852-.289q.29.852.587 1.7zm-1.162-3.42q-.28-.855-.55-1.713l.857-.27q.27.852.548 1.702zm-1.082-3.426q-.26-.857-.512-1.715l.864-.253q.25.854.509 1.706zm-1.01-3.45q-.247-.878-.484-1.759l.87-.234q.235.877.48 1.75zm-.948-3.518q-.226-.878-.444-1.759l.874-.215q.216.875.442 1.75zm-.867-3.517q-.207-.878-.404-1.758l.879-.197q.196.875.401 1.749zm-.787-3.514q-.186-.877-.364-1.755l.883-.178q.176.874.361 1.745zm-.708-3.508q-.169-.887-.328-1.776l.885-.159q.16.884.327 1.767zm-.642-3.576q-.151-.897-.293-1.797l.89-.14q.14.895.29 1.788zm-.565-3.59q-.131-.895-.252-1.791l.891-.12q.121.89.251 1.78zm-.485-3.578q-.11-.89-.212-1.782l.894-.102q.101.887.211 1.773zm-.405-3.56q-.091-.886-.173-1.773l.896-.083q.081.883.172 1.764zm-.331-3.588q-.075-.91-.139-1.822l.898-.063q.064.906.138 1.812zM.3 178.832q-.054-.904-.098-1.81l.899-.044q.044.9.098 1.8zm-.177-3.613q-.034-.898-.06-1.796l.9-.025q.025.894.06 1.787zm-.1-3.585q-.015-.891-.02-1.783l.9-.005q.005.886.02 1.772zm-.023-3.558q.004-.89.017-1.78l.9.013q-.013.885-.017 1.77zm.052-3.568q.023-.898.055-1.795l.9.032q-.033.893-.055 1.786zm.13-3.596q.041-.905.093-1.809l.898.052q-.051.899-.093 1.798zm.207-3.623q.062-.91.133-1.82l.898.07q-.072.905-.133 1.811zm.288-3.647q.08-.887.169-1.774l.895.09q-.089.882-.168 1.765zm.357-3.55q.099-.892.207-1.782l.894.11q-.108.885-.207 1.771zm.435-3.567q.119-.896.247-1.79l.891.129q-.128.889-.246 1.78zm.515-3.583q.14-.899.288-1.796l.888.147q-.148.893-.286 1.787zm.596-3.595q.159-.895.327-1.788l.884.166q-.167.888-.324 1.778zm.666-3.54q.175-.879.359-1.755l.88.185q-.183.872-.356 1.745zm.737-3.51q.195-.88.4-1.758l.876.204q-.203.873-.397 1.748zm.818-3.516q.214-.88.439-1.76l.872.223q-.223.874-.437 1.75zm.898-3.518q.235-.881.48-1.76l.866.242q-.243.873-.477 1.75zm.975-3.505q.249-.858.507-1.714l.862.26q-.257.85-.505 1.705zm1.034-3.428q.268-.858.546-1.713l.856.278q-.276.85-.544 1.704zm1.112-3.424q.288-.857.586-1.71l.85.297q-.296.848-.583 1.7zm1.191-3.417q.308-.854.625-1.704l.844.314q-.316.846-.622 1.696zm1.27-3.406q.327-.849.663-1.694l.837.333q-.335.84-.66 1.684zm1.334-3.354q.34-.83.69-1.657l.829.35q-.348.822-.686 1.648zm1.399-3.31q.36-.827.728-1.65l.82.369q-.366.818-.723 1.64zm1.474-3.293q.38-.822.766-1.64l.814.386q-.385.813-.762 1.63zm1.551-3.273q.398-.816.804-1.628l.805.403q-.404.807-.8 1.62zm1.627-3.25q.412-.8.832-1.597l.796.42q-.418.792-.827 1.588zm1.679-3.182q.428-.79.865-1.577l.786.436q-.434.783-.86 1.57zm1.748-3.148q.446-.784.9-1.564l.778.454q-.452.775-.896 1.555zm1.82-3.12q.464-.777.937-1.548l.767.47q-.47.767-.932 1.54zm1.892-3.088q.482-.769.972-1.532l.757.487q-.488.759-.967 1.523zm1.96-3.05q.494-.752.996-1.498l.746.502q-.5.743-.99 1.49zm2.01-2.987q.51-.742 1.03-1.479l.736.518q-.517.733-1.025 1.472zm2.077-2.948q.528-.733 1.064-1.46l.724.534q-.533.724-1.058 1.452zm2.144-2.909q.545-.722 1.097-1.438l.712.55q-.549.712-1.09 1.43zm2.21-2.866q.56-.711 1.128-1.416l.7.564q-.564.702-1.122 1.41zm2.268-2.817q.574-.696 1.154-1.386l.689.58q-.578.686-1.148 1.378zm2.323-2.76q.589-.684 1.184-1.362l.676.594q-.592.674-1.178 1.355zm2.383-2.712q.603-.672 1.214-1.338l.663.608q-.607.662-1.207 1.33zm2.442-2.663q.618-.659 1.243-1.311l.65.622q-.621.649-1.236 1.305zm2.5-2.61q.632-.646 1.27-1.285l.637.636q-.636.636-1.264 1.278zm2.555-2.556q.645-.633 1.298-1.258l.622.65q-.648.622-1.29 1.25zm2.609-2.501q.659-.618 1.324-1.23l.609.664q-.662.607-1.317 1.222zm2.66-2.444q.672-.603 1.35-1.2l.594.676q-.674.593-1.342 1.194zm2.712-2.385q.683-.588 1.374-1.17l.58.689q-.687.578-1.367 1.164zm2.76-2.324q.696-.574 1.398-1.14l.565.7q-.698.563-1.391 1.135zm2.814-2.27q.71-.56 1.427-1.114l.55.713q-.713.55-1.42 1.108zm2.865-2.21q.722-.545 1.449-1.082l.534.724q-.723.534-1.44 1.076zm2.908-2.146q.732-.529 1.469-1.048l.518.735q-.733.517-1.46 1.042zm2.947-2.08q.742-.511 1.488-1.014l.503.746q-.743.5-1.48 1.01zm2.986-2.012q.755-.498 1.517-.987l.487.757q-.757.486-1.51.982zm3.048-1.96q.767-.483 1.54-.956l.47.767q-.768.47-1.531.95zm3.087-1.894q.776-.464 1.556-.92l.454.777q-.776.453-1.547.915zm3.12-1.822q.782-.446 1.57-.884l.437.786q-.783.436-1.562.88zm3.148-1.75q.79-.428 1.584-.848l.42.796q-.79.417-1.576.843zm3.179-1.68q.809-.416 1.622-.823l.403.804q-.81.406-1.613.82zm3.25-1.628q.814-.398 1.633-.786l.386.813q-.814.386-1.625.782zm3.272-1.553q.82-.379 1.644-.748l.368.821q-.82.368-1.635.744zm3.292-1.477q.825-.36 1.653-.71l.35.829q-.823.349-1.643.706zm3.31-1.4q.828-.34 1.66-.672l.333.836q-.827.33-1.651.668zm3.352-1.336q.849-.327 1.701-.646l.315.843q-.848.317-1.692.643zm3.406-1.272q.852-.308 1.707-.606l.297.85q-.85.296-1.698.603zm3.416-1.193q.854-.288 1.711-.567l.279.856q-.853.277-1.702.564zm3.424-1.114q.856-.269 1.714-.528l.26.862q-.854.258-1.705.524zm3.429-1.036q.87-.253 1.742-.496l.242.867q-.868.242-1.733.493zm3.502-.977q.878-.234 1.759-.46l.223.872q-.876.224-1.75.458zm3.518-.9q.878-.214 1.758-.42l.205.877q-.876.204-1.75.418zm3.516-.819q.876-.194 1.756-.38l.185.881q-.874.184-1.747.378zm3.51-.74q.875-.174 1.752-.34l.167.885q-.872.164-1.743.338zm3.538-.666q.898-.16 1.8-.31l.147.888q-.896.149-1.79.308zm3.596-.599q.896-.139 1.793-.268l.129.89q-.893.13-1.784.267zm3.583-.517q.892-.119 1.785-.229l.11.894q-.889.109-1.776.227zm3.567-.437q.888-.1 1.777-.19l.09.896q-.884.09-1.767.188zm3.549-.36q.912-.082 1.825-.154l.072.897q-.909.072-1.816.154zm3.646-.29q.907-.061 1.815-.114l.052.899q-.903.052-1.805.114zm3.623-.209q.901-.042 1.802-.075l.033.9q-.896.032-1.792.074zm3.597-.13q.894-.023 1.788-.037l.014.9q-.89.013-1.778.036zm3.57-.054L168.75 0l.851.002.161.001-.005.9h-.158L168.751.9l-.762.002zm3.556.021q.895.015 1.79.04l-.025.899q-.89-.024-1.78-.039zm3.585.098q.902.034 1.803.077l-.043.9q-.897-.044-1.794-.078zm3.613.175q.908.054 1.815.118l-.063.897q-.902-.063-1.806-.117zm3.637.255q.91.074 1.818.157l-.083.897q-.903-.083-1.808-.157zm3.59.33q.89.091 1.778.192l-.101.894q-.884-.1-1.768-.19zm3.56.403q.894.111 1.787.231l-.12.892q-.888-.12-1.777-.23zm3.577.483q.898.13 1.794.271l-.14.89q-.891-.14-1.784-.27zm3.59.563q.901.151 1.8.312l-.158.886q-.894-.16-1.79-.31zm3.579.64q.877.167 1.752.343l-.177.883q-.87-.175-1.743-.341zm3.507.706q.88.187 1.756.383l-.196.878q-.872-.195-1.747-.38zm3.514.785q.88.207 1.758.423l-.215.873q-.873-.214-1.749-.42zm3.517.865q.88.227 1.76.463l-.234.87q-.874-.236-1.75-.461zm3.519.946q.87.244 1.736.498l-.252.864q-.862-.252-1.727-.495zm3.451 1.008q.858.261 1.714.53l-.27.86q-.852-.27-1.706-.528zm3.426 1.08q.857.281 1.711.57l-.289.853q-.85-.288-1.702-.567zm3.42 1.16q.855.3 1.707.61l-.307.845q-.847-.307-1.698-.606zm3.41 1.238q.854.32 1.702.65l-.325.838q-.845-.327-1.692-.645zm3.388 1.313q.832.333 1.66.675l-.343.832q-.824-.34-1.65-.671zm3.317 1.368q.828.352 1.652.712l-.361.825q-.82-.359-1.643-.709zm3.3 1.444q.823.37 1.643.75l-.379.817q-.815-.378-1.634-.746zm3.28 1.52q.82.39 1.634.789l-.396.808q-.81-.397-1.624-.784zm3.26 1.596q.813.409 1.622.827l-.413.8q-.804-.416-1.613-.823zm3.212 1.66q.794.42 1.584.85l-.43.79q-.785-.427-1.575-.846zm3.16 1.718q.787.439 1.57.886l-.447.782q-.778-.445-1.561-.882zm3.132 1.79q.78.458 1.555.923l-.464.772q-.77-.463-1.546-.918zm3.101 1.864q.771.474 1.539.958l-.48.761q-.762-.48-1.53-.953zm3.069 1.934q.759.49 1.513.988l-.496.751q-.75-.495-1.505-.983zm3.01 1.988q.745.504 1.486 1.017l-.512.74q-.736-.51-1.479-1.011zm2.964 2.05q.736.522 1.467 1.05l-.528.73q-.726-.526-1.46-1.045zm2.925 2.118q.726.537 1.447 1.083l-.544.718q-.716-.543-1.439-1.078zm2.883 2.183q.715.553 1.426 1.115l-.559.706q-.705-.558-1.418-1.11zm2.84 2.247q.7.567 1.397 1.142l-.574.694q-.69-.571-1.39-1.136zm2.78 2.299q.689.581 1.373 1.172l-.588.68q-.679-.585-1.365-1.165zm2.733 2.359q.677.597 1.347 1.202l-.602.668q-.668-.602-1.34-1.195zm2.682 2.418q.665.612 1.323 1.231l-.617.656q-.654-.616-1.315-1.225zm2.632 2.477q.65.625 1.296 1.259l-.63.642q-.641-.63-1.29-1.253zm2.578 2.532q.639.641 1.27 1.287l-.645.629q-.629-.645-1.262-1.28zm2.524 2.588q.624.653 1.24 1.313l-.657.615q-.614-.657-1.234-1.307zm2.467 2.64q.609.666 1.212 1.339l-.67.6q-.6-.669-1.206-1.332zm2.409 2.69q.595.68 1.182 1.365l-.684.585q-.584-.682-1.175-1.356zm2.349 2.74q.58.691 1.151 1.388l-.695.571q-.57-.693-1.146-1.38zm2.29 2.791q.567.706 1.127 1.418l-.708.556q-.556-.707-1.12-1.41zm2.237 2.848q.55.716 1.094 1.44l-.72.54q-.54-.718-1.088-1.432zm2.172 2.89q.536.729 1.062 1.46l-.731.526q-.525-.73-1.056-1.453zm2.107 2.932q.519.739 1.028 1.48l-.742.51q-.509-.74-1.023-1.473zm2.039 2.97q.502.749.994 1.499l-.752.494q-.492-.75-.99-1.492zm1.98 3.021q.49.764.97 1.533l-.763.477q-.478-.765-.964-1.525zm1.923 3.074q.47.77.934 1.55l-.773.46q-.46-.772-.93-1.541zm1.85 3.106q.454.78.9 1.565l-.783.444q-.443-.78-.894-1.556zm1.78 3.137q.437.789.863 1.579l-.793.427q-.425-.79-.857-1.57zm1.707 3.164q.42.798.83 1.601l-.8.41q-.41-.798-.827-1.592zm1.65 3.224q.406.814.802 1.63l-.81.392q-.394-.813-.797-1.62zm1.584 3.264q.386.817.764 1.64l-.818.375q-.375-.817-.76-1.631zm1.508 3.284q.368.825.725 1.65l-.825.357q-.358-.824-.722-1.64zm1.431 3.303q.348.825.688 1.658l-.834.34q-.336-.824-.683-1.649zm1.356 3.319q.336.848.662 1.699l-.84.322q-.326-.847-.66-1.69zm1.304 3.4q.316.851.623 1.706l-.847.304q-.305-.849-.62-1.696zm1.225 3.413q.296.853.583 1.71l-.853.286q-.285-.85-.58-1.7zm1.146 3.421q.277.856.544 1.713l-.86.268q-.265-.854-.54-1.704zm1.068 3.427q.257.858.504 1.715l-.865.25q-.246-.856-.501-1.706zm.999 3.466q.243.877.477 1.76l-.87.23q-.232-.875-.475-1.75zm.933 3.519q.222.878.436 1.759l-.875.212q-.212-.876-.434-1.75zm.852 3.517q.202.878.396 1.757l-.88.193q-.192-.875-.393-1.748zm.771 3.513q.183.876.357 1.754l-.883.174q-.173-.873-.355-1.745zm.693 3.506q.167.896.325 1.794l-.887.156q-.156-.893-.323-1.785zm.63 3.593q.148.897.285 1.796l-.89.137q-.136-.894-.283-1.787zm.55 3.589q.127.892.245 1.789l-.892.117q-.117-.889-.244-1.78zm.47 3.574q.107.887.205 1.78l-.895.099q-.097-.884-.204-1.772zm.39 3.557q.088.888.167 1.78l-.896.08q-.079-.885-.166-1.772zm.318 3.606q.07.909.131 1.82l-.898.06q-.06-.904-.13-1.81zm.242 3.634q.05.903.091 1.807l-.899.04q-.04-.899-.09-1.797zm.163 3.608q.03.895.052 1.793l-.9.022q-.021-.89-.052-1.784zm.085 3.58q.011.892.013 1.78l-.9.002q-.002-.888-.013-1.77zm.014 2.206q0 .888-.01 1.777l-.9-.01q.01-.882.01-1.767z"/></svg>