<svg xmlns="http://www.w3.org/2000/svg" width="27.46" height="32.06" fill="none" viewBox="0 0 27.459 32.058"><path fill="#fff" d="M8.781 3.066H1.533A1.547 1.547 0 0 1 0 1.533C0 .697.697 0 1.533 0h7.248c.836 0 1.533.697 1.533 1.533 0 .976-.697 1.533-1.533 1.533M19.097 3.066h-5.854a1.547 1.547 0 0 1-1.533-1.533C11.71.697 12.407 0 13.243 0h5.854c.837 0 1.534.697 1.534 1.533 0 .976-.697 1.533-1.534 1.533M23.695 12.824H9.617a1.547 1.547 0 0 1-1.533-1.534c0-.836.697-1.533 1.533-1.533h14.078c.836 0 1.533.697 1.533 1.533-.14.837-.836 1.534-1.533 1.534M5.157 12.824H1.533A1.547 1.547 0 0 1 0 11.29c0-.836.697-1.533 1.533-1.533h3.624c.837 0 1.533.697 1.533 1.533 0 .837-.696 1.534-1.533 1.534M19.1 17.562h-3.624a1.547 1.547 0 0 1-1.534-1.533c0-.836.697-1.533 1.534-1.533H19.1c.836 0 1.533.697 1.533 1.533s-.697 1.533-1.533 1.533M11.011 17.562H1.533A1.547 1.547 0 0 1 0 16.03c0-.836.697-1.533 1.533-1.533h9.478c.837 0 1.534.697 1.534 1.533s-.697 1.533-1.534 1.533M13.804 22.44a1.547 1.547 0 0 1-1.533-1.532c0-.837.696-1.534 1.533-1.534.836 0 1.533.697 1.533 1.534 0 .836-.697 1.533-1.533 1.533M9.339 22.44H1.533A1.547 1.547 0 0 1 0 20.909c0-.837.697-1.534 1.533-1.534H9.34c.836 0 1.533.697 1.533 1.534 0 .836-.697 1.533-1.533 1.533M19.096 27.18h-2.37a1.547 1.547 0 0 1-1.533-1.533c0-.837.697-1.534 1.534-1.534h2.37c.835 0 1.532.697 1.532 1.534 0 .975-.697 1.533-1.533 1.533M12.266 27.18H1.533A1.547 1.547 0 0 1 0 25.647c0-.837.697-1.534 1.533-1.534h10.733c.836 0 1.533.697 1.533 1.534-.14.975-.697 1.533-1.533 1.533M14.914 32.058H1.534A1.547 1.547 0 0 1 0 30.525c0-.837.697-1.534 1.533-1.534h13.381c.836 0 1.533.697 1.533 1.534 0 .836-.697 1.533-1.533 1.533M25.926 32.058h-6.551a1.547 1.547 0 0 1-1.533-1.533c0-.837.697-1.534 1.533-1.534h6.551c.836 0 1.533.697 1.533 1.534 0 .836-.697 1.533-1.533 1.533M23.695 7.945H1.533A1.547 1.547 0 0 1 0 6.412c0-.837.697-1.534 1.533-1.534h22.162c.837 0 1.533.697 1.533 1.534-.139.836-.836 1.533-1.533 1.533" style="mix-blend-mode:passthrough"/></svg>