<svg xmlns="http://www.w3.org/2000/svg" width="32" height="32" fill="none" viewBox="0 0 34.531 32"><defs><linearGradient id="master_svg0_707_03961" x1=".5" x2=".5" y1="0" y2="1"><stop offset="0%" stop-color="#90b0ff"/><stop offset="100%" stop-color="#3069f9"/></linearGradient><linearGradient id="master_svg4_707_04355" x1=".159" x2=".999" y1=".117" y2=".937"><stop offset="0%" stop-color="#fff" stop-opacity=".25"/><stop offset="100%" stop-color="#fff" stop-opacity="0"/></linearGradient><linearGradient id="master_svg7_707_03219" x1=".929" x2=".235" y1=".181" y2="1.538"><stop offset="0%" stop-color="#fff"/><stop offset="100%" stop-color="#fff" stop-opacity=".2"/></linearGradient><linearGradient id="master_svg8_707_03262" x1=".159" x2=".557" y1=".117" y2="1.013"><stop offset="0%" stop-color="#fff" stop-opacity=".25"/><stop offset="100%" stop-color="#fff" stop-opacity="0"/></linearGradient><clipPath id="bgblur_master_svg2_715_10540_clip_path"><path d="M0 0h21.398v21.399H0z"/></clipPath><clipPath id="bgblur_master_svg3_715_10542_clip_path"><path d="M0 0h21.398v21.399H0z"/></clipPath><clipPath id="bgblur_master_svg6_715_10541_clip_path"><path d="M6.76.178a.91.91 0 0 1 .19 1.274L5.485 3.435h.889a.91.91 0 0 1 0 1.82H4.553v.911h1.82a.91.91 0 1 1 0 1.821h-1.82v.911a.91.91 0 0 1-1.821 0v-.91H.91a.91.91 0 1 1 0-1.822h1.82v-.91H.912a.91.91 0 0 1 0-1.821h.888L.334 1.452A.91.91 0 0 1 1.8.37l1.843 2.495L5.485.37A.91.91 0 0 1 6.76.178"/></clipPath><filter id="master_svg1_715_10539" width="3.386" height="3.361" x="-1.193" y="-1.181" color-interpolation-filters="sRGB" filterUnits="objectBoundingBox"><feFlood flood-opacity="0" result="BackgroundImageFix"/><feBlend in="SourceGraphic" in2="BackgroundImageFix" result="shape"/><feGaussianBlur result="effect1_foregroundBlur" stdDeviation="2.36"/></filter><filter id="master_svg5_715_10541" width="2.845" height="2.37" x="-.692" y="-.514" color-interpolation-filters="sRGB" filterUnits="objectBoundingBox"><feFlood flood-opacity="0" result="BackgroundImageFix"/><feColorMatrix in="SourceAlpha" values="0 0 0 0 0 0 0 0 0 0 0 0 0 0 0 0 0 0 127 0"/><feOffset dx="1.68" dy="1.68"/><feGaussianBlur stdDeviation="1.68"/><feColorMatrix values="0 0 0 0 0.1882352977991104 0 0 0 0 0.4117647111415863 0 0 0 0 0.9764705896377563 0 0 0 0.5 0"/><feBlend in2="BackgroundImageFix" result="effect1_dropShadow"/><feBlend in="SourceGraphic" in2="effect1_dropShadow" result="shape"/></filter></defs><path fill="url(#master_svg0_707_03961)" fill-rule="evenodd" d="M15.89 16.205c0-4.053 3.25-7.339 7.26-7.339 1.925 0 3.772.774 5.133 2.15a7.38 7.38 0 0 1 2.127 5.189c0 4.053-3.25 7.338-7.26 7.338s-7.26-3.285-7.26-7.338m14.402 5.91 2.162 1.746h.038a1.14 1.14 0 0 1 0 1.601 1.11 1.11 0 0 1-1.584 0l-1.795-2.056a.916.916 0 0 1 0-1.29.835.835 0 0 1 1.179 0" transform="rotate(15 15.89 8.866)"/><path fill="#3069f9" d="M23.151 12.207c-2.184 0-3.955 1.79-3.955 3.998s1.77 3.998 3.955 3.998 3.956-1.79 3.956-3.998a4.02 4.02 0 0 0-1.158-2.827 3.93 3.93 0 0 0-2.798-1.171" filter="url(#master_svg1_715_10539)" transform="rotate(15 15.89 8.866)"/><g transform="rotate(165 20.68 0)scale(1 -1)"><foreignObject width="21.398" height="21.399" x="20.997" y="2.401"><div xmlns="http://www.w3.org/1999/xhtml" style="backdrop-filter:blur(3.200000286102295px);-webkit-backdrop-filter:blur(3.200000286102295px);clip-path:url(#bgblur_master_svg2_715_10540_clip_path);height:100%;width:100%"/></foreignObject><foreignObject width="21.398" height="21.399" x="20.997" y="2.401"><div xmlns="http://www.w3.org/1999/xhtml" style="backdrop-filter:blur(3.200000286102295px);-webkit-backdrop-filter:blur(3.200000286102295px);clip-path:url(#bgblur_master_svg3_715_10542_clip_path);height:100%;width:100%"/></foreignObject><path fill="#3069f9" fill-opacity=".35" fill-rule="evenodd" d="M20.997 11.677c0-5.123 4.109-9.276 9.177-9.276 2.434 0 4.769.977 6.49 2.717a9.33 9.33 0 0 1 2.688 6.56c0 5.122-4.11 9.275-9.178 9.275s-9.177-4.153-9.177-9.276M39.2 19.15l2.733 2.207h.047a1.44 1.44 0 0 1 0 2.024 1.405 1.405 0 0 1-2.002 0l-2.268-2.6a1.157 1.157 0 0 1 0-1.63 1.055 1.055 0 0 1 1.49 0"/><path fill="url(#master_svg4_707_04355)" fill-rule="evenodd" d="M21.472 7.964q-.742 1.772-.742 3.713t.742 3.714q.717 1.712 2.023 3.033t3.002 2.046q1.755.75 3.677.75t3.677-.75q1.695-.725 3.002-2.046t2.024-3.033q.741-1.773.741-3.714 0-1.897-.718-3.65-.719-1.754-2.047-3.097T33.79 2.861t-3.615-.727q-1.922 0-3.677.75-1.695.725-3.002 2.046t-2.023 3.034M30.174 2.4c-5.068 0-9.177 4.153-9.177 9.276s4.109 9.276 9.177 9.276c5.069 0 9.178-4.153 9.178-9.276 0-2.46-.967-4.82-2.688-6.56a9.13 9.13 0 0 0-6.49-2.716m9.026 16.75a1.055 1.055 0 0 0-1.49 0 1.157 1.157 0 0 0 0 1.63l2.268 2.6c.553.559 1.45.559 2.002 0a1.44 1.44 0 0 0 0-2.024h-.047zm2.834 1.945q.08.016.136.073.492.497.492 1.2 0 .702-.492 1.2-.493.498-1.19.498-.699 0-1.192-.499-.006-.005-.011-.012l-2.263-2.593q-.406-.414-.406-.997 0-.588.412-1.003.39-.387.935-.387.537 0 .922.375z"/><foreignObject width="7.284" height="9.809" x="32.384" y="6.252"><div xmlns="http://www.w3.org/1999/xhtml" style="backdrop-filter:blur(2.5199995040893555px);-webkit-backdrop-filter:blur(2.5199995040893555px);clip-path:url(#bgblur_master_svg6_715_10541_clip_path);height:100%;width:100%"/></foreignObject><g fill-rule="evenodd" filter="url(#master_svg5_715_10541)" transform="rotate(165 31.561 0)scale(1 -1)"><path fill="url(#master_svg7_707_03219)" d="M39.143 6.43a.91.91 0 0 1 .192 1.274l-1.466 1.982h.89a.91.91 0 0 1 0 1.822h-1.822v.91h1.821a.91.91 0 1 1 0 1.821h-1.821v.91a.91.91 0 0 1-1.821 0v-.91h-1.821a.91.91 0 1 1 0-1.82h1.82v-.911h-1.82a.91.91 0 0 1 0-1.822h.888l-1.465-1.982a.91.91 0 0 1 1.465-1.082l1.843 2.494 1.843-2.494a.91.91 0 0 1 1.274-.192"/><path fill="url(#master_svg8_707_03262)" d="m39.335 7.704-1.466 1.982h.89a.91.91 0 0 1 0 1.822h-1.822v.91h1.821a.91.91 0 1 1 0 1.821h-1.821v.91a.91.91 0 0 1-1.821 0v-.91h-1.821a.91.91 0 1 1 0-1.82h1.821v-.911h-1.821a.91.91 0 0 1 0-1.822h.888l-.078-.106-1.387-1.876a.91.91 0 0 1 1.465-1.082l1.777 2.405.066.09.067-.09 1.776-2.405a.91.91 0 1 1 1.466 1.082m-.255-1.188q-.268-.198-.597-.149-.33.05-.528.318l-1.929 2.611-1.928-2.611q-.198-.268-.528-.317-.329-.05-.597.149-.267.198-.317.527t.148.597l1.59 2.152h-1.1q-.332 0-.568.236-.235.235-.235.568t.235.568.569.236h1.928v1.124h-1.928q-.333 0-.569.235-.235.236-.235.569t.235.568.569.236h1.928v1.017q0 .333.235.568.235.236.568.236t.569-.236.235-.568v-1.017h1.928q.333 0 .569-.236.235-.235.235-.568t-.235-.569-.569-.235H36.83V11.4h1.928q.333 0 .569-.236.235-.235.235-.568t-.235-.568q-.236-.236-.569-.236h-1.1l1.59-2.152q.199-.268.15-.598t-.318-.527"/></g></g></svg>