<svg xmlns="http://www.w3.org/2000/svg" width="36" height="36" fill="none" viewBox="0 0 36 36"><path fill="#06f" d="M0 8a8 8 0 0 1 8-8h20a8 8 0 0 1 8 8v20a8 8 0 0 1-8 8H8a8 8 0 0 1-8-8Z"/><path fill="#fff" fill-rule="evenodd" d="M18.664 18.977v.741h-3.705C13.477 29.197 9 27.175 9 27.175c4.106-3.22 4.184-7.457 4.184-7.457H9.108c0-1.698 1.528-1.667 1.528-1.667h2.748v-4.446h-1.482C11.347 16.106 9 15.983 9 15.983s.957-1.482 1.605-4.014c.649-2.532 2.625-2.254 2.625-2.254-.587 1.05-.865 2.254-.865 2.254h4.847c1.174 0 1.112.74 1.112.74v.865h-3.273v4.477h2.686c.989 0 .927.926.927.926m5.341 6.453H27V11.97h-7.719V25.43h1.884l.247 1.636zm-.371-1.668-1.39.988-.216-.957h-1.05V13.635h4.2v10.127zm-9.077-1.297 2.964 4.601c.98-1.53.32-2.636.31-2.655l-1.977-2.872z"/></svg>