<svg xmlns="http://www.w3.org/2000/svg" width="117" height="26" fill="none" viewBox="0 0 117 26"><path fill="#444" d="M27.64 1.243h2.26l-.34 1.583h2.6v1.922h-2.938l-.226 1.017h2.6v1.922h-.453c-.565 0-.904.452-.904.904v.34h1.583v1.921h-.679c-.565 0-.904.452-.904.905v.565c0 .226.113.452.452.452h1.13v1.922h-2.486c-.905 0-1.357-.34-1.357-1.13v-2.714h-1.47V8.93h1.47V7.687c-.226.113-.452.113-.678.113h-1.244zm4.747 2.148h1.017l-.678-2.148H35.1l.452 2.148h.791l.453-2.148h2.374l-.453 2.148h1.018v4.861c0 .792-.565 1.357-1.357 1.357v3.052c0 .226.113.34.452.34h1.357v1.92h-2.6c-.904 0-1.244-.338-1.244-1.13V9.61h-2.486c-1.13 0-1.357-.565-1.357-1.357V3.391zm1.243 6.896h2.035l-.904 3.957c-.113.452-.226.678-.452.678h-1.922zm4.07-2.6V5.313h-2.374c-.565 0-.904.452-.904.904v1.357H37.7zM46.857 11.417h-2.261c-1.017 0-1.922-.678-1.922-1.808v-2.94h11.757v2.94c0 1.017-.905 1.808-1.922 1.808h-1.13v1.244c0 .339.226.452.565.452h3.391v2.035h-4.974c-1.017 0-1.582-.453-1.582-1.244v-2.487h-1.922m7.913-9.835v1.922h-1.922l-.339 1.018h2.94v1.921H41.656V4.522h2.826l-.226-1.018h-1.922V1.582h4.748v-.565h2.826v.565zm-3.504 7.8h.678v-.79h-6.218a.486.486 0 0 0-.452.451v.34zm-4.41-4.86h3.166l.113-.34c.113-.339-.113-.678-.452-.678h-2.487c-.34 0-.565.34-.452.565zm-2.6 7.347h2.6l-.79 2.261q-.34 1.018-1.696 1.018h-1.357zM58.387 10.852H61.1l-.904 2.94q-.339 1.017-1.696 1.017h-1.356zM70.483 14.809h-1.357q-1.357 0-1.695-1.017l-.905-2.94h2.713z" style="mix-blend-mode:passthrough"/><path fill="#444" d="M70.709 8.026v2.26h-4.635c-.565 0-1.017.453-1.017 1.018v3.844h-2.6v-4.974H57.03V7.913h5.426v-.791h2.6v.791h5.652zM57.37 3.504h2.713L61.44 6.67h-2.261c-.34 0-.678-.226-.904-.792zM61.326 3.617h2.713l1.357 3.166h-2.261c-.34 0-.679-.226-.905-.792zM70.483 1.13c-.113.905-.339 1.13-.678 1.583-.339.34-.904.565-1.582.565H57.37V1.243h13.113zM67.657 3.391h2.713l-1.13 2.374c-.227.565-.566.904-1.13.904H65.96zM75.23 11.305h1.922l1.583 3.617h-1.017c-.792 0-1.244-.34-1.47-.904zM73.987 11.304H72.29V3.165c0-1.017.904-1.922 1.922-1.922h2.6c1.017 0 1.922.905 1.922 1.922v7.913h-1.922V3.165h-2.6v8.026h-.226z" style="mix-blend-mode:passthrough"/><path fill="#444" d="M74.439 9.496V4.07h2.035v6.104s0 1.357-.452 2.713c-.227.791-.905 2.148-1.81 2.148h-1.92s.677-.791 1.582-2.6c.565-1.13.565-2.713.565-2.94M80.092 1.13h2.6l-.226.679h3.843v11.53c0 1.244-.678 1.922-1.921 1.922h-2.713v-2.148h1.921c.34 0 .452-.113.452-.452V3.843h-2.487l-.113.453c-.113.339-.226.565-.452.678h1.357l-1.583 5.652h1.018q.339 0 .339-.339V8.139h1.695v2.94c0 .338-.113.565-.339.904-.339.339-.678.565-1.017.565h-3.618V11.19c0-.226 0-.452.113-.904l1.13-4.974h-1.469zM97.84 4.522h2.826L99.76 7.46q-.339 1.017-1.695 1.017h-1.583zM92.527 8.591h-1.81q-1.356 0-1.695-1.017l-.904-2.94h3.165z" style="mix-blend-mode:passthrough"/><path fill="#444" d="M101.23 1.13v2.261h-4.408c-.566 0-1.018.452-1.018 1.018v4.974h5.652v2.487h-4.634c-.566 0-1.018.452-1.018 1.017v2.26h-2.6V11.87h-5.539V9.383h5.54V3.39h-5.2v-2.26zM106.544 1.13h3.278l-3.391 4.07h7.008c.227 0 .34-.113.34-.226l-1.696-2.148h2.826s.791 1.017 1.243 1.809c.34.452.453.904.453 1.47v.339c0 .79-.566 1.243-1.583 1.243H104.17a1.013 1.013 0 0 1-1.018-1.017v-.566c0-.226.113-.565.227-.79zm-3.052 7.348h12.66v4.748c0 1.13-.904 1.922-1.921 1.922h-8.705c-1.13 0-1.921-.904-1.921-1.922V8.478zm9.27 4.409h.677v-2.035h-6.217c-.565 0-1.017.452-1.017 1.018V13h6.556z" style="mix-blend-mode:passthrough"/><path fill="#3069f9" d="M7.517 2.487H1.64A1.255 1.255 0 0 1 .395 1.243C.395.565.961 0 1.64 0h5.878c.678 0 1.244.565 1.244 1.243 0 .792-.566 1.244-1.244 1.244M15.882 2.487h-4.748a1.255 1.255 0 0 1-1.243-1.244C9.89.565 10.456 0 11.134 0h4.748c.678 0 1.244.565 1.244 1.243 0 .792-.566 1.244-1.244 1.244M19.613 10.4H8.195a1.255 1.255 0 0 1-1.243-1.243c0-.678.565-1.244 1.243-1.244h11.418c.678 0 1.243.566 1.243 1.244-.113.678-.678 1.243-1.243 1.243M4.578 10.4h-2.94A1.255 1.255 0 0 1 .396 9.157c0-.678.566-1.244 1.244-1.244h2.939c.678 0 1.243.566 1.243 1.244S5.256 10.4 4.578 10.4M15.882 14.244h-2.94A1.255 1.255 0 0 1 11.7 13c0-.678.566-1.243 1.244-1.243h2.94c.677 0 1.243.565 1.243 1.243s-.566 1.244-1.244 1.244M9.326 14.244H1.639A1.255 1.255 0 0 1 .395 13c0-.678.566-1.243 1.244-1.243h7.687c.678 0 1.243.565 1.243 1.243s-.565 1.244-1.243 1.244M11.587 18.2a1.255 1.255 0 0 1-1.243-1.243c0-.679.565-1.244 1.243-1.244s1.244.565 1.244 1.244c0 .678-.566 1.243-1.244 1.243M7.97 18.2H1.638a1.255 1.255 0 0 1-1.244-1.243c0-.679.566-1.244 1.244-1.244h6.33c.679 0 1.244.565 1.244 1.244 0 .678-.565 1.243-1.244 1.243M15.883 22.044H13.96a1.255 1.255 0 0 1-1.243-1.244c0-.678.565-1.243 1.243-1.243h1.922c.678 0 1.243.565 1.243 1.243 0 .791-.565 1.244-1.243 1.244M10.343 22.044H1.64A1.255 1.255 0 0 1 .395 20.8c0-.678.566-1.243 1.244-1.243h8.704c.678 0 1.244.565 1.244 1.243-.113.791-.566 1.244-1.244 1.244M12.491 26H1.639a1.255 1.255 0 0 1-1.244-1.244c0-.678.566-1.243 1.244-1.243H12.49c.678 0 1.244.565 1.244 1.243S13.169 26 12.49 26M21.422 26h-5.313a1.255 1.255 0 0 1-1.244-1.244c0-.678.566-1.243 1.244-1.243h5.313c.678 0 1.243.565 1.243 1.243S22.1 26 21.422 26M19.613 6.444H1.639A1.255 1.255 0 0 1 .395 5.2c0-.678.566-1.243 1.244-1.243h17.974c.678 0 1.243.565 1.243 1.243-.113.678-.678 1.244-1.243 1.244" style="mix-blend-mode:passthrough"/><path fill="#777" d="M27.639 19.33h1.243l.34 2.375.225 1.582c.113-.452.227-1.017.34-1.582l.565-2.374h1.017l.565 2.374.113.79c.113.453.113.68.113.792 0-.226 0-.452.114-.791l.113-.791.339-2.374h1.13l-.904 5.087h-1.583l-.452-2.261c-.113-.34-.113-.792-.226-1.13l-.226 1.13-.452 2.26h-1.47zM36.344 19.33h1.243l.34 2.375.226 1.582c.113-.452.226-1.017.339-1.582l.565-2.374h1.017l.566 2.374.113.79c.113.453.113.68.113.792 0-.226 0-.452.113-.791l.113-.791.339-2.374h1.13l-.904 5.087h-1.583l-.452-2.261c-.113-.34-.113-.792-.226-1.13l-.226 1.13-.452 2.26h-1.47zM45.048 19.33h1.243l.34 2.375.225 1.582c.113-.452.226-1.017.34-1.582l.565-2.374h1.017l.565 2.374.113.79c.113.453.113.68.113.792 0-.226 0-.452.114-.791l.113-.791.339-2.374h1.13l-.904 5.087h-1.583l-.452-2.261c-.113-.34-.113-.792-.226-1.13l-.226 1.13-.452 2.26h-1.47zM54.091 24.304a.86.86 0 0 1-.226-.565c0-.226.113-.339.226-.565a.86.86 0 0 1 .565-.226c.226 0 .34.113.566.226.113.113.226.34.226.565 0 .226-.113.34-.226.565a.86.86 0 0 1-.566.226c-.339 0-.452-.113-.565-.226M60.422 22.609h-.565v1.809h-1.244V19.33h1.809c1.356 0 2.035.565 2.035 1.582 0 .679-.34 1.244-.905 1.47l1.13 2.035h-1.356zm0-.904c.565 0 .904-.226.904-.679 0-.452-.339-.678-.904-.678h-.565v1.357zM65.283 23.626l.791-.565c.226.34.452.452.679.452.226 0 .339-.113.452-.226s.113-.339.113-.678v-3.278h1.243v3.391c0 .565-.113.904-.452 1.243-.34.34-.678.566-1.243.566-.679 0-1.244-.34-1.583-.905M72.066 19.33h1.356l.791 2.149c0 .113.113.226.113.452l.114.452c0-.113.113-.226.113-.452.113-.226.113-.34.113-.452l.79-2.148h1.357v5.087h-1.13v-1.696c0-.34 0-1.017.113-1.809l-.452 1.244-.678 1.808h-.679l-.678-1.808-.452-1.244c.113.905.113 1.47.113 1.809v1.696h-1.13V19.33zM81.222 19.33h1.47l1.582 5.088h-1.243l-.34-1.13h-1.47l-.338 1.13h-1.244zm1.243 3.053-.565-2.035c-.226.791-.339 1.357-.339 1.583l-.113.452zM88.91 22.609h-.566v1.809H87.1V19.33h1.81c1.356 0 2.034.565 2.034 1.582 0 .679-.34 1.244-.905 1.47l1.13 2.035h-1.356zm0-.904c.564 0 .903-.226.903-.679 0-.452-.339-.678-.904-.678h-.565v1.357zM95.126 20.348H93.77v-1.017h3.956v1.017H96.37v4.07h-1.244zM99.987 24.304a.86.86 0 0 1-.226-.565c0-.226.113-.339.226-.565a.86.86 0 0 1 .565-.226c.226 0 .34.113.565.226.113.113.226.34.226.565 0 .226-.113.34-.226.565a.86.86 0 0 1-.565.226.86.86 0 0 1-.565-.226M105.074 23.852c-.452-.452-.678-1.13-.678-1.921s.226-1.47.678-1.922q.678-.678 1.696-.678c.565 0 1.13.226 1.582.678l-.678.791c-.34-.226-.565-.339-.904-.339s-.566.113-.792.452a1.9 1.9 0 0 0-.339 1.13c0 .453.113.905.34 1.131.225.226.451.452.904.452.339 0 .678-.113 1.017-.452l.678.791c-.452.453-1.017.792-1.695.792-.792-.226-1.357-.452-1.81-.905M111.518 19.33h1.243l1.244 2.488.452 1.13c-.113-.904-.113-1.583-.113-1.922v-1.695h1.13v5.087h-1.243l-1.244-2.487-.452-1.13c.113 1.13.113 1.695.113 1.921v1.696h-1.13z" style="mix-blend-mode:passthrough"/></svg>