<svg xmlns="http://www.w3.org/2000/svg" width="12" height="12" fill="none" viewBox="0 0 12 12"><path fill="#fff" fill-rule="evenodd" d="M4.518 1.446q-.105-.106-.243-.163t-.287-.057q-.074 0-.146.014-.073.015-.141.043t-.13.07q-.061.04-.113.093-.053.052-.094.113-.04.062-.069.13-.028.068-.043.14t-.014.147q0 .149.057.287t.163.243L6.95 6 3.458 9.494q-.106.105-.163.243t-.057.287q0 .074.014.147.015.072.043.14t.07.13q.04.061.093.113.052.053.113.094.062.04.13.069.068.028.14.043t.147.014q.149 0 .287-.057t.243-.163L8.5 6.574q.237-.237.237-.573T8.5 5.427z"/></svg>