<svg xmlns="http://www.w3.org/2000/svg" width="462" height="1188" fill="none" viewBox="0 0 1188 462"><g fill="#0c0d0e" fill-opacity=".3" fill-rule="evenodd"><path d="M1039.25 0v.996h.5V0zm0 2.987v1.991h.5v-1.99zm0 3.983V8.96h.5V6.97zm0 3.983v1.991h.5v-1.991zm0 3.982v1.992h.5v-1.992zm0 3.983v1.991h.5v-1.99zm0 3.983v1.991h.5v-1.991zm0 3.983v1.991h.5v-1.991zm0 3.982v1.992h.5v-1.992zm0 3.983v1.992h.5v-1.992zm0 3.983v1.991h.5v-1.991zm0 3.983v1.991h.5v-1.991zm0 3.982v1.992h.5v-1.992zm0 3.983v1.992h.5V50.78zm0 3.983v1.991h.5v-1.991zm0 3.983v1.991h.5v-1.991zm0 3.982v1.992h.5v-1.992zm0 3.983v1.992h.5V66.71zm0 3.983v1.991h.5v-1.991zm0 3.983v1.991h.5v-1.991zm0 3.982v1.992h.5v-1.992zm0 3.983v1.992h.5v-1.992zm0 3.983v1.991h.5v-1.991zm0 3.983v1.991h.5v-1.991zm0 3.983v1.99h.5v-1.99zm0 3.982v1.992h.5v-1.992zm0 3.983v1.991h.5v-1.991zm0 3.983v1.991h.5v-1.991zm0 3.983v1.99h.5v-1.99zm0 3.982v1.992h.5v-1.992zm0 3.983v1.991h.5v-1.99zm0 3.983v1.991h.5v-1.991zm0 3.983v1.991h.5v-1.991zm0 3.982v1.992h.5v-1.992zm0 3.983v1.991h.5v-1.99zm0 3.983v1.991h.5v-1.991zm0 3.983v1.991h.5v-1.991zm0 3.982v1.992h.5v-1.992zm0 3.983v1.992h.5v-1.992zm0 3.983v1.991h.5v-1.991zm0 3.983v1.991h.5v-1.991zm0 3.982v1.992h.5v-1.992zm0 3.983v1.992h.5v-1.992zm0 3.983v1.991h.5v-1.991zm0 3.983v1.991h.5v-1.991zm0 3.982v1.992h.5v-1.992zm0 3.983v1.992h.5v-1.992zm0 3.983v1.991h.5v-1.991zm0 3.983v1.991h.5v-1.991zm0 3.982v1.992h.5v-1.992zm0 3.983v1.992h.5v-1.992zm0 3.983v1.991h.5v-1.991zm0 3.983v1.991h.5v-1.991zm0 3.983v1.99h.5v-1.99zm0 3.982v1.992h.5v-1.992zm0 3.983v1.991h.5v-1.991zm0 3.983v1.991h.5v-1.991zm0 3.983v1.99h.5v-1.99zm0 3.982v1.992h.5v-1.992zm0 3.983v1.991h.5v-1.99zm0 3.983v1.991h.5v-1.991zm0 3.983v1.991h.5v-1.991zm0 3.982v1.992h.5v-1.992zm0 3.983v1.991h.5v-1.99zm0 3.983v1.991h.5v-1.991zm0 3.983v1.991h.5v-1.991zm0 3.982v1.992h.5v-1.992zm0 3.983v1.992h.5v-1.992zm0 3.983v1.991h.5v-1.991zm0 3.983v1.991h.5v-1.991zm0 3.982v1.992h.5v-1.992zm0 3.983v1.992h.5v-1.992zm0 3.983v1.991h.5v-1.991zm0 3.983v1.991h.5v-1.991zm0 3.982v1.992h.5v-1.992zm0 3.983v1.992h.5v-1.992zm0 3.983v1.991h.5v-1.991zm0 3.983v1.991h.5v-1.991zm0 3.982v1.992h.5v-1.992zm0 3.983v1.992h.5v-1.992zm0 3.983v1.991h.5v-1.991zm0 3.983v1.991h.5v-1.991zm0 3.983v1.99h.5v-1.99zm0 3.982v1.992h.5v-1.992zm0 3.983v1.991h.5v-1.991zm0 3.983v1.991h.5v-1.991zm0 3.983v1.99h.5v-1.99zm0 3.982v1.992h.5v-1.992zm0 3.983v1.991h.5v-1.99zm0 3.983v1.991h.5v-1.991zm0 3.983v1.991h.5v-1.991zm0 3.982v1.992h.5v-1.992zm0 3.983v1.991h.5v-1.99zm0 3.983v1.991h.5v-1.991zm0 3.983v1.991h.5v-1.991zm0 3.982v1.992h.5v-1.992zm0 3.983v1.992h.5v-1.992zm0 3.983v1.991h.5v-1.991zm0 3.983v1.991h.5v-1.991zm0 3.982v1.992h.5v-1.992zm0 3.983v1.992h.5v-1.992zm0 3.983v1.991h.5v-1.991zm0 3.983v1.991h.5v-1.991zm0 3.982v1.992h.5v-1.992zm0 3.983v1.992h.5v-1.992zm0 3.983v1.991h.5v-1.991zm0 3.983v1.991h.5v-1.991zm0 3.982v1.992h.5v-1.992zm0 3.983v1.992h.5v-1.992zm0 3.983v1.991h.5v-1.991zm0 3.983v1.991h.5v-1.991zm0 3.983v1.99h.5v-1.99zm0 3.982v1.992h.5v-1.992zm0 3.983v1.991h.5v-1.991zm0 3.983v1.991h.5v-1.991zm0 3.983v1.99h.5v-1.99zm0 3.982V462h.5v-.996zM890.75 0v.996h.5V0zm0 2.987v1.991h.5v-1.99zm0 3.983V8.96h.5V6.97zm0 3.983v1.991h.5v-1.991zm0 3.982v1.992h.5v-1.992zm0 3.983v1.991h.5v-1.99zm0 3.983v1.991h.5v-1.991zm0 3.983v1.991h.5v-1.991zm0 3.982v1.992h.5v-1.992zm0 3.983v1.992h.5v-1.992zm0 3.983v1.991h.5v-1.991zm0 3.983v1.991h.5v-1.991zm0 3.982v1.992h.5v-1.992zm0 3.983v1.992h.5V50.78zm0 3.983v1.991h.5v-1.991zm0 3.983v1.991h.5v-1.991zm0 3.982v1.992h.5v-1.992zm0 3.983v1.992h.5V66.71zm0 3.983v1.991h.5v-1.991zm0 3.983v1.991h.5v-1.991zm0 3.982v1.992h.5v-1.992zm0 3.983v1.992h.5v-1.992zm0 3.983v1.991h.5v-1.991zm0 3.983v1.991h.5v-1.991zm0 3.983v1.99h.5v-1.99zm0 3.982v1.992h.5v-1.992zm0 3.983v1.991h.5v-1.991zm0 3.983v1.991h.5v-1.991zm0 3.983v1.99h.5v-1.99zm0 3.982v1.992h.5v-1.992zm0 3.983v1.991h.5v-1.99zm0 3.983v1.991h.5v-1.991zm0 3.983v1.991h.5v-1.991zm0 3.982v1.992h.5v-1.992zm0 3.983v1.991h.5v-1.99zm0 3.983v1.991h.5v-1.991zm0 3.983v1.991h.5v-1.991zm0 3.982v1.992h.5v-1.992zm0 3.983v1.992h.5v-1.992zm0 3.983v1.991h.5v-1.991zm0 3.983v1.991h.5v-1.991zm0 3.982v1.992h.5v-1.992zm0 3.983v1.992h.5v-1.992zm0 3.983v1.991h.5v-1.991zm0 3.983v1.991h.5v-1.991zm0 3.982v1.992h.5v-1.992zm0 3.983v1.992h.5v-1.992zm0 3.983v1.991h.5v-1.991zm0 3.983v1.991h.5v-1.991zm0 3.982v1.992h.5v-1.992zm0 3.983v1.992h.5v-1.992zm0 3.983v1.991h.5v-1.991zm0 3.983v1.991h.5v-1.991zm0 3.983v1.99h.5v-1.99zm0 3.982v1.992h.5v-1.992zm0 3.983v1.991h.5v-1.991zm0 3.983v1.991h.5v-1.991zm0 3.983v1.99h.5v-1.99zm0 3.982v1.992h.5v-1.992zm0 3.983v1.991h.5v-1.99zm0 3.983v1.991h.5v-1.991zm0 3.983v1.991h.5v-1.991zm0 3.982v1.992h.5v-1.992zm0 3.983v1.991h.5v-1.99zm0 3.983v1.991h.5v-1.991zm0 3.983v1.991h.5v-1.991zm0 3.982v1.992h.5v-1.992zm0 3.983v1.992h.5v-1.992zm0 3.983v1.991h.5v-1.991zm0 3.983v1.991h.5v-1.991zm0 3.982v1.992h.5v-1.992zm0 3.983v1.992h.5v-1.992zm0 3.983v1.991h.5v-1.991zm0 3.983v1.991h.5v-1.991zm0 3.982v1.992h.5v-1.992zm0 3.983v1.992h.5v-1.992zm0 3.983v1.991h.5v-1.991zm0 3.983v1.991h.5v-1.991zm0 3.982v1.992h.5v-1.992zm0 3.983v1.992h.5v-1.992zm0 3.983v1.991h.5v-1.991zm0 3.983v1.991h.5v-1.991zm0 3.983v1.99h.5v-1.99zm0 3.982v1.992h.5v-1.992zm0 3.983v1.991h.5v-1.991zm0 3.983v1.991h.5v-1.991zm0 3.983v1.99h.5v-1.99zm0 3.982v1.992h.5v-1.992zm0 3.983v1.991h.5v-1.99zm0 3.983v1.991h.5v-1.991zm0 3.983v1.991h.5v-1.991zm0 3.982v1.992h.5v-1.992zm0 3.983v1.991h.5v-1.99zm0 3.983v1.991h.5v-1.991zm0 3.983v1.991h.5v-1.991zm0 3.982v1.992h.5v-1.992zm0 3.983v1.992h.5v-1.992zm0 3.983v1.991h.5v-1.991zm0 3.983v1.991h.5v-1.991zm0 3.982v1.992h.5v-1.992zm0 3.983v1.992h.5v-1.992zm0 3.983v1.991h.5v-1.991zm0 3.983v1.991h.5v-1.991zm0 3.982v1.992h.5v-1.992zm0 3.983v1.992h.5v-1.992zm0 3.983v1.991h.5v-1.991zm0 3.983v1.991h.5v-1.991zm0 3.982v1.992h.5v-1.992zm0 3.983v1.992h.5v-1.992zm0 3.983v1.991h.5v-1.991zm0 3.983v1.991h.5v-1.991zm0 3.983v1.99h.5v-1.99zm0 3.982v1.992h.5v-1.992zm0 3.983v1.991h.5v-1.991zm0 3.983v1.991h.5v-1.991zm0 3.983v1.99h.5v-1.99zm0 3.982V462h.5v-.996zM742.25 0v.996h.5V0zm0 2.987v1.991h.5v-1.99zm0 3.983V8.96h.5V6.97zm0 3.983v1.991h.5v-1.991zm0 3.982v1.992h.5v-1.992zm0 3.983v1.991h.5v-1.99zm0 3.983v1.991h.5v-1.991zm0 3.983v1.991h.5v-1.991zm0 3.982v1.992h.5v-1.992zm0 3.983v1.992h.5v-1.992zm0 3.983v1.991h.5v-1.991zm0 3.983v1.991h.5v-1.991zm0 3.982v1.992h.5v-1.992zm0 3.983v1.992h.5V50.78zm0 3.983v1.991h.5v-1.991zm0 3.983v1.991h.5v-1.991zm0 3.982v1.992h.5v-1.992zm0 3.983v1.992h.5V66.71zm0 3.983v1.991h.5v-1.991zm0 3.983v1.991h.5v-1.991zm0 3.982v1.992h.5v-1.992zm0 3.983v1.992h.5v-1.992zm0 3.983v1.991h.5v-1.991zm0 3.983v1.991h.5v-1.991zm0 3.983v1.99h.5v-1.99zm0 3.982v1.992h.5v-1.992zm0 3.983v1.991h.5v-1.991zm0 3.983v1.991h.5v-1.991zm0 3.983v1.99h.5v-1.99zm0 3.982v1.992h.5v-1.992zm0 3.983v1.991h.5v-1.99zm0 3.983v1.991h.5v-1.991zm0 3.983v1.991h.5v-1.991zm0 3.982v1.992h.5v-1.992zm0 3.983v1.991h.5v-1.99zm0 3.983v1.991h.5v-1.991zm0 3.983v1.991h.5v-1.991zm0 3.982v1.992h.5v-1.992zm0 3.983v1.992h.5v-1.992zm0 3.983v1.991h.5v-1.991zm0 3.983v1.991h.5v-1.991zm0 3.982v1.992h.5v-1.992zm0 3.983v1.992h.5v-1.992zm0 3.983v1.991h.5v-1.991zm0 3.983v1.991h.5v-1.991zm0 3.982v1.992h.5v-1.992zm0 3.983v1.992h.5v-1.992zm0 3.983v1.991h.5v-1.991zm0 3.983v1.991h.5v-1.991zm0 3.982v1.992h.5v-1.992zm0 3.983v1.992h.5v-1.992zm0 3.983v1.991h.5v-1.991zm0 3.983v1.991h.5v-1.991zm0 3.983v1.99h.5v-1.99zm0 3.982v1.992h.5v-1.992zm0 3.983v1.991h.5v-1.991zm0 3.983v1.991h.5v-1.991zm0 3.983v1.99h.5v-1.99zm0 3.982v1.992h.5v-1.992zm0 3.983v1.991h.5v-1.99zm0 3.983v1.991h.5v-1.991zm0 3.983v1.991h.5v-1.991zm0 3.982v1.992h.5v-1.992zm0 3.983v1.991h.5v-1.99zm0 3.983v1.991h.5v-1.991zm0 3.983v1.991h.5v-1.991zm0 3.982v1.992h.5v-1.992zm0 3.983v1.992h.5v-1.992zm0 3.983v1.991h.5v-1.991zm0 3.983v1.991h.5v-1.991zm0 3.982v1.992h.5v-1.992zm0 3.983v1.992h.5v-1.992zm0 3.983v1.991h.5v-1.991zm0 3.983v1.991h.5v-1.991zm0 3.982v1.992h.5v-1.992zm0 3.983v1.992h.5v-1.992zm0 3.983v1.991h.5v-1.991zm0 3.983v1.991h.5v-1.991zm0 3.982v1.992h.5v-1.992zm0 3.983v1.992h.5v-1.992zm0 3.983v1.991h.5v-1.991zm0 3.983v1.991h.5v-1.991zm0 3.983v1.99h.5v-1.99zm0 3.982v1.992h.5v-1.992zm0 3.983v1.991h.5v-1.991zm0 3.983v1.991h.5v-1.991zm0 3.983v1.99h.5v-1.99zm0 3.982v1.992h.5v-1.992zm0 3.983v1.991h.5v-1.99zm0 3.983v1.991h.5v-1.991zm0 3.983v1.991h.5v-1.991zm0 3.982v1.992h.5v-1.992zm0 3.983v1.991h.5v-1.99zm0 3.983v1.991h.5v-1.991zm0 3.983v1.991h.5v-1.991zm0 3.982v1.992h.5v-1.992zm0 3.983v1.992h.5v-1.992zm0 3.983v1.991h.5v-1.991zm0 3.983v1.991h.5v-1.991zm0 3.982v1.992h.5v-1.992zm0 3.983v1.992h.5v-1.992zm0 3.983v1.991h.5v-1.991zm0 3.983v1.991h.5v-1.991zm0 3.982v1.992h.5v-1.992zm0 3.983v1.992h.5v-1.992zm0 3.983v1.991h.5v-1.991zm0 3.983v1.991h.5v-1.991zm0 3.982v1.992h.5v-1.992zm0 3.983v1.992h.5v-1.992zm0 3.983v1.991h.5v-1.991zm0 3.983v1.991h.5v-1.991zm0 3.983v1.99h.5v-1.99zm0 3.982v1.992h.5v-1.992zm0 3.983v1.991h.5v-1.991zm0 3.983v1.991h.5v-1.991zm0 3.983v1.99h.5v-1.99zm0 3.982V462h.5v-.996zM593.75 0v.996h.5V0zm0 2.987v1.991h.5v-1.99zm0 3.983V8.96h.5V6.97zm0 3.983v1.991h.5v-1.991zm0 3.982v1.992h.5v-1.992zm0 3.983v1.991h.5v-1.99zm0 3.983v1.991h.5v-1.991zm0 3.983v1.991h.5v-1.991zm0 3.982v1.992h.5v-1.992zm0 3.983v1.992h.5v-1.992zm0 3.983v1.991h.5v-1.991zm0 3.983v1.991h.5v-1.991zm0 3.982v1.992h.5v-1.992zm0 3.983v1.992h.5V50.78zm0 3.983v1.991h.5v-1.991zm0 3.983v1.991h.5v-1.991zm0 3.982v1.992h.5v-1.992zm0 3.983v1.992h.5V66.71zm0 3.983v1.991h.5v-1.991zm0 3.983v1.991h.5v-1.991zm0 3.982v1.992h.5v-1.992zm0 3.983v1.992h.5v-1.992zm0 3.983v1.991h.5v-1.991zm0 3.983v1.991h.5v-1.991zm0 3.983v1.99h.5v-1.99zm0 3.982v1.992h.5v-1.992zm0 3.983v1.991h.5v-1.991zm0 3.983v1.991h.5v-1.991zm0 3.983v1.99h.5v-1.99zm0 3.982v1.992h.5v-1.992zm0 3.983v1.991h.5v-1.99zm0 3.983v1.991h.5v-1.991zm0 3.983v1.991h.5v-1.991zm0 3.982v1.992h.5v-1.992zm0 3.983v1.991h.5v-1.99zm0 3.983v1.991h.5v-1.991zm0 3.983v1.991h.5v-1.991zm0 3.982v1.992h.5v-1.992zm0 3.983v1.992h.5v-1.992zm0 3.983v1.991h.5v-1.991zm0 3.983v1.991h.5v-1.991zm0 3.982v1.992h.5v-1.992zm0 3.983v1.992h.5v-1.992zm0 3.983v1.991h.5v-1.991zm0 3.983v1.991h.5v-1.991zm0 3.982v1.992h.5v-1.992zm0 3.983v1.992h.5v-1.992zm0 3.983v1.991h.5v-1.991zm0 3.983v1.991h.5v-1.991zm0 3.982v1.992h.5v-1.992zm0 3.983v1.992h.5v-1.992zm0 3.983v1.991h.5v-1.991zm0 3.983v1.991h.5v-1.991zm0 3.983v1.99h.5v-1.99zm0 3.982v1.992h.5v-1.992zm0 3.983v1.991h.5v-1.991zm0 3.983v1.991h.5v-1.991zm0 3.983v1.99h.5v-1.99zm0 3.982v1.992h.5v-1.992zm0 3.983v1.991h.5v-1.99zm0 3.983v1.991h.5v-1.991zm0 3.983v1.991h.5v-1.991zm0 3.982v1.992h.5v-1.992zm0 3.983v1.991h.5v-1.99zm0 3.983v1.991h.5v-1.991zm0 3.983v1.991h.5v-1.991zm0 3.982v1.992h.5v-1.992zm0 3.983v1.992h.5v-1.992zm0 3.983v1.991h.5v-1.991zm0 3.983v1.991h.5v-1.991zm0 3.982v1.992h.5v-1.992zm0 3.983v1.992h.5v-1.992zm0 3.983v1.991h.5v-1.991zm0 3.983v1.991h.5v-1.991zm0 3.982v1.992h.5v-1.992zm0 3.983v1.992h.5v-1.992zm0 3.983v1.991h.5v-1.991zm0 3.983v1.991h.5v-1.991zm0 3.982v1.992h.5v-1.992zm0 3.983v1.992h.5v-1.992zm0 3.983v1.991h.5v-1.991zm0 3.983v1.991h.5v-1.991zm0 3.983v1.99h.5v-1.99zm0 3.982v1.992h.5v-1.992zm0 3.983v1.991h.5v-1.991zm0 3.983v1.991h.5v-1.991zm0 3.983v1.99h.5v-1.99zm0 3.982v1.992h.5v-1.992zm0 3.983v1.991h.5v-1.99zm0 3.983v1.991h.5v-1.991zm0 3.983v1.991h.5v-1.991zm0 3.982v1.992h.5v-1.992zm0 3.983v1.991h.5v-1.99zm0 3.983v1.991h.5v-1.991zm0 3.983v1.991h.5v-1.991zm0 3.982v1.992h.5v-1.992zm0 3.983v1.992h.5v-1.992zm0 3.983v1.991h.5v-1.991zm0 3.983v1.991h.5v-1.991zm0 3.982v1.992h.5v-1.992zm0 3.983v1.992h.5v-1.992zm0 3.983v1.991h.5v-1.991zm0 3.983v1.991h.5v-1.991zm0 3.982v1.992h.5v-1.992zm0 3.983v1.992h.5v-1.992zm0 3.983v1.991h.5v-1.991zm0 3.983v1.991h.5v-1.991zm0 3.982v1.992h.5v-1.992zm0 3.983v1.992h.5v-1.992zm0 3.983v1.991h.5v-1.991zm0 3.983v1.991h.5v-1.991zm0 3.983v1.99h.5v-1.99zm0 3.982v1.992h.5v-1.992zm0 3.983v1.991h.5v-1.991zm0 3.983v1.991h.5v-1.991zm0 3.983v1.99h.5v-1.99zm0 3.982V462h.5v-.996zM445.25 0v.996h.5V0zm0 2.987v1.991h.5v-1.99zm0 3.983V8.96h.5V6.97zm0 3.983v1.991h.5v-1.991zm0 3.982v1.992h.5v-1.992zm0 3.983v1.991h.5v-1.99zm0 3.983v1.991h.5v-1.991zm0 3.983v1.991h.5v-1.991zm0 3.982v1.992h.5v-1.992zm0 3.983v1.992h.5v-1.992zm0 3.983v1.991h.5v-1.991zm0 3.983v1.991h.5v-1.991zm0 3.982v1.992h.5v-1.992zm0 3.983v1.992h.5V50.78zm0 3.983v1.991h.5v-1.991zm0 3.983v1.991h.5v-1.991zm0 3.982v1.992h.5v-1.992zm0 3.983v1.992h.5V66.71zm0 3.983v1.991h.5v-1.991zm0 3.983v1.991h.5v-1.991zm0 3.982v1.992h.5v-1.992zm0 3.983v1.992h.5v-1.992zm0 3.983v1.991h.5v-1.991zm0 3.983v1.991h.5v-1.991zm0 3.983v1.99h.5v-1.99zm0 3.982v1.992h.5v-1.992zm0 3.983v1.991h.5v-1.991zm0 3.983v1.991h.5v-1.991zm0 3.983v1.99h.5v-1.99zm0 3.982v1.992h.5v-1.992zm0 3.983v1.991h.5v-1.99zm0 3.983v1.991h.5v-1.991zm0 3.983v1.991h.5v-1.991zm0 3.982v1.992h.5v-1.992zm0 3.983v1.991h.5v-1.99zm0 3.983v1.991h.5v-1.991zm0 3.983v1.991h.5v-1.991zm0 3.982v1.992h.5v-1.992zm0 3.983v1.992h.5v-1.992zm0 3.983v1.991h.5v-1.991zm0 3.983v1.991h.5v-1.991zm0 3.982v1.992h.5v-1.992zm0 3.983v1.992h.5v-1.992zm0 3.983v1.991h.5v-1.991zm0 3.983v1.991h.5v-1.991zm0 3.982v1.992h.5v-1.992zm0 3.983v1.992h.5v-1.992zm0 3.983v1.991h.5v-1.991zm0 3.983v1.991h.5v-1.991zm0 3.982v1.992h.5v-1.992zm0 3.983v1.992h.5v-1.992zm0 3.983v1.991h.5v-1.991zm0 3.983v1.991h.5v-1.991zm0 3.983v1.99h.5v-1.99zm0 3.982v1.992h.5v-1.992zm0 3.983v1.991h.5v-1.991zm0 3.983v1.991h.5v-1.991zm0 3.983v1.99h.5v-1.99zm0 3.982v1.992h.5v-1.992zm0 3.983v1.991h.5v-1.99zm0 3.983v1.991h.5v-1.991zm0 3.983v1.991h.5v-1.991zm0 3.982v1.992h.5v-1.992zm0 3.983v1.991h.5v-1.99zm0 3.983v1.991h.5v-1.991zm0 3.983v1.991h.5v-1.991zm0 3.982v1.992h.5v-1.992zm0 3.983v1.992h.5v-1.992zm0 3.983v1.991h.5v-1.991zm0 3.983v1.991h.5v-1.991zm0 3.982v1.992h.5v-1.992zm0 3.983v1.992h.5v-1.992zm0 3.983v1.991h.5v-1.991zm0 3.983v1.991h.5v-1.991zm0 3.982v1.992h.5v-1.992zm0 3.983v1.992h.5v-1.992zm0 3.983v1.991h.5v-1.991zm0 3.983v1.991h.5v-1.991zm0 3.982v1.992h.5v-1.992zm0 3.983v1.992h.5v-1.992zm0 3.983v1.991h.5v-1.991zm0 3.983v1.991h.5v-1.991zm0 3.983v1.99h.5v-1.99zm0 3.982v1.992h.5v-1.992zm0 3.983v1.991h.5v-1.991zm0 3.983v1.991h.5v-1.991zm0 3.983v1.99h.5v-1.99zm0 3.982v1.992h.5v-1.992zm0 3.983v1.991h.5v-1.99zm0 3.983v1.991h.5v-1.991zm0 3.983v1.991h.5v-1.991zm0 3.982v1.992h.5v-1.992zm0 3.983v1.991h.5v-1.99zm0 3.983v1.991h.5v-1.991zm0 3.983v1.991h.5v-1.991zm0 3.982v1.992h.5v-1.992zm0 3.983v1.992h.5v-1.992zm0 3.983v1.991h.5v-1.991zm0 3.983v1.991h.5v-1.991zm0 3.982v1.992h.5v-1.992zm0 3.983v1.992h.5v-1.992zm0 3.983v1.991h.5v-1.991zm0 3.983v1.991h.5v-1.991zm0 3.982v1.992h.5v-1.992zm0 3.983v1.992h.5v-1.992zm0 3.983v1.991h.5v-1.991zm0 3.983v1.991h.5v-1.991zm0 3.982v1.992h.5v-1.992zm0 3.983v1.992h.5v-1.992zm0 3.983v1.991h.5v-1.991zm0 3.983v1.991h.5v-1.991zm0 3.983v1.99h.5v-1.99zm0 3.982v1.992h.5v-1.992zm0 3.983v1.991h.5v-1.991zm0 3.983v1.991h.5v-1.991zm0 3.983v1.99h.5v-1.99zm0 3.982V462h.5v-.996zM296.75 0v.996h.5V0zm0 2.987v1.991h.5v-1.99zm0 3.983V8.96h.5V6.97zm0 3.983v1.991h.5v-1.991zm0 3.982v1.992h.5v-1.992zm0 3.983v1.991h.5v-1.99zm0 3.983v1.991h.5v-1.991zm0 3.983v1.991h.5v-1.991zm0 3.982v1.992h.5v-1.992zm0 3.983v1.992h.5v-1.992zm0 3.983v1.991h.5v-1.991zm0 3.983v1.991h.5v-1.991zm0 3.982v1.992h.5v-1.992zm0 3.983v1.992h.5V50.78zm0 3.983v1.991h.5v-1.991zm0 3.983v1.991h.5v-1.991zm0 3.982v1.992h.5v-1.992zm0 3.983v1.992h.5V66.71zm0 3.983v1.991h.5v-1.991zm0 3.983v1.991h.5v-1.991zm0 3.982v1.992h.5v-1.992zm0 3.983v1.992h.5v-1.992zm0 3.983v1.991h.5v-1.991zm0 3.983v1.991h.5v-1.991zm0 3.983v1.99h.5v-1.99zm0 3.982v1.992h.5v-1.992zm0 3.983v1.991h.5v-1.991zm0 3.983v1.991h.5v-1.991zm0 3.983v1.99h.5v-1.99zm0 3.982v1.992h.5v-1.992zm0 3.983v1.991h.5v-1.99zm0 3.983v1.991h.5v-1.991zm0 3.983v1.991h.5v-1.991zm0 3.982v1.992h.5v-1.992zm0 3.983v1.991h.5v-1.99zm0 3.983v1.991h.5v-1.991zm0 3.983v1.991h.5v-1.991zm0 3.982v1.992h.5v-1.992zm0 3.983v1.992h.5v-1.992zm0 3.983v1.991h.5v-1.991zm0 3.983v1.991h.5v-1.991zm0 3.982v1.992h.5v-1.992zm0 3.983v1.992h.5v-1.992zm0 3.983v1.991h.5v-1.991zm0 3.983v1.991h.5v-1.991zm0 3.982v1.992h.5v-1.992zm0 3.983v1.992h.5v-1.992zm0 3.983v1.991h.5v-1.991zm0 3.983v1.991h.5v-1.991zm0 3.982v1.992h.5v-1.992zm0 3.983v1.992h.5v-1.992zm0 3.983v1.991h.5v-1.991zm0 3.983v1.991h.5v-1.991zm0 3.983v1.99h.5v-1.99zm0 3.982v1.992h.5v-1.992zm0 3.983v1.991h.5v-1.991zm0 3.983v1.991h.5v-1.991zm0 3.983v1.99h.5v-1.99zm0 3.982v1.992h.5v-1.992zm0 3.983v1.991h.5v-1.99zm0 3.983v1.991h.5v-1.991zm0 3.983v1.991h.5v-1.991zm0 3.982v1.992h.5v-1.992zm0 3.983v1.991h.5v-1.99zm0 3.983v1.991h.5v-1.991zm0 3.983v1.991h.5v-1.991zm0 3.982v1.992h.5v-1.992zm0 3.983v1.992h.5v-1.992zm0 3.983v1.991h.5v-1.991zm0 3.983v1.991h.5v-1.991zm0 3.982v1.992h.5v-1.992zm0 3.983v1.992h.5v-1.992zm0 3.983v1.991h.5v-1.991zm0 3.983v1.991h.5v-1.991zm0 3.982v1.992h.5v-1.992zm0 3.983v1.992h.5v-1.992zm0 3.983v1.991h.5v-1.991zm0 3.983v1.991h.5v-1.991zm0 3.982v1.992h.5v-1.992zm0 3.983v1.992h.5v-1.992zm0 3.983v1.991h.5v-1.991zm0 3.983v1.991h.5v-1.991zm0 3.983v1.99h.5v-1.99zm0 3.982v1.992h.5v-1.992zm0 3.983v1.991h.5v-1.991zm0 3.983v1.991h.5v-1.991zm0 3.983v1.99h.5v-1.99zm0 3.982v1.992h.5v-1.992zm0 3.983v1.991h.5v-1.99zm0 3.983v1.991h.5v-1.991zm0 3.983v1.991h.5v-1.991zm0 3.982v1.992h.5v-1.992zm0 3.983v1.991h.5v-1.99zm0 3.983v1.991h.5v-1.991zm0 3.983v1.991h.5v-1.991zm0 3.982v1.992h.5v-1.992zm0 3.983v1.992h.5v-1.992zm0 3.983v1.991h.5v-1.991zm0 3.983v1.991h.5v-1.991zm0 3.982v1.992h.5v-1.992zm0 3.983v1.992h.5v-1.992zm0 3.983v1.991h.5v-1.991zm0 3.983v1.991h.5v-1.991zm0 3.982v1.992h.5v-1.992zm0 3.983v1.992h.5v-1.992zm0 3.983v1.991h.5v-1.991zm0 3.983v1.991h.5v-1.991zm0 3.982v1.992h.5v-1.992zm0 3.983v1.992h.5v-1.992zm0 3.983v1.991h.5v-1.991zm0 3.983v1.991h.5v-1.991zm0 3.983v1.99h.5v-1.99zm0 3.982v1.992h.5v-1.992zm0 3.983v1.991h.5v-1.991zm0 3.983v1.991h.5v-1.991zm0 3.983v1.99h.5v-1.99zm0 3.982V462h.5v-.996zM148.25 0v.996h.5V0zm0 2.987v1.991h.5v-1.99zm0 3.983V8.96h.5V6.97zm0 3.983v1.991h.5v-1.991zm0 3.982v1.992h.5v-1.992zm0 3.983v1.991h.5v-1.99zm0 3.983v1.991h.5v-1.991zm0 3.983v1.991h.5v-1.991zm0 3.982v1.992h.5v-1.992zm0 3.983v1.992h.5v-1.992zm0 3.983v1.991h.5v-1.991zm0 3.983v1.991h.5v-1.991zm0 3.982v1.992h.5v-1.992zm0 3.983v1.992h.5V50.78zm0 3.983v1.991h.5v-1.991zm0 3.983v1.991h.5v-1.991zm0 3.982v1.992h.5v-1.992zm0 3.983v1.992h.5V66.71zm0 3.983v1.991h.5v-1.991zm0 3.983v1.991h.5v-1.991zm0 3.982v1.992h.5v-1.992zm0 3.983v1.992h.5v-1.992zm0 3.983v1.991h.5v-1.991zm0 3.983v1.991h.5v-1.991zm0 3.983v1.99h.5v-1.99zm0 3.982v1.992h.5v-1.992zm0 3.983v1.991h.5v-1.991zm0 3.983v1.991h.5v-1.991zm0 3.983v1.99h.5v-1.99zm0 3.982v1.992h.5v-1.992zm0 3.983v1.991h.5v-1.99zm0 3.983v1.991h.5v-1.991zm0 3.983v1.991h.5v-1.991zm0 3.982v1.992h.5v-1.992zm0 3.983v1.991h.5v-1.99zm0 3.983v1.991h.5v-1.991zm0 3.983v1.991h.5v-1.991zm0 3.982v1.992h.5v-1.992zm0 3.983v1.992h.5v-1.992zm0 3.983v1.991h.5v-1.991zm0 3.983v1.991h.5v-1.991zm0 3.982v1.992h.5v-1.992zm0 3.983v1.992h.5v-1.992zm0 3.983v1.991h.5v-1.991zm0 3.983v1.991h.5v-1.991zm0 3.982v1.992h.5v-1.992zm0 3.983v1.992h.5v-1.992zm0 3.983v1.991h.5v-1.991zm0 3.983v1.991h.5v-1.991zm0 3.982v1.992h.5v-1.992zm0 3.983v1.992h.5v-1.992zm0 3.983v1.991h.5v-1.991zm0 3.983v1.991h.5v-1.991zm0 3.983v1.99h.5v-1.99zm0 3.982v1.992h.5v-1.992zm0 3.983v1.991h.5v-1.991zm0 3.983v1.991h.5v-1.991zm0 3.983v1.99h.5v-1.99zm0 3.982v1.992h.5v-1.992zm0 3.983v1.991h.5v-1.99zm0 3.983v1.991h.5v-1.991zm0 3.983v1.991h.5v-1.991zm0 3.982v1.992h.5v-1.992zm0 3.983v1.991h.5v-1.99zm0 3.983v1.991h.5v-1.991zm0 3.983v1.991h.5v-1.991zm0 3.982v1.992h.5v-1.992zm0 3.983v1.992h.5v-1.992zm0 3.983v1.991h.5v-1.991zm0 3.983v1.991h.5v-1.991zm0 3.982v1.992h.5v-1.992zm0 3.983v1.992h.5v-1.992zm0 3.983v1.991h.5v-1.991zm0 3.983v1.991h.5v-1.991zm0 3.982v1.992h.5v-1.992zm0 3.983v1.992h.5v-1.992zm0 3.983v1.991h.5v-1.991zm0 3.983v1.991h.5v-1.991zm0 3.982v1.992h.5v-1.992zm0 3.983v1.992h.5v-1.992zm0 3.983v1.991h.5v-1.991zm0 3.983v1.991h.5v-1.991zm0 3.983v1.99h.5v-1.99zm0 3.982v1.992h.5v-1.992zm0 3.983v1.991h.5v-1.991zm0 3.983v1.991h.5v-1.991zm0 3.983v1.99h.5v-1.99zm0 3.982v1.992h.5v-1.992zm0 3.983v1.991h.5v-1.99zm0 3.983v1.991h.5v-1.991zm0 3.983v1.991h.5v-1.991zm0 3.982v1.992h.5v-1.992zm0 3.983v1.991h.5v-1.99zm0 3.983v1.991h.5v-1.991zm0 3.983v1.991h.5v-1.991zm0 3.982v1.992h.5v-1.992zm0 3.983v1.992h.5v-1.992zm0 3.983v1.991h.5v-1.991zm0 3.983v1.991h.5v-1.991zm0 3.982v1.992h.5v-1.992zm0 3.983v1.992h.5v-1.992zm0 3.983v1.991h.5v-1.991zm0 3.983v1.991h.5v-1.991zm0 3.982v1.992h.5v-1.992zm0 3.983v1.992h.5v-1.992zm0 3.983v1.991h.5v-1.991zm0 3.983v1.991h.5v-1.991zm0 3.982v1.992h.5v-1.992zm0 3.983v1.992h.5v-1.992zm0 3.983v1.991h.5v-1.991zm0 3.983v1.991h.5v-1.991zm0 3.983v1.99h.5v-1.99zm0 3.982v1.992h.5v-1.992zm0 3.983v1.991h.5v-1.991zm0 3.983v1.991h.5v-1.991zm0 3.983v1.99h.5v-1.99zm0 3.982V462h.5v-.996z"/></g></svg>