<svg xmlns="http://www.w3.org/2000/svg" width="36" height="36" fill="none" viewBox="0 0 36 36"><path fill="#fa9d3b" d="M0 8a8 8 0 0 1 8-8h20a8 8 0 0 1 8 8v20a8 8 0 0 1-8 8H8a8 8 0 0 1-8-8Z"/><path fill="#fff" fill-rule="evenodd" d="m27.05 20.131.005-.02c1.357-4.9 1.465-8.006.332-9.495-.611-.803-1.383-.866-1.605-.866l-.05.001c-.899.012-2.22.637-5.15 4.994a71 71 0 0 0-2.001 3.168 71 71 0 0 0-2-3.168c-2.931-4.357-4.252-4.982-5.15-4.994l-.051-.001c-.222 0-.994.062-1.605.866-1.133 1.49-1.025 4.595.332 9.496l.006.02c.017.057.427 1.42 1.009 2.808.972 2.32 1.824 3.31 2.847 3.31.935 0 2.012-.723 3.2-2.149.516-.618 1-1.314 1.412-2.02.413.706.896 1.402 1.412 2.02 1.189 1.426 2.266 2.149 3.2 2.149 1.024 0 1.875-.99 2.848-3.31a32 32 0 0 0 1.009-2.809m-15.642-8.423c-.092.065-.29.327-.394 1.005-.15.993-.105 2.991.967 6.868.033.107.36 1.173.812 2.3.666 1.658 1.104 2.217 1.276 2.389.251-.103.832-.478 1.654-1.478a12.7 12.7 0 0 0 1.777-2.868 74 74 0 0 0-2.43-3.932c-2.454-3.677-3.465-4.21-3.662-4.284m14.344 0c-.196.073-1.208.607-3.662 4.284a74 74 0 0 0-2.43 3.932 12.8 12.8 0 0 0 1.777 2.868c.823 1 1.403 1.375 1.654 1.478.173-.173.613-.734 1.282-2.402q.447-1.127.806-2.287c1.072-3.877 1.118-5.875.967-6.868-.103-.678-.302-.94-.394-1.005"/></svg>