<svg xmlns="http://www.w3.org/2000/svg" width="12" height="12" fill="none" viewBox="0 0 12 12"><path fill="#3069f9" fill-rule="evenodd" d="M2.25 6v4.75q0 .23.13.421.04.061.093.113t.115.093q.062.04.13.068t.14.042.147.013.147-.015.14-.044.13-.07l3.5-2.375 3.5-2.375q.118-.081.199-.2.083-.123.114-.27.03-.146.002-.292-.028-.147-.11-.271t-.206-.209l-3.5-2.375L3.421.63Q3.231.5 3 .5q-.074 0-.146.014-.073.015-.141.043t-.13.07q-.061.04-.113.093-.053.052-.094.113-.04.062-.069.13-.028.068-.043.14t-.014.147zm1.5 3.335 2.329-1.58L8.664 6 6.08 4.246 3.75 2.666z" style="mix-blend-mode:passthrough"/></svg>