<svg xmlns="http://www.w3.org/2000/svg" xmlns:xlink="http://www.w3.org/1999/xlink" fill="none" version="1.1" width="20.490234375" height="20.15020751953125" viewBox="0 0 20.490234375 20.15020751953125"><defs><linearGradient x1="0.5" y1="0" x2="0.5" y2="1" id="master_svg0_332_0031"><stop offset="0%" stop-color="#3069F9" stop-opacity="1"/><stop offset="100%" stop-color="#3069F9" stop-opacity="0"/></linearGradient></defs><path d="M11.54298967321289,0.086929023Q13.08697839321289,-0.14322156,14.59918429321289,0.23596734Q16.68140599321289,0.7580952,18.20684619321289,2.2835286Q19.73237899321289,3.8090608,20.254441293212892,5.8912659Q20.63363839321289,7.4034333,20.403472893212893,8.9473963C20.34240149321289,9.3570843,19.96077349321289,9.6396923,19.55108639321289,9.578619C19.14139839321289,9.5175457,18.85879229321289,9.1359177,18.91986749321289,8.7262297Q19.10592559321289,7.4781318,18.79947569321289,6.256062Q18.38325879321289,4.5960097,17.17495539321289,3.3731306C17.15537409321289,3.3533123,17.13706919321289,3.3350077,17.11725089321289,3.3154259Q15.89444259321289,2.1071999,14.234350893212891,1.6909235Q13.01227949321289,1.3844864,11.764139773212891,1.5705371C11.35445153321289,1.631608,10.97282643321289,1.3489969,10.91175734321289,0.93930864C10.85068822321289,0.52962017,11.133301053212891,0.14799625,11.54298967321289,0.086929023Z" fill-rule="evenodd" fill="#3069F9" fill-opacity="1" style="mix-blend-mode:passthrough"/><path d="M11.743662000219727,3.96387028744104Q12.668666650219727,3.82597267644104,13.557627450219726,4.11040473144104Q14.477527650219727,4.40473628144104,15.164392950219726,5.09155296144104Q15.851241550219726,5.7784023614410405,16.145556950219728,6.69833376144104Q16.429955450219726,7.5872673614410395,16.292060350219728,8.51231356144104C16.230990850219726,8.92200156144104,15.849365250219726,9.20461206144104,15.439677250219727,9.14354066144104C15.029989250219726,9.082469261441041,14.747380450219726,8.70084216144104,14.808454050219726,8.291154661441041Q14.894843550219726,7.71162436144104,14.716892450219726,7.1554093614410395Q14.533403650219727,6.58188466144104,14.103770050219726,6.15225056144104Q13.674057050219727,5.72256806144104,13.100515150219726,5.53905746144104Q12.544297550219726,5.36108996144104,11.964834510219726,5.44747496144104C11.555147290219727,5.508552061441041,11.173517880219727,5.22594666144104,11.112442590219727,4.81625932144104C11.051367290219726,4.40657186144104,11.333974330219727,4.02494372144104,11.743662000219727,3.96387028744104Z" fill-rule="evenodd" fill="url(#master_svg0_332_0031)" fill-opacity="1" style="mix-blend-mode:passthrough"/><path d="M2.0700421,2.438291549682617C0.67056465,2.438291549682617,-0.34023431,3.738221149682617,0.10719343,5.064275049682617C1.0261525,7.787720249682617,2.7758439,12.015265449682618,5.4554157,14.694782549682618C8.1349316,17.374353549682617,12.362477,19.124044549682615,15.085923,20.042983549682617C16.411976,20.490453549682616,17.71192,19.47964854968262,17.71192,18.080144549682615L17.71192,15.331998549682616C17.71192,14.938695549682617,17.49872,14.576267549682617,17.154987,14.385168549682618L14.761196,13.054292549682618C14.448546,12.880471549682618,14.070245,12.872183549682617,13.750282,13.032189549682617L11.197463,14.308574549682618C11.197463,14.308574549682618,9.3017902,13.945006549682617,7.7534914,12.396707549682617C6.2051907,10.848406749682617,5.8352332,8.946345849682618,5.8352332,8.946345849682618L7.1118321,6.393146549682617C7.2716775,6.073400249682617,7.2635527,5.6953709496826175,7.0900569,5.3828291496826175L5.7648683,2.995807229682617C5.5738778,2.651718589682617,5.2112865,2.438291549682617,4.8177123,2.438291549682617L2.0700421,2.438291549682617Z" fill="#3069F9" fill-opacity="1"/></svg>