<svg xmlns="http://www.w3.org/2000/svg" width="36" height="36" fill="none" viewBox="0 0 36 36"><path fill="#ff2e4d" d="M0 8a8 8 0 0 1 8-8h20a8 8 0 0 1 8 8v20a8 8 0 0 1-8 8H8a8 8 0 0 1-8-8Z"/><path fill="#fff" fill-rule="evenodd" d="M30.789 22.982a1.53 1.53 0 0 0 1.202-1.499q.009-1.222.003-2.446.002-.19-.033-.38c-.12-.63-.485-1.047-1.078-1.276a2.2 2.2 0 0 0-.867-.144c-.146.003-.18-.034-.186-.178-.007-.143-.017-.29-.017-.435a19 19 0 0 1-.001-.425c0-.247.002-.493-.013-.738a1.7 1.7 0 0 0-.42-1.01c-.44-.51-1.02-.739-1.687-.742q-.39 0-.776-.003c-.152-.004-.193-.045-.197-.2q-.001-.082.002-.165.004-.084.002-.166c-.007-.185-.01-.185-.19-.185h-.227c-.413 0-.83 0-1.243-.004-.105 0-.156.031-.153.144q.006.12.002.24l-.002.12c-.003.201-.013.215-.206.215l-.288.001q-.288.002-.576 0c-.109 0-.156.026-.156.15q.01.768.003 1.536c0 .1.034.134.132.134q.232-.002.464 0h.475c.108 0 .156.034.156.147q-.002.337 0 .676v.679c-.004.185-.014.192-.2.192-.488.003-.973 0-1.46.003-.163.004-.18.024-.18.188l-.001.452q-.002.455 0 .907l.001.085c0 .107 0 .159.026.184s.075.024.172.023l.087-.001c.464 0 .931-.01 1.396-.014.088 0 .172.007.172.133v1.869q-.006.002-.01-.007v1.82c0 .182.013.196.196.196h1.423c.19 0 .193-.003.193-.192l-.01-3.535c0-.243.018-.267.259-.267q1.281-.004 2.564-.003.063 0 .125.006c.224.014.539.284.535.534q-.003.358.004.715v.001c.004.264.008.529.003.793-.007.264-.115.38-.373.394-.298.014-.598.014-.898.013h-.396c-.149 0-.166.025-.111.165l.03.072c.156.363.315.726.467 1.088.072.174.125.213.319.213h.268q.337.005.67-.004c.203-.007.407-.02.604-.069M16.79 20.4a.2.2 0 0 1-.126.065c-.633.003-1.27.007-1.903-.004-.194-.004-.39-.048-.536-.195-.153-.154-.227-.335-.15-.544q.212-.552.438-1.099c.176-.417.356-.834.549-1.286-.106-.007-.17-.014-.23-.014q-.092-.001-.185.001a2.6 2.6 0 0 1-.375-.011c-.203-.024-.41-.048-.568-.219a.54.54 0 0 1-.12-.561c.099-.312.228-.613.356-.914.122-.28.261-.554.387-.832q.201-.447.4-.893.177-.394.348-.79c.034-.083.085-.113.177-.113q.499.002.999 0h.498c.166 0 .17.017.105.168-.287.667-.58 1.33-.864 1.998a.5.5 0 0 0-.054.222c.01.178.047.206.23.206q.375.002.746 0h.369c.075 0 .153.01.227.013.105.004.119.049.074.14q-.31.665-.61 1.332c-.138.315-.27.633-.406.948q-.139.315-.28.63-.136.286.188.29l.275.001q.275.002.548 0c.096 0 .143.027.096.13q-.248.565-.495 1.132c-.03.069-.064.14-.108.199m-7.46 1.31a1.5 1.5 0 0 1-.573 1.071c-.247.199-.535.281-.85.277H7.64q-.265-.002-.532 0c-.091 0-.149-.027-.186-.116q-.236-.523-.47-1.047c-.025-.051-.031-.106-.052-.157-.075-.188-.071-.196.135-.2h.634c.271 0 .387-.112.39-.39q.004-.312.003-.626v-3.316c.007.008.01.008.014.008v-3.908c0-.196.006-.202.2-.202h1.331c.234 0 .237.006.237.246q-.001 1.859.004 3.713c.003 1.088.013 2.177.013 3.265v.185c.001.4.002.8-.03 1.197m21.38-6.186c.32.003.598.006.863-.168.326-.216.502-.633.397-1.01a.91.91 0 0 0-.881-.653c-.366.006-.677.209-.803.554-.129.354-.1.722-.07 1.088l.008.113c.004.028.062.07.096.072.1.006.204.005.292.004h.097m-7.777 7.552h-5.712c-.078-.01-.159-.01-.27-.01.04-.12.064-.202.097-.277.214-.47.43-.934.64-1.403.048-.107.116-.133.217-.133h1.308c.208 0 .217-.01.217-.216V15.72c0-.181-.003-.185-.186-.185h-.278q-.281-.002-.559 0c-.105 0-.149-.023-.149-.143q.006-.567.004-1.132v-.367c0-.178.003-.178.175-.178h3.521q.195.002.39 0c.091 0 .128.037.125.13q-.005.779-.004 1.564c0 .092-.034.126-.129.126q-.271-.002-.542.001l-.36.002c-.104 0-.151.049-.151.158q.005 1.255.006 2.512-.001 1.426.004 2.857c0 .171.017.192.19.192h1.433c.155 0 .176.017.18.174.003.5 0 1 .003 1.5 0 .13-.071.143-.17.143m3.916-7.55c.301.004.606 0 .911.004.16.007.288.135.295.294q.003.627.007 1.253c.004.113-.044.171-.166.171-.326-.003-.65 0-.976-.003-.172 0-.203-.035-.203-.213-.004-.22 0-.441-.004-.664q0-.348-.003-.694c0-.1.03-.148.139-.148M6.082 17.73c-.034.482-.065.968-.12 1.45-.094.839-.284 1.654-.667 2.41-.098.188-.234.355-.372.568-.085-.178-.156-.318-.22-.462q-.342-.764-.675-1.53c-.024-.055-.04-.133-.016-.181.145-.311.155-.643.175-.976.028-.417.062-.83.092-1.248.024-.32.037-.637.064-.955.03-.37.068-.74.098-1.105.007-.09.048-.117.13-.117q.754 0 1.51-.003c.109 0 .14.044.133.147-.044.667-.085 1.334-.132 2.002m6.694 2.662c-.227.527-.465 1.047-.698 1.57-.02.052-.054.103-.109.202-.135-.205-.277-.373-.37-.565-.128-.28-.206-.585-.334-.865-.14-.305-.19-.633-.255-.955-.053-.274-.063-.558-.084-.835-.054-.702-.101-1.403-.156-2.101q-.044-.574-.095-1.147c-.007-.068.01-.099.089-.099.525 0 1.047-.007 1.572-.01.098 0 .139.044.142.136.013.213.023.425.04.637.014.175.034.349.048.52.023.247.047.493.064.736.024.315.024.63.068.94.061.477.013.962.18 1.428.036.1-.03.245-.085.369zm3.43 1.907c.135-.301.278-.6.41-.904.06-.133.047-.154-.099-.154a40 40 0 0 0-1.023.001c-.54.007-1.082.014-1.613-.12-.027-.008-.078.023-.091.05-.054.103-.091.213-.139.315a169 169 0 0 1-.613 1.332c-.034.078-.017.126.064.143.163.034.322.086.485.093.239.01.478.007.717.005l.31-.002h1.016c.217 0 .274-.04.359-.246q.105-.257.217-.513"/></svg>